<svg width="370" height="433" viewBox="0 0 370 433" fill="none" xmlns="http://www.w3.org/2000/svg">
<g filter="url(#filter0_b)">
<rect width="370" height="433" rx="16" fill="#2B076E"/>
</g>
<rect x="84" y="321" width="205" height="64" rx="32" fill="#3671E9"/>
<path d="M114.103 359.68C113.023 359.68 112.099 359.518 111.331 359.194C110.563 358.87 109.981 358.444 109.585 357.916C109.189 357.388 108.979 356.812 108.955 356.188C108.955 356.092 108.991 356.008 109.063 355.936C109.135 355.852 109.225 355.81 109.333 355.81H110.971C111.103 355.81 111.211 355.84 111.295 355.9C111.379 355.96 111.457 356.044 111.529 356.152C111.649 356.56 111.919 356.902 112.339 357.178C112.771 357.454 113.359 357.592 114.103 357.592C114.943 357.592 115.573 357.454 115.993 357.178C116.425 356.89 116.641 356.5 116.641 356.008C116.641 355.684 116.533 355.414 116.317 355.198C116.101 354.982 115.771 354.796 115.327 354.64C114.895 354.472 114.247 354.274 113.383 354.046C111.967 353.71 110.929 353.266 110.269 352.714C109.609 352.162 109.279 351.37 109.279 350.338C109.279 349.642 109.471 349.024 109.855 348.484C110.239 347.932 110.785 347.5 111.493 347.188C112.213 346.876 113.047 346.72 113.995 346.72C114.991 346.72 115.849 346.894 116.569 347.242C117.301 347.59 117.853 348.028 118.225 348.556C118.609 349.072 118.813 349.588 118.837 350.104C118.837 350.2 118.801 350.29 118.729 350.374C118.657 350.446 118.567 350.482 118.459 350.482H116.749C116.485 350.482 116.305 350.374 116.209 350.158C116.149 349.774 115.915 349.456 115.507 349.204C115.099 348.94 114.595 348.808 113.995 348.808C113.335 348.808 112.813 348.934 112.429 349.186C112.057 349.438 111.871 349.804 111.871 350.284C111.871 350.608 111.967 350.878 112.159 351.094C112.351 351.31 112.651 351.502 113.059 351.67C113.467 351.826 114.061 352.006 114.841 352.21C115.909 352.45 116.755 352.72 117.379 353.02C118.015 353.32 118.483 353.698 118.783 354.154C119.083 354.61 119.233 355.192 119.233 355.9C119.233 356.68 119.017 357.358 118.585 357.934C118.165 358.498 117.565 358.93 116.785 359.23C116.017 359.53 115.123 359.68 114.103 359.68ZM125.309 359.5C124.217 359.5 123.395 359.218 122.843 358.654C122.291 358.078 122.015 357.238 122.015 356.134V352.066H120.593C120.473 352.066 120.371 352.024 120.287 351.94C120.203 351.856 120.161 351.754 120.161 351.634V350.572C120.161 350.452 120.203 350.35 120.287 350.266C120.371 350.182 120.473 350.14 120.593 350.14H122.015V347.152C122.015 347.02 122.057 346.918 122.141 346.846C122.225 346.762 122.327 346.72 122.447 346.72H123.941C124.073 346.72 124.175 346.762 124.247 346.846C124.331 346.918 124.373 347.02 124.373 347.152V350.14H126.623C126.743 350.14 126.845 350.182 126.929 350.266C127.013 350.35 127.055 350.452 127.055 350.572V351.634C127.055 351.754 127.013 351.856 126.929 351.94C126.845 352.024 126.743 352.066 126.623 352.066H124.373V355.936C124.373 356.452 124.463 356.842 124.643 357.106C124.823 357.37 125.117 357.502 125.525 357.502H126.785C126.917 357.502 127.019 357.544 127.091 357.628C127.175 357.7 127.217 357.802 127.217 357.934V359.068C127.217 359.188 127.175 359.29 127.091 359.374C127.019 359.458 126.917 359.5 126.785 359.5H125.309ZM131.531 359.68C130.919 359.68 130.355 359.56 129.839 359.32C129.335 359.068 128.933 358.732 128.633 358.312C128.345 357.892 128.201 357.43 128.201 356.926C128.201 356.11 128.531 355.45 129.191 354.946C129.851 354.442 130.757 354.1 131.909 353.92L134.375 353.56V353.182C134.375 352.666 134.243 352.276 133.979 352.012C133.715 351.748 133.295 351.616 132.719 351.616C132.323 351.616 132.005 351.688 131.765 351.832C131.525 351.976 131.327 352.126 131.171 352.282C131.027 352.426 130.931 352.522 130.883 352.57C130.835 352.714 130.745 352.786 130.613 352.786H129.209C129.101 352.786 129.005 352.75 128.921 352.678C128.849 352.606 128.813 352.51 128.813 352.39C128.825 352.09 128.969 351.754 129.245 351.382C129.533 350.998 129.971 350.668 130.559 350.392C131.147 350.104 131.873 349.96 132.737 349.96C134.153 349.96 135.185 350.278 135.833 350.914C136.481 351.55 136.805 352.384 136.805 353.416V359.068C136.805 359.188 136.763 359.29 136.679 359.374C136.607 359.458 136.505 359.5 136.373 359.5H134.879C134.759 359.5 134.657 359.458 134.573 359.374C134.489 359.29 134.447 359.188 134.447 359.068V358.366C134.183 358.75 133.811 359.068 133.331 359.32C132.851 359.56 132.251 359.68 131.531 359.68ZM132.143 357.952C132.803 357.952 133.343 357.736 133.763 357.304C134.183 356.872 134.393 356.248 134.393 355.432V355.072L132.593 355.36C131.213 355.576 130.523 356.038 130.523 356.746C130.523 357.13 130.679 357.43 130.991 357.646C131.315 357.85 131.699 357.952 132.143 357.952ZM139.546 359.5C139.426 359.5 139.324 359.458 139.24 359.374C139.156 359.29 139.114 359.188 139.114 359.068V350.59C139.114 350.458 139.156 350.35 139.24 350.266C139.324 350.182 139.426 350.14 139.546 350.14H141.022C141.154 350.14 141.262 350.182 141.346 350.266C141.43 350.35 141.472 350.458 141.472 350.59V351.328C142.072 350.536 142.936 350.14 144.064 350.14H144.82C144.952 350.14 145.054 350.182 145.126 350.266C145.21 350.338 145.252 350.44 145.252 350.572V351.886C145.252 352.006 145.21 352.108 145.126 352.192C145.054 352.276 144.952 352.318 144.82 352.318H143.398C142.834 352.318 142.39 352.48 142.066 352.804C141.742 353.128 141.58 353.572 141.58 354.136V359.068C141.58 359.188 141.538 359.29 141.454 359.374C141.37 359.458 141.268 359.5 141.148 359.5H139.546ZM150.903 359.5C149.811 359.5 148.989 359.218 148.437 358.654C147.885 358.078 147.609 357.238 147.609 356.134V352.066H146.187C146.067 352.066 145.965 352.024 145.881 351.94C145.797 351.856 145.755 351.754 145.755 351.634V350.572C145.755 350.452 145.797 350.35 145.881 350.266C145.965 350.182 146.067 350.14 146.187 350.14H147.609V347.152C147.609 347.02 147.651 346.918 147.735 346.846C147.819 346.762 147.921 346.72 148.041 346.72H149.535C149.667 346.72 149.769 346.762 149.841 346.846C149.925 346.918 149.967 347.02 149.967 347.152V350.14H152.217C152.337 350.14 152.439 350.182 152.523 350.266C152.607 350.35 152.649 350.452 152.649 350.572V351.634C152.649 351.754 152.607 351.856 152.523 351.94C152.439 352.024 152.337 352.066 152.217 352.066H149.967V355.936C149.967 356.452 150.057 356.842 150.237 357.106C150.417 357.37 150.711 357.502 151.119 357.502H152.379C152.511 357.502 152.613 357.544 152.685 357.628C152.769 357.7 152.811 357.802 152.811 357.934V359.068C152.811 359.188 152.769 359.29 152.685 359.374C152.613 359.458 152.511 359.5 152.379 359.5H150.903ZM158.934 359.5C158.814 359.5 158.712 359.458 158.628 359.374C158.544 359.29 158.502 359.188 158.502 359.068V350.572C158.502 350.44 158.544 350.338 158.628 350.266C158.712 350.182 158.814 350.14 158.934 350.14H160.356C160.488 350.14 160.59 350.182 160.662 350.266C160.746 350.338 160.788 350.44 160.788 350.572V351.184C161.436 350.368 162.306 349.96 163.398 349.96C164.73 349.96 165.66 350.494 166.188 351.562C166.476 351.082 166.884 350.698 167.412 350.41C167.94 350.11 168.51 349.96 169.122 349.96C170.106 349.96 170.91 350.296 171.534 350.968C172.158 351.64 172.47 352.618 172.47 353.902V359.068C172.47 359.188 172.428 359.29 172.344 359.374C172.272 359.458 172.17 359.5 172.038 359.5H170.544C170.424 359.5 170.322 359.458 170.238 359.374C170.154 359.29 170.112 359.188 170.112 359.068V354.046C170.112 353.29 169.95 352.744 169.626 352.408C169.314 352.072 168.9 351.904 168.384 351.904C167.916 351.904 167.514 352.078 167.178 352.426C166.854 352.762 166.692 353.302 166.692 354.046V359.068C166.692 359.188 166.65 359.29 166.566 359.374C166.494 359.458 166.392 359.5 166.26 359.5H164.748C164.628 359.5 164.526 359.458 164.442 359.374C164.358 359.29 164.316 359.188 164.316 359.068V354.046C164.316 353.302 164.154 352.762 163.83 352.426C163.506 352.078 163.092 351.904 162.588 351.904C162.12 351.904 161.718 352.078 161.382 352.426C161.058 352.762 160.896 353.302 160.896 354.046V359.068C160.896 359.188 160.854 359.29 160.77 359.374C160.698 359.458 160.596 359.5 160.464 359.5H158.934ZM175.122 348.61C175.002 348.61 174.9 348.568 174.816 348.484C174.732 348.4 174.69 348.298 174.69 348.178V346.864C174.69 346.732 174.732 346.624 174.816 346.54C174.9 346.456 175.002 346.414 175.122 346.414H176.778C176.91 346.414 177.018 346.456 177.102 346.54C177.186 346.624 177.228 346.732 177.228 346.864V348.178C177.228 348.298 177.18 348.4 177.084 348.484C177 348.568 176.898 348.61 176.778 348.61H175.122ZM175.194 359.5C175.074 359.5 174.972 359.458 174.888 359.374C174.804 359.29 174.762 359.188 174.762 359.068V350.572C174.762 350.44 174.804 350.338 174.888 350.266C174.972 350.182 175.074 350.14 175.194 350.14H176.724C176.844 350.14 176.946 350.182 177.03 350.266C177.114 350.35 177.156 350.452 177.156 350.572V359.068C177.156 359.188 177.114 359.29 177.03 359.374C176.946 359.458 176.844 359.5 176.724 359.5H175.194ZM179.958 359.5C179.838 359.5 179.736 359.458 179.652 359.374C179.568 359.29 179.526 359.188 179.526 359.068V350.572C179.526 350.44 179.568 350.338 179.652 350.266C179.736 350.182 179.838 350.14 179.958 350.14H181.452C181.584 350.14 181.686 350.182 181.758 350.266C181.842 350.338 181.884 350.44 181.884 350.572V351.31C182.616 350.41 183.618 349.96 184.89 349.96C185.994 349.96 186.87 350.32 187.518 351.04C188.166 351.76 188.49 352.75 188.49 354.01V359.068C188.49 359.188 188.448 359.29 188.364 359.374C188.292 359.458 188.19 359.5 188.058 359.5H186.438C186.318 359.5 186.216 359.458 186.132 359.374C186.048 359.29 186.006 359.188 186.006 359.068V354.118C186.006 353.422 185.832 352.882 185.484 352.498C185.148 352.102 184.662 351.904 184.026 351.904C183.414 351.904 182.922 352.102 182.55 352.498C182.178 352.894 181.992 353.434 181.992 354.118V359.068C181.992 359.188 181.95 359.29 181.866 359.374C181.794 359.458 181.692 359.5 181.56 359.5H179.958ZM191.136 348.61C191.016 348.61 190.914 348.568 190.83 348.484C190.746 348.4 190.704 348.298 190.704 348.178V346.864C190.704 346.732 190.746 346.624 190.83 346.54C190.914 346.456 191.016 346.414 191.136 346.414H192.792C192.924 346.414 193.032 346.456 193.116 346.54C193.2 346.624 193.242 346.732 193.242 346.864V348.178C193.242 348.298 193.194 348.4 193.098 348.484C193.014 348.568 192.912 348.61 192.792 348.61H191.136ZM191.208 359.5C191.088 359.5 190.986 359.458 190.902 359.374C190.818 359.29 190.776 359.188 190.776 359.068V350.572C190.776 350.44 190.818 350.338 190.902 350.266C190.986 350.182 191.088 350.14 191.208 350.14H192.738C192.858 350.14 192.96 350.182 193.044 350.266C193.128 350.35 193.17 350.452 193.17 350.572V359.068C193.17 359.188 193.128 359.29 193.044 359.374C192.96 359.458 192.858 359.5 192.738 359.5H191.208ZM195.972 359.5C195.852 359.5 195.75 359.458 195.666 359.374C195.582 359.29 195.54 359.188 195.54 359.068V350.572C195.54 350.44 195.582 350.338 195.666 350.266C195.75 350.182 195.852 350.14 195.972 350.14H197.466C197.598 350.14 197.7 350.182 197.772 350.266C197.856 350.338 197.898 350.44 197.898 350.572V351.31C198.63 350.41 199.632 349.96 200.904 349.96C202.008 349.96 202.884 350.32 203.532 351.04C204.18 351.76 204.504 352.75 204.504 354.01V359.068C204.504 359.188 204.462 359.29 204.378 359.374C204.306 359.458 204.204 359.5 204.072 359.5H202.452C202.332 359.5 202.23 359.458 202.146 359.374C202.062 359.29 202.02 359.188 202.02 359.068V354.118C202.02 353.422 201.846 352.882 201.498 352.498C201.162 352.102 200.676 351.904 200.04 351.904C199.428 351.904 198.936 352.102 198.564 352.498C198.192 352.894 198.006 353.434 198.006 354.118V359.068C198.006 359.188 197.964 359.29 197.88 359.374C197.808 359.458 197.706 359.5 197.574 359.5H195.972ZM211.02 363.46C209.952 363.46 209.088 363.28 208.428 362.92C207.768 362.572 207.3 362.17 207.024 361.714C206.748 361.258 206.61 360.868 206.61 360.544C206.61 360.424 206.652 360.322 206.736 360.238C206.82 360.166 206.922 360.13 207.042 360.13H208.644C208.752 360.13 208.842 360.154 208.914 360.202C208.998 360.262 209.064 360.364 209.112 360.508C209.244 360.82 209.442 361.084 209.706 361.3C209.97 361.528 210.378 361.642 210.93 361.642C211.65 361.642 212.178 361.48 212.514 361.156C212.85 360.844 213.018 360.292 213.018 359.5V358.276C212.37 359.044 211.452 359.428 210.264 359.428C209.016 359.428 208.074 359.05 207.438 358.294C206.814 357.538 206.478 356.506 206.43 355.198L206.412 354.712L206.43 354.226C206.478 352.942 206.82 351.91 207.456 351.13C208.092 350.35 209.028 349.96 210.264 349.96C210.9 349.96 211.458 350.08 211.938 350.32C212.418 350.56 212.814 350.884 213.126 351.292V350.59C213.126 350.458 213.168 350.35 213.252 350.266C213.348 350.182 213.456 350.14 213.576 350.14H215.052C215.172 350.14 215.274 350.182 215.358 350.266C215.442 350.35 215.484 350.458 215.484 350.59L215.502 359.266C215.502 360.598 215.13 361.63 214.386 362.362C213.642 363.094 212.52 363.46 211.02 363.46ZM210.948 357.52C211.62 357.52 212.124 357.304 212.46 356.872C212.796 356.44 212.982 355.912 213.018 355.288C213.03 355.192 213.036 355 213.036 354.712C213.036 354.424 213.03 354.232 213.018 354.136C212.982 353.512 212.796 352.984 212.46 352.552C212.124 352.12 211.62 351.904 210.948 351.904C209.652 351.904 208.968 352.696 208.896 354.28L208.878 354.712C208.878 356.584 209.568 357.52 210.948 357.52Z" fill="white"/>
<circle cx="257" cy="353" r="16" fill="white"/>
<path d="M255.5 358C255.368 358.001 255.238 357.976 255.116 357.926C254.994 357.876 254.883 357.803 254.79 357.71C254.696 357.617 254.622 357.506 254.571 357.385C254.52 357.263 254.494 357.132 254.494 357C254.494 356.868 254.52 356.737 254.571 356.615C254.622 356.494 254.696 356.383 254.79 356.29L258.1 353L254.92 349.69C254.734 349.503 254.629 349.249 254.629 348.985C254.629 348.721 254.734 348.467 254.92 348.28C255.013 348.186 255.124 348.112 255.245 348.061C255.367 348.01 255.498 347.984 255.63 347.984C255.762 347.984 255.893 348.01 256.015 348.061C256.136 348.112 256.247 348.186 256.34 348.28L260.2 352.28C260.383 352.467 260.486 352.718 260.486 352.98C260.486 353.242 260.383 353.493 260.2 353.68L256.2 357.68C256.11 357.777 256.002 357.855 255.882 357.91C255.762 357.965 255.632 357.996 255.5 358Z" fill="#3671E9"/>
<path d="M108.148 211C107.935 211 107.743 210.925 107.572 210.776C107.423 210.605 107.348 210.413 107.348 210.2V189.432C107.348 189.197 107.423 189.005 107.572 188.856C107.721 188.685 107.913 188.6 108.148 188.6H118.036C120.745 188.6 122.761 189.155 124.084 190.264C125.407 191.373 126.068 192.952 126.068 195C126.068 196.024 125.791 196.909 125.236 197.656C124.703 198.403 124.105 198.947 123.444 199.288C124.319 199.672 125.055 200.312 125.652 201.208C126.249 202.083 126.548 203.075 126.548 204.184C126.548 206.339 125.833 208.013 124.404 209.208C122.996 210.403 120.969 211 118.324 211H108.148ZM117.364 197.464C118.153 197.464 118.761 197.251 119.188 196.824C119.615 196.397 119.828 195.843 119.828 195.16C119.828 194.499 119.615 193.965 119.188 193.56C118.783 193.133 118.175 192.92 117.364 192.92H113.364V197.464H117.364ZM117.652 206.68C118.484 206.68 119.124 206.445 119.572 205.976C120.041 205.485 120.276 204.888 120.276 204.184C120.276 203.459 120.041 202.861 119.572 202.392C119.103 201.901 118.463 201.656 117.652 201.656H113.364V206.68H117.652ZM130.421 192.056C130.186 192.056 129.994 191.981 129.845 191.832C129.696 191.661 129.621 191.459 129.621 191.224V188.248C129.621 188.013 129.696 187.821 129.845 187.672C130.016 187.501 130.208 187.416 130.421 187.416H134.421C134.656 187.416 134.848 187.501 134.997 187.672C135.168 187.821 135.253 188.013 135.253 188.248V191.224C135.253 191.459 135.168 191.661 134.997 191.832C134.848 191.981 134.656 192.056 134.421 192.056H130.421ZM130.421 211C130.208 211 130.016 210.925 129.845 210.776C129.696 210.605 129.621 210.413 129.621 210.2V195.16C129.621 194.925 129.696 194.733 129.845 194.584C130.016 194.435 130.208 194.36 130.421 194.36H134.421C134.656 194.36 134.848 194.435 134.997 194.584C135.168 194.733 135.253 194.925 135.253 195.16V210.2C135.253 210.435 135.168 210.627 134.997 210.776C134.848 210.925 134.656 211 134.421 211H130.421ZM147.638 211C143.115 211 140.854 208.877 140.854 204.632V198.712H138.326C138.113 198.712 137.921 198.637 137.75 198.488C137.601 198.317 137.526 198.125 137.526 197.912V195.16C137.526 194.925 137.601 194.733 137.75 194.584C137.921 194.435 138.113 194.36 138.326 194.36H140.854V189.08C140.854 188.845 140.929 188.653 141.078 188.504C141.249 188.355 141.441 188.28 141.654 188.28H145.59C145.825 188.28 146.017 188.355 146.166 188.504C146.315 188.653 146.39 188.845 146.39 189.08V194.36H150.39C150.625 194.36 150.817 194.435 150.966 194.584C151.137 194.733 151.222 194.925 151.222 195.16V197.912C151.222 198.147 151.137 198.339 150.966 198.488C150.817 198.637 150.625 198.712 150.39 198.712H146.39V204.152C146.39 204.899 146.529 205.464 146.806 205.848C147.083 206.232 147.531 206.424 148.15 206.424H150.678C150.913 206.424 151.105 206.509 151.254 206.68C151.403 206.829 151.478 207.021 151.478 207.256V210.2C151.478 210.413 151.403 210.605 151.254 210.776C151.105 210.925 150.913 211 150.678 211H147.638ZM161.802 211.32C159.37 211.32 157.397 210.68 155.882 209.4C154.389 208.099 153.589 206.296 153.482 203.992L153.45 202.712L153.482 201.4C153.568 199.096 154.368 197.293 155.882 195.992C157.397 194.691 159.37 194.04 161.802 194.04C163.658 194.04 165.216 194.371 166.474 195.032C167.733 195.693 168.672 196.483 169.29 197.4C169.909 198.296 170.24 199.117 170.282 199.864C170.304 200.099 170.229 200.301 170.058 200.472C169.888 200.621 169.685 200.696 169.45 200.696H165.162C164.928 200.696 164.746 200.643 164.618 200.536C164.49 200.429 164.373 200.259 164.266 200.024C164.032 199.427 163.722 198.989 163.338 198.712C162.976 198.435 162.506 198.296 161.93 198.296C160.288 198.296 159.434 199.384 159.37 201.56L159.338 202.776L159.37 203.832C159.392 204.941 159.616 205.763 160.042 206.296C160.469 206.808 161.098 207.064 161.93 207.064C162.549 207.064 163.029 206.936 163.37 206.68C163.733 206.403 164.032 205.955 164.266 205.336C164.373 205.101 164.49 204.931 164.618 204.824C164.746 204.717 164.928 204.664 165.162 204.664H169.45C169.664 204.664 169.856 204.739 170.026 204.888C170.197 205.037 170.282 205.219 170.282 205.432C170.282 206.093 169.984 206.893 169.386 207.832C168.81 208.749 167.882 209.56 166.602 210.264C165.322 210.968 163.722 211.32 161.802 211.32ZM181.027 211.32C178.339 211.32 176.27 210.701 174.819 209.464C173.39 208.205 172.611 206.424 172.483 204.12C172.462 203.843 172.451 203.363 172.451 202.68C172.451 201.997 172.462 201.517 172.483 201.24C172.611 198.979 173.411 197.219 174.883 195.96C176.376 194.68 178.424 194.04 181.027 194.04C183.63 194.04 185.667 194.68 187.139 195.96C188.632 197.219 189.443 198.979 189.571 201.24C189.614 201.795 189.635 202.275 189.635 202.68C189.635 203.085 189.614 203.565 189.571 204.12C189.443 206.424 188.654 208.205 187.203 209.464C185.774 210.701 183.715 211.32 181.027 211.32ZM181.027 207.288C181.902 207.288 182.552 207.021 182.979 206.488C183.406 205.933 183.651 205.091 183.715 203.96C183.736 203.747 183.747 203.32 183.747 202.68C183.747 202.04 183.736 201.613 183.715 201.4C183.651 200.291 183.406 199.459 182.979 198.904C182.552 198.349 181.902 198.072 181.027 198.072C180.152 198.072 179.502 198.349 179.075 198.904C178.648 199.459 178.403 200.291 178.339 201.4L178.307 202.68L178.339 203.96C178.403 205.091 178.648 205.933 179.075 206.488C179.502 207.021 180.152 207.288 181.027 207.288ZM193.483 192.056C193.249 192.056 193.057 191.981 192.907 191.832C192.758 191.661 192.683 191.459 192.683 191.224V188.248C192.683 188.013 192.758 187.821 192.907 187.672C193.078 187.501 193.27 187.416 193.483 187.416H197.483C197.718 187.416 197.91 187.501 198.059 187.672C198.23 187.821 198.315 188.013 198.315 188.248V191.224C198.315 191.459 198.23 191.661 198.059 191.832C197.91 191.981 197.718 192.056 197.483 192.056H193.483ZM193.483 211C193.27 211 193.078 210.925 192.907 210.776C192.758 210.605 192.683 210.413 192.683 210.2V195.16C192.683 194.925 192.758 194.733 192.907 194.584C193.078 194.435 193.27 194.36 193.483 194.36H197.483C197.718 194.36 197.91 194.435 198.059 194.584C198.23 194.733 198.315 194.925 198.315 195.16V210.2C198.315 210.435 198.23 210.627 198.059 210.776C197.91 210.925 197.718 211 197.483 211H193.483ZM202.765 211C202.551 211 202.359 210.925 202.189 210.776C202.039 210.605 201.965 210.413 201.965 210.2V195.16C201.965 194.925 202.039 194.733 202.189 194.584C202.359 194.435 202.551 194.36 202.765 194.36H206.701C206.935 194.36 207.127 194.435 207.277 194.584C207.426 194.733 207.501 194.925 207.501 195.16V196.376C208.077 195.672 208.813 195.107 209.709 194.68C210.626 194.253 211.671 194.04 212.845 194.04C214.061 194.04 215.138 194.317 216.077 194.872C217.037 195.427 217.783 196.248 218.317 197.336C218.871 198.424 219.149 199.736 219.149 201.272V210.2C219.149 210.413 219.074 210.605 218.925 210.776C218.775 210.925 218.583 211 218.349 211H214.093C213.858 211 213.655 210.925 213.485 210.776C213.335 210.627 213.261 210.435 213.261 210.2V201.464C213.261 200.504 213.026 199.768 212.557 199.256C212.109 198.744 211.447 198.488 210.573 198.488C209.719 198.488 209.047 198.755 208.557 199.288C208.066 199.8 207.821 200.525 207.821 201.464V210.2C207.821 210.413 207.746 210.605 207.597 210.776C207.447 210.925 207.255 211 207.021 211H202.765Z" fill="white"/>
<path opacity="0.7" d="M231.24 207C231.12 207 231.018 206.958 230.934 206.874C230.85 206.79 230.808 206.688 230.808 206.568V194.85C230.808 194.718 230.844 194.61 230.916 194.526C231 194.442 231.108 194.4 231.24 194.4H236.46C237.864 194.4 238.914 194.712 239.61 195.336C240.306 195.948 240.654 196.788 240.654 197.856C240.654 198.48 240.498 199.014 240.186 199.458C239.886 199.89 239.532 200.202 239.124 200.394C239.628 200.622 240.054 200.994 240.402 201.51C240.75 202.026 240.924 202.614 240.924 203.274C240.924 204.39 240.546 205.29 239.79 205.974C239.034 206.658 237.978 207 236.622 207H231.24ZM236.136 199.566C236.748 199.566 237.216 199.416 237.54 199.116C237.876 198.816 238.044 198.414 238.044 197.91C238.044 197.406 237.882 197.016 237.558 196.74C237.234 196.464 236.76 196.326 236.136 196.326H233.346V199.566H236.136ZM236.316 205.074C236.94 205.074 237.426 204.906 237.774 204.57C238.122 204.222 238.296 203.784 238.296 203.256C238.296 202.728 238.116 202.296 237.756 201.96C237.408 201.612 236.928 201.438 236.316 201.438H233.346V205.074H236.316ZM246.194 207C246.074 207 245.972 206.958 245.888 206.874C245.804 206.79 245.762 206.688 245.762 206.568V196.65H242.432C242.312 196.65 242.21 196.608 242.126 196.524C242.042 196.44 242 196.332 242 196.2V194.85C242 194.718 242.036 194.61 242.108 194.526C242.192 194.442 242.3 194.4 242.432 194.4H251.63C251.762 194.4 251.87 194.442 251.954 194.526C252.038 194.61 252.08 194.718 252.08 194.85V196.2C252.08 196.332 252.038 196.44 251.954 196.524C251.87 196.608 251.762 196.65 251.63 196.65H248.318V206.568C248.318 206.688 248.276 206.79 248.192 206.874C248.12 206.958 248.018 207 247.886 207H246.194ZM258.537 207.18C256.881 207.18 255.597 206.76 254.685 205.92C253.785 205.068 253.305 203.862 253.245 202.302C253.233 201.978 253.227 201.45 253.227 200.718C253.227 199.974 253.233 199.434 253.245 199.098C253.305 197.562 253.791 196.368 254.703 195.516C255.615 194.652 256.893 194.22 258.537 194.22C259.605 194.22 260.535 194.406 261.327 194.778C262.119 195.138 262.731 195.636 263.163 196.272C263.607 196.908 263.841 197.622 263.865 198.414V198.45C263.865 198.546 263.823 198.63 263.739 198.702C263.667 198.762 263.583 198.792 263.487 198.792H261.741C261.597 198.792 261.489 198.762 261.417 198.702C261.345 198.63 261.285 198.51 261.237 198.342C261.057 197.598 260.745 197.076 260.301 196.776C259.857 196.464 259.269 196.308 258.537 196.308C256.821 196.308 255.927 197.268 255.855 199.188C255.843 199.512 255.837 200.01 255.837 200.682C255.837 201.354 255.843 201.864 255.855 202.212C255.927 204.132 256.821 205.092 258.537 205.092C259.257 205.092 259.839 204.942 260.283 204.642C260.739 204.33 261.057 203.802 261.237 203.058C261.285 202.89 261.345 202.776 261.417 202.716C261.489 202.644 261.597 202.608 261.741 202.608H263.487C263.595 202.608 263.685 202.644 263.757 202.716C263.841 202.788 263.877 202.878 263.865 202.986C263.841 203.778 263.607 204.492 263.163 205.128C262.731 205.764 262.119 206.268 261.327 206.64C260.535 207 259.605 207.18 258.537 207.18Z" fill="white"/>
<path d="M50.7141 259C50.6074 259 50.5221 258.968 50.4581 258.904C50.3941 258.829 50.3621 258.739 50.3621 258.632V248.184C50.3621 248.067 50.3941 247.976 50.4581 247.912C50.5221 247.837 50.6074 247.8 50.7141 247.8H54.3301C55.9407 247.8 57.1034 248.163 57.8181 248.888C58.5327 249.603 58.9007 250.685 58.9221 252.136C58.9327 252.445 58.9381 252.861 58.9381 253.384C58.9381 253.907 58.9327 254.328 58.9221 254.648C58.9007 255.661 58.7354 256.488 58.4261 257.128C58.1274 257.757 57.6527 258.227 57.0021 258.536C56.3514 258.845 55.4874 259 54.4101 259H50.7141ZM54.3301 257.672C55.0767 257.672 55.6687 257.571 56.1061 257.368C56.5541 257.155 56.8741 256.829 57.0661 256.392C57.2687 255.944 57.3807 255.341 57.4021 254.584C57.4234 253.944 57.4341 253.544 57.4341 253.384C57.4341 253.213 57.4234 252.819 57.4021 252.2C57.3807 251.133 57.1247 250.355 56.6341 249.864C56.1541 249.363 55.3594 249.112 54.2501 249.112H51.8661V257.672H54.3301ZM61.5697 249.112C61.463 249.112 61.3723 249.08 61.2977 249.016C61.2337 248.941 61.2017 248.851 61.2017 248.744V247.912C61.2017 247.805 61.2337 247.715 61.2977 247.64C61.3723 247.565 61.463 247.528 61.5697 247.528H62.5137C62.6203 247.528 62.711 247.565 62.7857 247.64C62.8603 247.715 62.8977 247.805 62.8977 247.912V248.744C62.8977 248.851 62.8603 248.941 62.7857 249.016C62.711 249.08 62.6203 249.112 62.5137 249.112H61.5697ZM61.6977 259C61.591 259 61.5003 258.968 61.4257 258.904C61.3617 258.829 61.3297 258.739 61.3297 258.632V251.048C61.3297 250.941 61.3617 250.856 61.4257 250.792C61.5003 250.717 61.591 250.68 61.6977 250.68H62.4017C62.5083 250.68 62.5937 250.717 62.6577 250.792C62.7323 250.856 62.7697 250.941 62.7697 251.048V258.632C62.7697 258.739 62.7323 258.829 62.6577 258.904C62.5937 258.968 62.5083 259 62.4017 259H61.6977ZM68.7094 262.52C67.8241 262.52 67.1148 262.371 66.5814 262.072C66.0481 261.773 65.6694 261.432 65.4454 261.048C65.2321 260.664 65.1254 260.333 65.1254 260.056C65.1254 259.96 65.1628 259.875 65.2374 259.8C65.3121 259.736 65.3974 259.704 65.4934 259.704H66.1974C66.2934 259.704 66.3734 259.725 66.4374 259.768C66.5014 259.821 66.5548 259.912 66.5974 260.04C66.8961 260.893 67.5734 261.32 68.6294 261.32C69.4294 261.32 70.0214 261.149 70.4054 260.808C70.7894 260.467 70.9814 259.864 70.9814 259V257.896C70.3628 258.685 69.4988 259.08 68.3894 259.08C67.2588 259.08 66.4108 258.717 65.8454 257.992C65.2908 257.267 64.9974 256.349 64.9654 255.24L64.9494 254.792L64.9654 254.36C64.9974 253.261 65.2908 252.349 65.8454 251.624C66.4108 250.888 67.2588 250.52 68.3894 250.52C69.5094 250.52 70.3841 250.931 71.0134 251.752V251.064C71.0134 250.957 71.0454 250.867 71.1094 250.792C71.1841 250.717 71.2748 250.68 71.3814 250.68H72.0694C72.1761 250.68 72.2614 250.717 72.3254 250.792C72.4001 250.867 72.4374 250.957 72.4374 251.064V258.824C72.4374 261.288 71.1948 262.52 68.7094 262.52ZM68.6774 257.832C69.4241 257.832 69.9841 257.592 70.3574 257.112C70.7414 256.621 70.9494 256.035 70.9814 255.352C70.9921 255.256 70.9974 255.069 70.9974 254.792C70.9974 254.525 70.9921 254.344 70.9814 254.248C70.9494 253.565 70.7414 252.984 70.3574 252.504C69.9841 252.013 69.4241 251.768 68.6774 251.768C67.9094 251.768 67.3494 252.013 66.9974 252.504C66.6561 252.984 66.4694 253.608 66.4374 254.376L66.4214 254.792L66.4374 255.224C66.4694 255.992 66.6561 256.621 66.9974 257.112C67.3494 257.592 67.9094 257.832 68.6774 257.832ZM75.2491 249.112C75.1424 249.112 75.0517 249.08 74.9771 249.016C74.9131 248.941 74.8811 248.851 74.8811 248.744V247.912C74.8811 247.805 74.9131 247.715 74.9771 247.64C75.0517 247.565 75.1424 247.528 75.2491 247.528H76.1931C76.2997 247.528 76.3904 247.565 76.4651 247.64C76.5397 247.715 76.5771 247.805 76.5771 247.912V248.744C76.5771 248.851 76.5397 248.941 76.4651 249.016C76.3904 249.08 76.2997 249.112 76.1931 249.112H75.2491ZM75.3771 259C75.2704 259 75.1797 258.968 75.1051 258.904C75.0411 258.829 75.0091 258.739 75.0091 258.632V251.048C75.0091 250.941 75.0411 250.856 75.1051 250.792C75.1797 250.717 75.2704 250.68 75.3771 250.68H76.0811C76.1877 250.68 76.2731 250.717 76.3371 250.792C76.4117 250.856 76.4491 250.941 76.4491 251.048V258.632C76.4491 258.739 76.4117 258.829 76.3371 258.904C76.2731 258.968 76.1877 259 76.0811 259H75.3771ZM82.2128 259C80.5595 259 79.7328 258.067 79.7328 256.2V251.912H78.4688C78.3621 251.912 78.2768 251.88 78.2128 251.816C78.1488 251.752 78.1168 251.667 78.1168 251.56V251.048C78.1168 250.941 78.1488 250.856 78.2128 250.792C78.2768 250.717 78.3621 250.68 78.4688 250.68H79.7328V248.008C79.7328 247.901 79.7648 247.816 79.8288 247.752C79.8928 247.677 79.9781 247.64 80.0848 247.64H80.7888C80.8955 247.64 80.9808 247.677 81.0448 247.752C81.1195 247.816 81.1568 247.901 81.1568 248.008V250.68H83.1408C83.2475 250.68 83.3328 250.717 83.3968 250.792C83.4715 250.856 83.5088 250.941 83.5088 251.048V251.56C83.5088 251.667 83.4715 251.752 83.3968 251.816C83.3328 251.88 83.2475 251.912 83.1408 251.912H81.1568V256.088C81.1568 256.632 81.2421 257.043 81.4128 257.32C81.5941 257.597 81.8981 257.736 82.3248 257.736H83.3008C83.4075 257.736 83.4928 257.773 83.5568 257.848C83.6208 257.912 83.6528 257.997 83.6528 258.104V258.632C83.6528 258.739 83.6208 258.829 83.5568 258.904C83.4928 258.968 83.4075 259 83.3008 259H82.2128ZM87.6799 259.16C87.1573 259.16 86.6719 259.053 86.2239 258.84C85.7866 258.627 85.4346 258.339 85.1679 257.976C84.9119 257.603 84.7839 257.192 84.7839 256.744C84.7839 256.04 85.0719 255.464 85.6479 255.016C86.2239 254.568 87.0079 254.269 87.9999 254.12L90.3999 253.784V253.32C90.3999 252.221 89.7653 251.672 88.4959 251.672C88.0053 251.672 87.6106 251.773 87.3119 251.976C87.0133 252.168 86.7946 252.397 86.6559 252.664C86.6133 252.771 86.5653 252.845 86.5119 252.888C86.4693 252.92 86.4053 252.936 86.3199 252.936H85.6959C85.5999 252.936 85.5146 252.904 85.4399 252.84C85.3759 252.765 85.3439 252.68 85.3439 252.584C85.3439 252.339 85.4559 252.056 85.6799 251.736C85.9146 251.405 86.2719 251.123 86.7519 250.888C87.2319 250.643 87.8186 250.52 88.5119 250.52C89.7066 250.52 90.5599 250.797 91.0719 251.352C91.5946 251.907 91.8559 252.6 91.8559 253.432V258.632C91.8559 258.739 91.8186 258.829 91.7439 258.904C91.6799 258.968 91.5946 259 91.4879 259H90.7839C90.6773 259 90.5919 258.968 90.5279 258.904C90.4639 258.829 90.4319 258.739 90.4319 258.632V257.928C90.1973 258.28 89.8559 258.573 89.4079 258.808C88.9599 259.043 88.3839 259.16 87.6799 259.16ZM87.9999 257.992C88.7039 257.992 89.2799 257.763 89.7279 257.304C90.1759 256.845 90.3999 256.179 90.3999 255.304V254.856L88.5279 255.128C87.7599 255.235 87.1786 255.416 86.7839 255.672C86.3893 255.928 86.1919 256.248 86.1919 256.632C86.1919 257.069 86.3679 257.405 86.7199 257.64C87.0826 257.875 87.5093 257.992 87.9999 257.992ZM94.7168 259C94.6101 259 94.5195 258.968 94.4448 258.904C94.3808 258.829 94.3488 258.739 94.3488 258.632V248.008C94.3488 247.891 94.3808 247.8 94.4448 247.736C94.5195 247.672 94.6101 247.64 94.7168 247.64H95.4208C95.5275 247.64 95.6128 247.677 95.6768 247.752C95.7515 247.816 95.7888 247.901 95.7888 248.008V258.632C95.7888 258.739 95.7515 258.829 95.6768 258.904C95.6128 258.968 95.5275 259 95.4208 259H94.7168ZM105.778 259.16C104.636 259.16 103.746 258.84 103.106 258.2C102.466 257.549 102.13 256.643 102.098 255.48L102.082 254.84L102.098 254.2C102.13 253.037 102.466 252.136 103.106 251.496C103.746 250.845 104.636 250.52 105.778 250.52C106.546 250.52 107.191 250.659 107.714 250.936C108.247 251.203 108.642 251.539 108.898 251.944C109.164 252.349 109.308 252.755 109.33 253.16C109.34 253.256 109.303 253.341 109.218 253.416C109.143 253.491 109.058 253.528 108.962 253.528H108.258C108.151 253.528 108.071 253.507 108.018 253.464C107.964 253.411 107.911 253.32 107.858 253.192C107.666 252.669 107.399 252.301 107.058 252.088C106.727 251.864 106.306 251.752 105.794 251.752C105.122 251.752 104.588 251.96 104.194 252.376C103.799 252.792 103.586 253.427 103.554 254.28L103.538 254.84L103.554 255.4C103.586 256.253 103.799 256.888 104.194 257.304C104.588 257.72 105.122 257.928 105.794 257.928C106.316 257.928 106.743 257.821 107.074 257.608C107.404 257.384 107.666 257.011 107.858 256.488C107.911 256.36 107.964 256.275 108.018 256.232C108.071 256.179 108.151 256.152 108.258 256.152H108.962C109.058 256.152 109.143 256.189 109.218 256.264C109.303 256.339 109.34 256.424 109.33 256.52C109.308 256.915 109.164 257.315 108.898 257.72C108.642 258.125 108.247 258.467 107.714 258.744C107.191 259.021 106.546 259.16 105.778 259.16ZM114.511 259.16C113.497 259.16 112.713 258.835 112.159 258.184C111.604 257.523 111.327 256.648 111.327 255.56V251.048C111.327 250.941 111.359 250.856 111.423 250.792C111.497 250.717 111.588 250.68 111.695 250.68H112.431C112.537 250.68 112.623 250.717 112.687 250.792C112.761 250.856 112.799 250.941 112.799 251.048V255.48C112.799 257.101 113.503 257.912 114.911 257.912C115.593 257.912 116.132 257.699 116.527 257.272C116.932 256.835 117.135 256.237 117.135 255.48V251.048C117.135 250.941 117.167 250.856 117.231 250.792C117.305 250.717 117.396 250.68 117.503 250.68H118.239C118.345 250.68 118.431 250.717 118.495 250.792C118.569 250.856 118.607 250.941 118.607 251.048V258.632C118.607 258.739 118.569 258.829 118.495 258.904C118.431 258.968 118.345 259 118.239 259H117.551C117.444 259 117.353 258.968 117.279 258.904C117.215 258.829 117.183 258.739 117.183 258.632V257.912C116.873 258.328 116.511 258.643 116.095 258.856C115.679 259.059 115.151 259.16 114.511 259.16ZM121.528 259C121.422 259 121.331 258.968 121.256 258.904C121.192 258.829 121.16 258.739 121.16 258.632V251.064C121.16 250.957 121.192 250.867 121.256 250.792C121.331 250.717 121.422 250.68 121.528 250.68H122.2C122.318 250.68 122.408 250.717 122.472 250.792C122.547 250.856 122.584 250.947 122.584 251.064V251.768C123.022 251.043 123.763 250.68 124.808 250.68H125.432C125.55 250.68 125.64 250.712 125.704 250.776C125.768 250.84 125.8 250.931 125.8 251.048V251.64C125.8 251.747 125.768 251.837 125.704 251.912C125.64 251.976 125.55 252.008 125.432 252.008H124.52C123.934 252.008 123.47 252.179 123.128 252.52C122.798 252.861 122.632 253.325 122.632 253.912V258.632C122.632 258.739 122.595 258.829 122.52 258.904C122.446 258.968 122.355 259 122.248 259H121.528ZM127.704 259C127.597 259 127.507 258.968 127.432 258.904C127.368 258.829 127.336 258.739 127.336 258.632V251.064C127.336 250.957 127.368 250.867 127.432 250.792C127.507 250.717 127.597 250.68 127.704 250.68H128.376C128.493 250.68 128.584 250.717 128.648 250.792C128.723 250.856 128.76 250.947 128.76 251.064V251.768C129.197 251.043 129.939 250.68 130.984 250.68H131.608C131.725 250.68 131.816 250.712 131.88 250.776C131.944 250.84 131.976 250.931 131.976 251.048V251.64C131.976 251.747 131.944 251.837 131.88 251.912C131.816 251.976 131.725 252.008 131.608 252.008H130.696C130.109 252.008 129.645 252.179 129.304 252.52C128.973 252.861 128.808 253.325 128.808 253.912V258.632C128.808 258.739 128.771 258.829 128.696 258.904C128.621 258.968 128.531 259 128.424 259H127.704ZM136.651 259.16C135.563 259.16 134.694 258.824 134.043 258.152C133.393 257.469 133.035 256.541 132.971 255.368L132.955 254.824L132.971 254.296C133.035 253.144 133.393 252.227 134.043 251.544C134.694 250.861 135.563 250.52 136.651 250.52C137.825 250.52 138.731 250.893 139.371 251.64C140.022 252.387 140.347 253.4 140.347 254.68V254.968C140.347 255.075 140.31 255.165 140.235 255.24C140.171 255.304 140.086 255.336 139.979 255.336H134.427V255.48C134.459 256.173 134.673 256.765 135.067 257.256C135.462 257.747 135.985 257.992 136.635 257.992C137.137 257.992 137.542 257.896 137.851 257.704C138.171 257.501 138.411 257.293 138.571 257.08C138.667 256.952 138.742 256.877 138.795 256.856C138.849 256.824 138.939 256.808 139.067 256.808H139.771C139.867 256.808 139.947 256.835 140.011 256.888C140.086 256.941 140.123 257.011 140.123 257.096C140.123 257.331 139.979 257.613 139.691 257.944C139.403 258.275 138.993 258.563 138.459 258.808C137.937 259.043 137.334 259.16 136.651 259.16ZM138.891 254.248V254.2C138.891 253.453 138.689 252.845 138.283 252.376C137.878 251.907 137.334 251.672 136.651 251.672C135.958 251.672 135.414 251.907 135.019 252.376C134.625 252.845 134.427 253.453 134.427 254.2V254.248H138.891ZM142.821 259C142.714 259 142.623 258.968 142.549 258.904C142.485 258.829 142.453 258.739 142.453 258.632V251.048C142.453 250.941 142.485 250.856 142.549 250.792C142.623 250.717 142.714 250.68 142.821 250.68H143.509C143.626 250.68 143.717 250.712 143.781 250.776C143.845 250.84 143.877 250.931 143.877 251.048V251.752C144.197 251.357 144.565 251.053 144.981 250.84C145.407 250.627 145.935 250.52 146.565 250.52C147.589 250.52 148.383 250.851 148.949 251.512C149.514 252.163 149.797 253.027 149.797 254.104V258.632C149.797 258.739 149.759 258.829 149.685 258.904C149.621 258.968 149.535 259 149.429 259H148.693C148.586 259 148.495 258.968 148.421 258.904C148.357 258.829 148.325 258.739 148.325 258.632V254.2C148.325 253.432 148.138 252.835 147.765 252.408C147.391 251.981 146.858 251.768 146.165 251.768C145.482 251.768 144.938 251.987 144.533 252.424C144.127 252.851 143.925 253.443 143.925 254.2V258.632C143.925 258.739 143.887 258.829 143.813 258.904C143.749 258.968 143.663 259 143.557 259H142.821ZM155.597 259.16C154.456 259.16 153.565 258.84 152.925 258.2C152.285 257.549 151.949 256.643 151.917 255.48L151.901 254.84L151.917 254.2C151.949 253.037 152.285 252.136 152.925 251.496C153.565 250.845 154.456 250.52 155.597 250.52C156.365 250.52 157.01 250.659 157.533 250.936C158.066 251.203 158.461 251.539 158.717 251.944C158.984 252.349 159.128 252.755 159.149 253.16C159.16 253.256 159.122 253.341 159.037 253.416C158.962 253.491 158.877 253.528 158.781 253.528H158.077C157.97 253.528 157.89 253.507 157.837 253.464C157.784 253.411 157.73 253.32 157.677 253.192C157.485 252.669 157.218 252.301 156.877 252.088C156.546 251.864 156.125 251.752 155.613 251.752C154.941 251.752 154.408 251.96 154.013 252.376C153.618 252.792 153.405 253.427 153.373 254.28L153.357 254.84L153.373 255.4C153.405 256.253 153.618 256.888 154.013 257.304C154.408 257.72 154.941 257.928 155.613 257.928C156.136 257.928 156.562 257.821 156.893 257.608C157.224 257.384 157.485 257.011 157.677 256.488C157.73 256.36 157.784 256.275 157.837 256.232C157.89 256.179 157.97 256.152 158.077 256.152H158.781C158.877 256.152 158.962 256.189 159.037 256.264C159.122 256.339 159.16 256.424 159.149 256.52C159.128 256.915 158.984 257.315 158.717 257.72C158.461 258.125 158.066 258.467 157.533 258.744C157.01 259.021 156.365 259.16 155.597 259.16ZM162.448 262.04C162.352 262.04 162.272 262.008 162.208 261.944C162.144 261.88 162.112 261.805 162.112 261.72C162.112 261.688 162.138 261.592 162.192 261.432L163.44 258.504L160.384 251.288C160.32 251.16 160.288 251.069 160.288 251.016C160.298 250.92 160.336 250.84 160.4 250.776C160.464 250.712 160.538 250.68 160.624 250.68H161.36C161.53 250.68 161.658 250.765 161.744 250.936L164.208 256.824L166.736 250.936C166.821 250.765 166.949 250.68 167.12 250.68H167.84C167.925 250.68 168 250.712 168.064 250.776C168.128 250.84 168.16 250.915 168.16 251C168.16 251.075 168.133 251.171 168.08 251.288L163.552 261.784C163.498 261.869 163.44 261.933 163.376 261.976C163.322 262.019 163.248 262.04 163.152 262.04H162.448ZM173.833 249.112C173.726 249.112 173.635 249.08 173.561 249.016C173.497 248.941 173.465 248.851 173.465 248.744V247.912C173.465 247.805 173.497 247.715 173.561 247.64C173.635 247.565 173.726 247.528 173.833 247.528H174.777C174.883 247.528 174.974 247.565 175.049 247.64C175.123 247.715 175.161 247.805 175.161 247.912V248.744C175.161 248.851 175.123 248.941 175.049 249.016C174.974 249.08 174.883 249.112 174.777 249.112H173.833ZM173.961 259C173.854 259 173.763 258.968 173.689 258.904C173.625 258.829 173.593 258.739 173.593 258.632V251.048C173.593 250.941 173.625 250.856 173.689 250.792C173.763 250.717 173.854 250.68 173.961 250.68H174.665C174.771 250.68 174.857 250.717 174.921 250.792C174.995 250.856 175.033 250.941 175.033 251.048V258.632C175.033 258.739 174.995 258.829 174.921 258.904C174.857 258.968 174.771 259 174.665 259H173.961ZM177.965 259C177.858 259 177.767 258.968 177.693 258.904C177.629 258.829 177.597 258.739 177.597 258.632V251.048C177.597 250.941 177.629 250.856 177.693 250.792C177.767 250.717 177.858 250.68 177.965 250.68H178.653C178.77 250.68 178.861 250.712 178.925 250.776C178.989 250.84 179.021 250.931 179.021 251.048V251.752C179.341 251.357 179.709 251.053 180.125 250.84C180.551 250.627 181.079 250.52 181.709 250.52C182.733 250.52 183.527 250.851 184.093 251.512C184.658 252.163 184.941 253.027 184.941 254.104V258.632C184.941 258.739 184.903 258.829 184.829 258.904C184.765 258.968 184.679 259 184.573 259H183.837C183.73 259 183.639 258.968 183.565 258.904C183.501 258.829 183.469 258.739 183.469 258.632V254.2C183.469 253.432 183.282 252.835 182.909 252.408C182.535 251.981 182.002 251.768 181.309 251.768C180.626 251.768 180.082 251.987 179.677 252.424C179.271 252.851 179.069 253.443 179.069 254.2V258.632C179.069 258.739 179.031 258.829 178.957 258.904C178.893 258.968 178.807 259 178.701 259H177.965ZM193.343 259C193.194 259 193.082 258.968 193.007 258.904C192.933 258.84 192.874 258.739 192.831 258.6L190.559 251.176L190.527 251.016C190.527 250.92 190.559 250.84 190.623 250.776C190.687 250.712 190.767 250.68 190.863 250.68H191.519C191.626 250.68 191.711 250.712 191.775 250.776C191.85 250.829 191.893 250.883 191.903 250.936L193.711 257.048L195.631 251.016C195.653 250.931 195.701 250.856 195.775 250.792C195.85 250.717 195.951 250.68 196.079 250.68H196.591C196.719 250.68 196.821 250.717 196.895 250.792C196.97 250.856 197.018 250.931 197.039 251.016L198.959 257.048L200.767 250.936C200.778 250.883 200.815 250.829 200.879 250.776C200.954 250.712 201.045 250.68 201.151 250.68H201.807C201.903 250.68 201.983 250.712 202.047 250.776C202.111 250.84 202.143 250.92 202.143 251.016L202.111 251.176L199.839 258.6C199.797 258.739 199.738 258.84 199.663 258.904C199.589 258.968 199.477 259 199.327 259H198.751C198.474 259 198.293 258.867 198.207 258.6L196.335 252.808L194.463 258.6C194.378 258.867 194.197 259 193.919 259H193.343ZM204.476 259C204.37 259 204.279 258.968 204.204 258.904C204.14 258.829 204.108 258.739 204.108 258.632V248.008C204.108 247.891 204.14 247.8 204.204 247.736C204.279 247.672 204.37 247.64 204.476 247.64H205.212C205.33 247.64 205.42 247.672 205.484 247.736C205.548 247.8 205.58 247.891 205.58 248.008V251.736C205.89 251.341 206.252 251.043 206.668 250.84C207.095 250.627 207.618 250.52 208.236 250.52C209.26 250.52 210.055 250.851 210.62 251.512C211.196 252.163 211.484 253.027 211.484 254.104V258.632C211.484 258.739 211.447 258.829 211.372 258.904C211.308 258.968 211.223 259 211.116 259H210.364C210.258 259 210.167 258.968 210.092 258.904C210.028 258.829 209.996 258.739 209.996 258.632V254.2C209.996 253.432 209.81 252.835 209.436 252.408C209.063 251.981 208.524 251.768 207.82 251.768C207.138 251.768 206.594 251.987 206.188 252.424C205.783 252.851 205.58 253.443 205.58 254.2V258.632C205.58 258.739 205.543 258.829 205.468 258.904C205.404 258.968 205.319 259 205.212 259H204.476ZM214.211 249.112C214.104 249.112 214.014 249.08 213.939 249.016C213.875 248.941 213.843 248.851 213.843 248.744V247.912C213.843 247.805 213.875 247.715 213.939 247.64C214.014 247.565 214.104 247.528 214.211 247.528H215.155C215.262 247.528 215.352 247.565 215.427 247.64C215.502 247.715 215.539 247.805 215.539 247.912V248.744C215.539 248.851 215.502 248.941 215.427 249.016C215.352 249.08 215.262 249.112 215.155 249.112H214.211ZM214.339 259C214.232 259 214.142 258.968 214.067 258.904C214.003 258.829 213.971 258.739 213.971 258.632V251.048C213.971 250.941 214.003 250.856 214.067 250.792C214.142 250.717 214.232 250.68 214.339 250.68H215.043C215.15 250.68 215.235 250.717 215.299 250.792C215.374 250.856 215.411 250.941 215.411 251.048V258.632C215.411 258.739 215.374 258.829 215.299 258.904C215.235 258.968 215.15 259 215.043 259H214.339ZM221.303 259.16C220.161 259.16 219.271 258.84 218.631 258.2C217.991 257.549 217.655 256.643 217.623 255.48L217.607 254.84L217.623 254.2C217.655 253.037 217.991 252.136 218.631 251.496C219.271 250.845 220.161 250.52 221.303 250.52C222.071 250.52 222.716 250.659 223.239 250.936C223.772 251.203 224.167 251.539 224.423 251.944C224.689 252.349 224.833 252.755 224.855 253.16C224.865 253.256 224.828 253.341 224.743 253.416C224.668 253.491 224.583 253.528 224.487 253.528H223.783C223.676 253.528 223.596 253.507 223.543 253.464C223.489 253.411 223.436 253.32 223.383 253.192C223.191 252.669 222.924 252.301 222.583 252.088C222.252 251.864 221.831 251.752 221.319 251.752C220.647 251.752 220.113 251.96 219.719 252.376C219.324 252.792 219.111 253.427 219.079 254.28L219.063 254.84L219.079 255.4C219.111 256.253 219.324 256.888 219.719 257.304C220.113 257.72 220.647 257.928 221.319 257.928C221.841 257.928 222.268 257.821 222.599 257.608C222.929 257.384 223.191 257.011 223.383 256.488C223.436 256.36 223.489 256.275 223.543 256.232C223.596 256.179 223.676 256.152 223.783 256.152H224.487C224.583 256.152 224.668 256.189 224.743 256.264C224.828 256.339 224.865 256.424 224.855 256.52C224.833 256.915 224.689 257.315 224.423 257.72C224.167 258.125 223.772 258.467 223.239 258.744C222.716 259.021 222.071 259.16 221.303 259.16ZM227.316 259C227.209 259 227.118 258.968 227.044 258.904C226.98 258.829 226.948 258.739 226.948 258.632V248.008C226.948 247.891 226.98 247.8 227.044 247.736C227.118 247.672 227.209 247.64 227.316 247.64H228.052C228.169 247.64 228.26 247.672 228.324 247.736C228.388 247.8 228.42 247.891 228.42 248.008V251.736C228.729 251.341 229.092 251.043 229.508 250.84C229.934 250.627 230.457 250.52 231.076 250.52C232.1 250.52 232.894 250.851 233.46 251.512C234.036 252.163 234.324 253.027 234.324 254.104V258.632C234.324 258.739 234.286 258.829 234.212 258.904C234.148 258.968 234.062 259 233.956 259H233.204C233.097 259 233.006 258.968 232.932 258.904C232.868 258.829 232.836 258.739 232.836 258.632V254.2C232.836 253.432 232.649 252.835 232.276 252.408C231.902 251.981 231.364 251.768 230.66 251.768C229.977 251.768 229.433 251.987 229.028 252.424C228.622 252.851 228.42 253.443 228.42 254.2V258.632C228.42 258.739 228.382 258.829 228.308 258.904C228.244 258.968 228.158 259 228.052 259H227.316ZM243.212 259.16C242.689 259.16 242.204 259.053 241.756 258.84C241.318 258.627 240.966 258.339 240.7 257.976C240.444 257.603 240.316 257.192 240.316 256.744C240.316 256.04 240.604 255.464 241.18 255.016C241.756 254.568 242.54 254.269 243.532 254.12L245.932 253.784V253.32C245.932 252.221 245.297 251.672 244.028 251.672C243.537 251.672 243.142 251.773 242.844 251.976C242.545 252.168 242.326 252.397 242.188 252.664C242.145 252.771 242.097 252.845 242.044 252.888C242.001 252.92 241.937 252.936 241.852 252.936H241.228C241.132 252.936 241.046 252.904 240.972 252.84C240.908 252.765 240.876 252.68 240.876 252.584C240.876 252.339 240.988 252.056 241.212 251.736C241.446 251.405 241.804 251.123 242.284 250.888C242.764 250.643 243.35 250.52 244.044 250.52C245.238 250.52 246.092 250.797 246.604 251.352C247.126 251.907 247.388 252.6 247.388 253.432V258.632C247.388 258.739 247.35 258.829 247.276 258.904C247.212 258.968 247.126 259 247.02 259H246.316C246.209 259 246.124 258.968 246.06 258.904C245.996 258.829 245.964 258.739 245.964 258.632V257.928C245.729 258.28 245.388 258.573 244.94 258.808C244.492 259.043 243.916 259.16 243.212 259.16ZM243.532 257.992C244.236 257.992 244.812 257.763 245.26 257.304C245.708 256.845 245.932 256.179 245.932 255.304V254.856L244.06 255.128C243.292 255.235 242.71 255.416 242.316 255.672C241.921 255.928 241.724 256.248 241.724 256.632C241.724 257.069 241.9 257.405 242.252 257.64C242.614 257.875 243.041 257.992 243.532 257.992ZM254.33 259C254.224 259 254.133 258.968 254.058 258.904C253.994 258.829 253.962 258.739 253.962 258.632V251.064C253.962 250.957 253.994 250.867 254.058 250.792C254.133 250.717 254.224 250.68 254.33 250.68H255.002C255.12 250.68 255.21 250.717 255.274 250.792C255.349 250.856 255.386 250.947 255.386 251.064V251.768C255.824 251.043 256.565 250.68 257.61 250.68H258.234C258.352 250.68 258.442 250.712 258.506 250.776C258.57 250.84 258.602 250.931 258.602 251.048V251.64C258.602 251.747 258.57 251.837 258.506 251.912C258.442 251.976 258.352 252.008 258.234 252.008H257.322C256.736 252.008 256.272 252.179 255.93 252.52C255.6 252.861 255.434 253.325 255.434 253.912V258.632C255.434 258.739 255.397 258.829 255.322 258.904C255.248 258.968 255.157 259 255.05 259H254.33ZM263.278 259.16C262.19 259.16 261.32 258.824 260.67 258.152C260.019 257.469 259.662 256.541 259.598 255.368L259.582 254.824L259.598 254.296C259.662 253.144 260.019 252.227 260.67 251.544C261.32 250.861 262.19 250.52 263.278 250.52C264.451 250.52 265.358 250.893 265.998 251.64C266.648 252.387 266.974 253.4 266.974 254.68V254.968C266.974 255.075 266.936 255.165 266.862 255.24C266.798 255.304 266.712 255.336 266.606 255.336H261.054V255.48C261.086 256.173 261.299 256.765 261.694 257.256C262.088 257.747 262.611 257.992 263.262 257.992C263.763 257.992 264.168 257.896 264.478 257.704C264.798 257.501 265.038 257.293 265.198 257.08C265.294 256.952 265.368 256.877 265.422 256.856C265.475 256.824 265.566 256.808 265.694 256.808H266.398C266.494 256.808 266.574 256.835 266.638 256.888C266.712 256.941 266.75 257.011 266.75 257.096C266.75 257.331 266.606 257.613 266.318 257.944C266.03 258.275 265.619 258.563 265.086 258.808C264.563 259.043 263.96 259.16 263.278 259.16ZM265.518 254.248V254.2C265.518 253.453 265.315 252.845 264.91 252.376C264.504 251.907 263.96 251.672 263.278 251.672C262.584 251.672 262.04 251.907 261.646 252.376C261.251 252.845 261.054 253.453 261.054 254.2V254.248H265.518ZM272.407 259.16C271.266 259.16 270.375 258.84 269.735 258.2C269.095 257.549 268.759 256.643 268.727 255.48L268.711 254.84L268.727 254.2C268.759 253.037 269.095 252.136 269.735 251.496C270.375 250.845 271.266 250.52 272.407 250.52C273.175 250.52 273.82 250.659 274.343 250.936C274.876 251.203 275.271 251.539 275.527 251.944C275.794 252.349 275.938 252.755 275.959 253.16C275.97 253.256 275.932 253.341 275.847 253.416C275.772 253.491 275.687 253.528 275.591 253.528H274.887C274.78 253.528 274.7 253.507 274.647 253.464C274.594 253.411 274.54 253.32 274.487 253.192C274.295 252.669 274.028 252.301 273.687 252.088C273.356 251.864 272.935 251.752 272.423 251.752C271.751 251.752 271.218 251.96 270.823 252.376C270.428 252.792 270.215 253.427 270.183 254.28L270.167 254.84L270.183 255.4C270.215 256.253 270.428 256.888 270.823 257.304C271.218 257.72 271.751 257.928 272.423 257.928C272.946 257.928 273.372 257.821 273.703 257.608C274.034 257.384 274.295 257.011 274.487 256.488C274.54 256.36 274.594 256.275 274.647 256.232C274.7 256.179 274.78 256.152 274.887 256.152H275.591C275.687 256.152 275.772 256.189 275.847 256.264C275.932 256.339 275.97 256.424 275.959 256.52C275.938 256.915 275.794 257.315 275.527 257.72C275.271 258.125 274.876 258.467 274.343 258.744C273.82 259.021 273.175 259.16 272.407 259.16ZM281.412 259.16C280.239 259.16 279.332 258.829 278.692 258.168C278.063 257.507 277.727 256.627 277.684 255.528L277.668 254.84L277.684 254.152C277.727 253.053 278.068 252.173 278.708 251.512C279.359 250.851 280.26 250.52 281.412 250.52C282.564 250.52 283.46 250.851 284.1 251.512C284.751 252.173 285.097 253.053 285.14 254.152C285.161 254.387 285.172 254.616 285.172 254.84C285.172 255.064 285.161 255.293 285.14 255.528C285.097 256.627 284.756 257.507 284.116 258.168C283.487 258.829 282.585 259.16 281.412 259.16ZM281.412 257.96C282.095 257.96 282.633 257.747 283.028 257.32C283.433 256.883 283.652 256.259 283.684 255.448C283.695 255.341 283.7 255.139 283.7 254.84C283.7 254.541 283.695 254.339 283.684 254.232C283.652 253.421 283.433 252.803 283.028 252.376C282.633 251.939 282.095 251.72 281.412 251.72C280.729 251.72 280.185 251.939 279.78 252.376C279.385 252.803 279.172 253.421 279.14 254.232L279.124 254.84L279.14 255.448C279.172 256.259 279.385 256.883 279.78 257.32C280.185 257.747 280.729 257.96 281.412 257.96ZM287.72 259C287.613 259 287.523 258.968 287.448 258.904C287.384 258.829 287.352 258.739 287.352 258.632V251.064C287.352 250.957 287.384 250.867 287.448 250.792C287.523 250.717 287.613 250.68 287.72 250.68H288.392C288.509 250.68 288.6 250.717 288.664 250.792C288.739 250.856 288.776 250.947 288.776 251.064V251.768C289.213 251.043 289.955 250.68 291 250.68H291.624C291.741 250.68 291.832 250.712 291.896 250.776C291.96 250.84 291.992 250.931 291.992 251.048V251.64C291.992 251.747 291.96 251.837 291.896 251.912C291.832 251.976 291.741 252.008 291.624 252.008H290.712C290.125 252.008 289.661 252.179 289.32 252.52C288.989 252.861 288.824 253.325 288.824 253.912V258.632C288.824 258.739 288.787 258.829 288.712 258.904C288.637 258.968 288.547 259 288.44 259H287.72ZM296.396 259.16C295.276 259.16 294.433 258.797 293.868 258.072C293.313 257.347 293.015 256.429 292.972 255.32L292.956 254.84L292.972 254.36C293.015 253.261 293.319 252.349 293.884 251.624C294.449 250.888 295.287 250.52 296.396 250.52C297.505 250.52 298.369 250.915 298.988 251.704V248.008C298.988 247.901 299.02 247.816 299.084 247.752C299.159 247.677 299.249 247.64 299.356 247.64H300.076C300.183 247.64 300.268 247.677 300.332 247.752C300.407 247.816 300.444 247.901 300.444 248.008V258.632C300.444 258.739 300.407 258.829 300.332 258.904C300.268 258.968 300.183 259 300.076 259H299.388C299.281 259 299.196 258.968 299.132 258.904C299.068 258.829 299.036 258.739 299.036 258.632V257.944C298.428 258.755 297.548 259.16 296.396 259.16ZM296.7 257.912C297.447 257.912 298.007 257.667 298.38 257.176C298.753 256.675 298.956 256.083 298.988 255.4C298.999 255.283 299.004 255.08 299.004 254.792C299.004 254.493 298.999 254.285 298.988 254.168C298.967 253.517 298.759 252.957 298.364 252.488C297.98 252.008 297.425 251.768 296.7 251.768C295.932 251.768 295.372 252.008 295.02 252.488C294.668 252.968 294.476 253.597 294.444 254.376L294.428 254.84C294.428 256.888 295.185 257.912 296.7 257.912ZM310.489 259.16C309.316 259.16 308.409 258.829 307.769 258.168C307.14 257.507 306.804 256.627 306.761 255.528L306.745 254.84L306.761 254.152C306.804 253.053 307.145 252.173 307.785 251.512C308.436 250.851 309.337 250.52 310.489 250.52C311.641 250.52 312.537 250.851 313.177 251.512C313.828 252.173 314.175 253.053 314.217 254.152C314.239 254.387 314.249 254.616 314.249 254.84C314.249 255.064 314.239 255.293 314.217 255.528C314.175 256.627 313.833 257.507 313.193 258.168C312.564 258.829 311.663 259.16 310.489 259.16ZM310.489 257.96C311.172 257.96 311.711 257.747 312.105 257.32C312.511 256.883 312.729 256.259 312.761 255.448C312.772 255.341 312.777 255.139 312.777 254.84C312.777 254.541 312.772 254.339 312.761 254.232C312.729 253.421 312.511 252.803 312.105 252.376C311.711 251.939 311.172 251.72 310.489 251.72C309.807 251.72 309.263 251.939 308.857 252.376C308.463 252.803 308.249 253.421 308.217 254.232L308.201 254.84L308.217 255.448C308.249 256.259 308.463 256.883 308.857 257.32C309.263 257.747 309.807 257.96 310.489 257.96ZM317.536 259C317.429 259 317.339 258.968 317.264 258.904C317.2 258.829 317.168 258.739 317.168 258.632V251.912H315.792C315.685 251.912 315.595 251.88 315.52 251.816C315.456 251.752 315.424 251.667 315.424 251.56V251.048C315.424 250.941 315.456 250.856 315.52 250.792C315.595 250.717 315.685 250.68 315.792 250.68H317.168V249.88C317.168 249.016 317.376 248.349 317.792 247.88C318.219 247.4 318.912 247.16 319.872 247.16H320.816C320.923 247.16 321.008 247.197 321.072 247.272C321.147 247.336 321.184 247.421 321.184 247.528V248.04C321.184 248.147 321.147 248.232 321.072 248.296C321.008 248.36 320.923 248.392 320.816 248.392H319.904C319.413 248.392 319.072 248.52 318.88 248.776C318.688 249.032 318.592 249.427 318.592 249.96V250.68H320.656C320.763 250.68 320.848 250.717 320.912 250.792C320.987 250.856 321.024 250.941 321.024 251.048V251.56C321.024 251.667 320.987 251.752 320.912 251.816C320.848 251.88 320.763 251.912 320.656 251.912H318.592V258.632C318.592 258.739 318.555 258.829 318.48 258.904C318.416 258.968 318.331 259 318.224 259H317.536ZM87.1091 287C85.4557 287 84.6291 286.067 84.6291 284.2V279.912H83.3651C83.2584 279.912 83.1731 279.88 83.1091 279.816C83.0451 279.752 83.0131 279.667 83.0131 279.56V279.048C83.0131 278.941 83.0451 278.856 83.1091 278.792C83.1731 278.717 83.2584 278.68 83.3651 278.68H84.6291V276.008C84.6291 275.901 84.6611 275.816 84.7251 275.752C84.7891 275.677 84.8744 275.64 84.9811 275.64H85.6851C85.7917 275.64 85.8771 275.677 85.9411 275.752C86.0157 275.816 86.0531 275.901 86.0531 276.008V278.68H88.0371C88.1437 278.68 88.2291 278.717 88.2931 278.792C88.3677 278.856 88.4051 278.941 88.4051 279.048V279.56C88.4051 279.667 88.3677 279.752 88.2931 279.816C88.2291 279.88 88.1437 279.912 88.0371 279.912H86.0531V284.088C86.0531 284.632 86.1384 285.043 86.3091 285.32C86.4904 285.597 86.7944 285.736 87.2211 285.736H88.1971C88.3037 285.736 88.3891 285.773 88.4531 285.848C88.5171 285.912 88.5491 285.997 88.5491 286.104V286.632C88.5491 286.739 88.5171 286.829 88.4531 286.904C88.3891 286.968 88.3037 287 88.1971 287H87.1091ZM90.6402 287C90.5335 287 90.4429 286.968 90.3682 286.904C90.3042 286.829 90.2722 286.739 90.2722 286.632V279.064C90.2722 278.957 90.3042 278.867 90.3682 278.792C90.4429 278.717 90.5335 278.68 90.6402 278.68H91.3122C91.4295 278.68 91.5202 278.717 91.5842 278.792C91.6589 278.856 91.6962 278.947 91.6962 279.064V279.768C92.1335 279.043 92.8749 278.68 93.9202 278.68H94.5442C94.6615 278.68 94.7522 278.712 94.8162 278.776C94.8802 278.84 94.9122 278.931 94.9122 279.048V279.64C94.9122 279.747 94.8802 279.837 94.8162 279.912C94.7522 279.976 94.6615 280.008 94.5442 280.008H93.6322C93.0455 280.008 92.5815 280.179 92.2402 280.52C91.9095 280.861 91.7442 281.325 91.7442 281.912V286.632C91.7442 286.739 91.7069 286.829 91.6322 286.904C91.5575 286.968 91.4669 287 91.3602 287H90.6402ZM98.6268 287.16C98.1041 287.16 97.6188 287.053 97.1708 286.84C96.7335 286.627 96.3815 286.339 96.1148 285.976C95.8588 285.603 95.7308 285.192 95.7308 284.744C95.7308 284.04 96.0188 283.464 96.5948 283.016C97.1708 282.568 97.9548 282.269 98.9468 282.12L101.347 281.784V281.32C101.347 280.221 100.712 279.672 99.4428 279.672C98.9521 279.672 98.5575 279.773 98.2588 279.976C97.9601 280.168 97.7415 280.397 97.6028 280.664C97.5601 280.771 97.5121 280.845 97.4588 280.888C97.4161 280.92 97.3521 280.936 97.2668 280.936H96.6428C96.5468 280.936 96.4615 280.904 96.3868 280.84C96.3228 280.765 96.2908 280.68 96.2908 280.584C96.2908 280.339 96.4028 280.056 96.6268 279.736C96.8615 279.405 97.2188 279.123 97.6988 278.888C98.1788 278.643 98.7655 278.52 99.4588 278.52C100.653 278.52 101.507 278.797 102.019 279.352C102.541 279.907 102.803 280.6 102.803 281.432V286.632C102.803 286.739 102.765 286.829 102.691 286.904C102.627 286.968 102.541 287 102.435 287H101.731C101.624 287 101.539 286.968 101.475 286.904C101.411 286.829 101.379 286.739 101.379 286.632V285.928C101.144 286.28 100.803 286.573 100.355 286.808C99.9068 287.043 99.3308 287.16 98.6268 287.16ZM98.9468 285.992C99.6508 285.992 100.227 285.763 100.675 285.304C101.123 284.845 101.347 284.179 101.347 283.304V282.856L99.4748 283.128C98.7068 283.235 98.1255 283.416 97.7308 283.672C97.3361 283.928 97.1388 284.248 97.1388 284.632C97.1388 285.069 97.3148 285.405 97.6668 285.64C98.0295 285.875 98.4561 285.992 98.9468 285.992ZM105.648 287C105.541 287 105.45 286.968 105.376 286.904C105.312 286.829 105.28 286.739 105.28 286.632V279.048C105.28 278.941 105.312 278.856 105.376 278.792C105.45 278.717 105.541 278.68 105.648 278.68H106.336C106.453 278.68 106.544 278.712 106.608 278.776C106.672 278.84 106.704 278.931 106.704 279.048V279.752C107.024 279.357 107.392 279.053 107.808 278.84C108.234 278.627 108.762 278.52 109.392 278.52C110.416 278.52 111.21 278.851 111.776 279.512C112.341 280.163 112.624 281.027 112.624 282.104V286.632C112.624 286.739 112.586 286.829 112.512 286.904C112.448 286.968 112.362 287 112.256 287H111.52C111.413 287 111.322 286.968 111.248 286.904C111.184 286.829 111.152 286.739 111.152 286.632V282.2C111.152 281.432 110.965 280.835 110.592 280.408C110.218 279.981 109.685 279.768 108.992 279.768C108.309 279.768 107.765 279.987 107.36 280.424C106.954 280.851 106.752 281.443 106.752 282.2V286.632C106.752 286.739 106.714 286.829 106.64 286.904C106.576 286.968 106.49 287 106.384 287H105.648ZM117.944 287.16C117.208 287.16 116.584 287.043 116.072 286.808C115.571 286.563 115.197 286.285 114.952 285.976C114.707 285.667 114.584 285.411 114.584 285.208C114.584 285.101 114.621 285.021 114.696 284.968C114.771 284.904 114.851 284.872 114.936 284.872H115.608C115.672 284.872 115.72 284.883 115.752 284.904C115.795 284.925 115.848 284.973 115.912 285.048C116.157 285.347 116.429 285.581 116.728 285.752C117.037 285.923 117.448 286.008 117.96 286.008C118.536 286.008 118.995 285.901 119.336 285.688C119.688 285.475 119.864 285.165 119.864 284.76C119.864 284.493 119.789 284.28 119.64 284.12C119.491 283.96 119.24 283.816 118.888 283.688C118.547 283.56 118.035 283.421 117.352 283.272C116.424 283.069 115.768 282.776 115.384 282.392C115 282.008 114.808 281.512 114.808 280.904C114.808 280.509 114.925 280.131 115.16 279.768C115.395 279.395 115.741 279.096 116.2 278.872C116.669 278.637 117.224 278.52 117.864 278.52C118.536 278.52 119.107 278.632 119.576 278.856C120.056 279.08 120.413 279.341 120.648 279.64C120.893 279.939 121.016 280.189 121.016 280.392C121.016 280.488 120.979 280.568 120.904 280.632C120.84 280.696 120.76 280.728 120.664 280.728H120.056C119.907 280.728 119.8 280.669 119.736 280.552C119.555 280.349 119.4 280.195 119.272 280.088C119.155 279.971 118.979 279.875 118.744 279.8C118.509 279.715 118.216 279.672 117.864 279.672C117.341 279.672 116.941 279.784 116.664 280.008C116.387 280.221 116.248 280.509 116.248 280.872C116.248 281.096 116.307 281.288 116.424 281.448C116.541 281.597 116.765 281.741 117.096 281.88C117.427 282.008 117.917 282.141 118.568 282.28C119.581 282.493 120.296 282.797 120.712 283.192C121.139 283.587 121.352 284.093 121.352 284.712C121.352 285.171 121.219 285.587 120.952 285.96C120.696 286.333 120.307 286.627 119.784 286.84C119.272 287.053 118.659 287.16 117.944 287.16ZM125.685 287.16C125.162 287.16 124.677 287.053 124.229 286.84C123.792 286.627 123.44 286.339 123.173 285.976C122.917 285.603 122.789 285.192 122.789 284.744C122.789 284.04 123.077 283.464 123.653 283.016C124.229 282.568 125.013 282.269 126.005 282.12L128.405 281.784V281.32C128.405 280.221 127.77 279.672 126.501 279.672C126.01 279.672 125.616 279.773 125.317 279.976C125.018 280.168 124.8 280.397 124.661 280.664C124.618 280.771 124.57 280.845 124.517 280.888C124.474 280.92 124.41 280.936 124.325 280.936H123.701C123.605 280.936 123.52 280.904 123.445 280.84C123.381 280.765 123.349 280.68 123.349 280.584C123.349 280.339 123.461 280.056 123.685 279.736C123.92 279.405 124.277 279.123 124.757 278.888C125.237 278.643 125.824 278.52 126.517 278.52C127.712 278.52 128.565 278.797 129.077 279.352C129.6 279.907 129.861 280.6 129.861 281.432V286.632C129.861 286.739 129.824 286.829 129.749 286.904C129.685 286.968 129.6 287 129.493 287H128.789C128.682 287 128.597 286.968 128.533 286.904C128.469 286.829 128.437 286.739 128.437 286.632V285.928C128.202 286.28 127.861 286.573 127.413 286.808C126.965 287.043 126.389 287.16 125.685 287.16ZM126.005 285.992C126.709 285.992 127.285 285.763 127.733 285.304C128.181 284.845 128.405 284.179 128.405 283.304V282.856L126.533 283.128C125.765 283.235 125.184 283.416 124.789 283.672C124.394 283.928 124.197 284.248 124.197 284.632C124.197 285.069 124.373 285.405 124.725 285.64C125.088 285.875 125.514 285.992 126.005 285.992ZM135.666 287.16C134.524 287.16 133.634 286.84 132.994 286.2C132.354 285.549 132.018 284.643 131.986 283.48L131.97 282.84L131.986 282.2C132.018 281.037 132.354 280.136 132.994 279.496C133.634 278.845 134.524 278.52 135.666 278.52C136.434 278.52 137.079 278.659 137.602 278.936C138.135 279.203 138.53 279.539 138.786 279.944C139.052 280.349 139.196 280.755 139.218 281.16C139.228 281.256 139.191 281.341 139.106 281.416C139.031 281.491 138.946 281.528 138.85 281.528H138.146C138.039 281.528 137.959 281.507 137.906 281.464C137.852 281.411 137.799 281.32 137.746 281.192C137.554 280.669 137.287 280.301 136.946 280.088C136.615 279.864 136.194 279.752 135.682 279.752C135.01 279.752 134.476 279.96 134.082 280.376C133.687 280.792 133.474 281.427 133.442 282.28L133.426 282.84L133.442 283.4C133.474 284.253 133.687 284.888 134.082 285.304C134.476 285.72 135.01 285.928 135.682 285.928C136.204 285.928 136.631 285.821 136.962 285.608C137.292 285.384 137.554 285.011 137.746 284.488C137.799 284.36 137.852 284.275 137.906 284.232C137.959 284.179 138.039 284.152 138.146 284.152H138.85C138.946 284.152 139.031 284.189 139.106 284.264C139.191 284.339 139.228 284.424 139.218 284.52C139.196 284.915 139.052 285.315 138.786 285.72C138.53 286.125 138.135 286.467 137.602 286.744C137.079 287.021 136.434 287.16 135.666 287.16ZM144.495 287C142.841 287 142.015 286.067 142.015 284.2V279.912H140.751C140.644 279.912 140.559 279.88 140.495 279.816C140.431 279.752 140.399 279.667 140.399 279.56V279.048C140.399 278.941 140.431 278.856 140.495 278.792C140.559 278.717 140.644 278.68 140.751 278.68H142.015V276.008C142.015 275.901 142.047 275.816 142.111 275.752C142.175 275.677 142.26 275.64 142.367 275.64H143.071C143.177 275.64 143.263 275.677 143.327 275.752C143.401 275.816 143.439 275.901 143.439 276.008V278.68H145.423C145.529 278.68 145.615 278.717 145.679 278.792C145.753 278.856 145.791 278.941 145.791 279.048V279.56C145.791 279.667 145.753 279.752 145.679 279.816C145.615 279.88 145.529 279.912 145.423 279.912H143.439V284.088C143.439 284.632 143.524 285.043 143.695 285.32C143.876 285.597 144.18 285.736 144.607 285.736H145.583C145.689 285.736 145.775 285.773 145.839 285.848C145.903 285.912 145.935 285.997 145.935 286.104V286.632C145.935 286.739 145.903 286.829 145.839 286.904C145.775 286.968 145.689 287 145.583 287H144.495ZM147.898 277.112C147.791 277.112 147.7 277.08 147.626 277.016C147.562 276.941 147.53 276.851 147.53 276.744V275.912C147.53 275.805 147.562 275.715 147.626 275.64C147.7 275.565 147.791 275.528 147.898 275.528H148.842C148.948 275.528 149.039 275.565 149.114 275.64C149.188 275.715 149.226 275.805 149.226 275.912V276.744C149.226 276.851 149.188 276.941 149.114 277.016C149.039 277.08 148.948 277.112 148.842 277.112H147.898ZM148.026 287C147.919 287 147.828 286.968 147.754 286.904C147.69 286.829 147.658 286.739 147.658 286.632V279.048C147.658 278.941 147.69 278.856 147.754 278.792C147.828 278.717 147.919 278.68 148.026 278.68H148.73C148.836 278.68 148.922 278.717 148.986 278.792C149.06 278.856 149.098 278.941 149.098 279.048V286.632C149.098 286.739 149.06 286.829 148.986 286.904C148.922 286.968 148.836 287 148.73 287H148.026ZM155.038 287.16C153.864 287.16 152.958 286.829 152.318 286.168C151.688 285.507 151.352 284.627 151.31 283.528L151.294 282.84L151.31 282.152C151.352 281.053 151.694 280.173 152.334 279.512C152.984 278.851 153.886 278.52 155.038 278.52C156.19 278.52 157.086 278.851 157.726 279.512C158.376 280.173 158.723 281.053 158.766 282.152C158.787 282.387 158.798 282.616 158.798 282.84C158.798 283.064 158.787 283.293 158.766 283.528C158.723 284.627 158.382 285.507 157.742 286.168C157.112 286.829 156.211 287.16 155.038 287.16ZM155.038 285.96C155.72 285.96 156.259 285.747 156.654 285.32C157.059 284.883 157.278 284.259 157.31 283.448C157.32 283.341 157.326 283.139 157.326 282.84C157.326 282.541 157.32 282.339 157.31 282.232C157.278 281.421 157.059 280.803 156.654 280.376C156.259 279.939 155.72 279.72 155.038 279.72C154.355 279.72 153.811 279.939 153.406 280.376C153.011 280.803 152.798 281.421 152.766 282.232L152.75 282.84L152.766 283.448C152.798 284.259 153.011 284.883 153.406 285.32C153.811 285.747 154.355 285.96 155.038 285.96ZM161.346 287C161.239 287 161.148 286.968 161.074 286.904C161.01 286.829 160.978 286.739 160.978 286.632V279.048C160.978 278.941 161.01 278.856 161.074 278.792C161.148 278.717 161.239 278.68 161.346 278.68H162.034C162.151 278.68 162.242 278.712 162.306 278.776C162.37 278.84 162.402 278.931 162.402 279.048V279.752C162.722 279.357 163.09 279.053 163.506 278.84C163.932 278.627 164.46 278.52 165.09 278.52C166.114 278.52 166.908 278.851 167.474 279.512C168.039 280.163 168.322 281.027 168.322 282.104V286.632C168.322 286.739 168.284 286.829 168.21 286.904C168.146 286.968 168.06 287 167.954 287H167.218C167.111 287 167.02 286.968 166.946 286.904C166.882 286.829 166.85 286.739 166.85 286.632V282.2C166.85 281.432 166.663 280.835 166.29 280.408C165.916 279.981 165.383 279.768 164.69 279.768C164.007 279.768 163.463 279.987 163.058 280.424C162.652 280.851 162.45 281.443 162.45 282.2V286.632C162.45 286.739 162.412 286.829 162.338 286.904C162.274 286.968 162.188 287 162.082 287H161.346ZM173.642 287.16C172.906 287.16 172.282 287.043 171.77 286.808C171.269 286.563 170.895 286.285 170.65 285.976C170.405 285.667 170.282 285.411 170.282 285.208C170.282 285.101 170.319 285.021 170.394 284.968C170.469 284.904 170.549 284.872 170.634 284.872H171.306C171.37 284.872 171.418 284.883 171.45 284.904C171.493 284.925 171.546 284.973 171.61 285.048C171.855 285.347 172.127 285.581 172.426 285.752C172.735 285.923 173.146 286.008 173.658 286.008C174.234 286.008 174.693 285.901 175.034 285.688C175.386 285.475 175.562 285.165 175.562 284.76C175.562 284.493 175.487 284.28 175.338 284.12C175.189 283.96 174.938 283.816 174.586 283.688C174.245 283.56 173.733 283.421 173.05 283.272C172.122 283.069 171.466 282.776 171.082 282.392C170.698 282.008 170.506 281.512 170.506 280.904C170.506 280.509 170.623 280.131 170.858 279.768C171.093 279.395 171.439 279.096 171.898 278.872C172.367 278.637 172.922 278.52 173.562 278.52C174.234 278.52 174.805 278.632 175.274 278.856C175.754 279.08 176.111 279.341 176.346 279.64C176.591 279.939 176.714 280.189 176.714 280.392C176.714 280.488 176.677 280.568 176.602 280.632C176.538 280.696 176.458 280.728 176.362 280.728H175.754C175.605 280.728 175.498 280.669 175.434 280.552C175.253 280.349 175.098 280.195 174.97 280.088C174.853 279.971 174.677 279.875 174.442 279.8C174.207 279.715 173.914 279.672 173.562 279.672C173.039 279.672 172.639 279.784 172.362 280.008C172.085 280.221 171.946 280.509 171.946 280.872C171.946 281.096 172.005 281.288 172.122 281.448C172.239 281.597 172.463 281.741 172.794 281.88C173.125 282.008 173.615 282.141 174.266 282.28C175.279 282.493 175.994 282.797 176.41 283.192C176.837 283.587 177.05 284.093 177.05 284.712C177.05 285.171 176.917 285.587 176.65 285.96C176.394 286.333 176.005 286.627 175.482 286.84C174.97 287.053 174.357 287.16 173.642 287.16ZM183.417 277.112C183.31 277.112 183.219 277.08 183.145 277.016C183.081 276.941 183.049 276.851 183.049 276.744V275.912C183.049 275.805 183.081 275.715 183.145 275.64C183.219 275.565 183.31 275.528 183.417 275.528H184.361C184.467 275.528 184.558 275.565 184.633 275.64C184.707 275.715 184.745 275.805 184.745 275.912V276.744C184.745 276.851 184.707 276.941 184.633 277.016C184.558 277.08 184.467 277.112 184.361 277.112H183.417ZM183.545 287C183.438 287 183.347 286.968 183.273 286.904C183.209 286.829 183.177 286.739 183.177 286.632V279.048C183.177 278.941 183.209 278.856 183.273 278.792C183.347 278.717 183.438 278.68 183.545 278.68H184.249C184.355 278.68 184.441 278.717 184.505 278.792C184.579 278.856 184.617 278.941 184.617 279.048V286.632C184.617 286.739 184.579 286.829 184.505 286.904C184.441 286.968 184.355 287 184.249 287H183.545ZM190.028 287.16C189.292 287.16 188.668 287.043 188.156 286.808C187.655 286.563 187.282 286.285 187.036 285.976C186.791 285.667 186.668 285.411 186.668 285.208C186.668 285.101 186.706 285.021 186.78 284.968C186.855 284.904 186.935 284.872 187.02 284.872H187.692C187.756 284.872 187.804 284.883 187.836 284.904C187.879 284.925 187.932 284.973 187.996 285.048C188.242 285.347 188.514 285.581 188.812 285.752C189.122 285.923 189.532 286.008 190.044 286.008C190.62 286.008 191.079 285.901 191.42 285.688C191.772 285.475 191.948 285.165 191.948 284.76C191.948 284.493 191.874 284.28 191.724 284.12C191.575 283.96 191.324 283.816 190.972 283.688C190.631 283.56 190.119 283.421 189.436 283.272C188.508 283.069 187.852 282.776 187.468 282.392C187.084 282.008 186.892 281.512 186.892 280.904C186.892 280.509 187.01 280.131 187.244 279.768C187.479 279.395 187.826 279.096 188.284 278.872C188.754 278.637 189.308 278.52 189.948 278.52C190.62 278.52 191.191 278.632 191.66 278.856C192.14 279.08 192.498 279.341 192.732 279.64C192.978 279.939 193.1 280.189 193.1 280.392C193.1 280.488 193.063 280.568 192.988 280.632C192.924 280.696 192.844 280.728 192.748 280.728H192.14C191.991 280.728 191.884 280.669 191.82 280.552C191.639 280.349 191.484 280.195 191.356 280.088C191.239 279.971 191.063 279.875 190.828 279.8C190.594 279.715 190.3 279.672 189.948 279.672C189.426 279.672 189.026 279.784 188.748 280.008C188.471 280.221 188.332 280.509 188.332 280.872C188.332 281.096 188.391 281.288 188.508 281.448C188.626 281.597 188.85 281.741 189.18 281.88C189.511 282.008 190.002 282.141 190.652 282.28C191.666 282.493 192.38 282.797 192.796 283.192C193.223 283.587 193.436 284.093 193.436 284.712C193.436 285.171 193.303 285.587 193.036 285.96C192.78 286.333 192.391 286.627 191.868 286.84C191.356 287.053 190.743 287.16 190.028 287.16ZM199.931 287C199.824 287 199.733 286.968 199.659 286.904C199.595 286.829 199.563 286.739 199.563 286.632V279.048C199.563 278.941 199.595 278.856 199.659 278.792C199.733 278.717 199.824 278.68 199.931 278.68H200.603C200.709 278.68 200.795 278.717 200.859 278.792C200.923 278.856 200.955 278.941 200.955 279.048V279.592C201.531 278.877 202.309 278.52 203.291 278.52C204.464 278.52 205.296 279.011 205.787 279.992C206.043 279.544 206.405 279.187 206.875 278.92C207.355 278.653 207.888 278.52 208.475 278.52C209.349 278.52 210.064 278.819 210.619 279.416C211.173 280.013 211.451 280.877 211.451 282.008V286.632C211.451 286.739 211.413 286.829 211.339 286.904C211.275 286.968 211.189 287 211.083 287H210.395C210.288 287 210.197 286.968 210.123 286.904C210.059 286.829 210.027 286.739 210.027 286.632V282.152C210.027 281.299 209.851 280.691 209.499 280.328C209.147 279.955 208.683 279.768 208.107 279.768C207.595 279.768 207.152 279.96 206.779 280.344C206.416 280.717 206.235 281.32 206.235 282.152V286.632C206.235 286.739 206.197 286.829 206.123 286.904C206.059 286.968 205.973 287 205.867 287H205.163C205.056 287 204.965 286.968 204.891 286.904C204.827 286.829 204.795 286.739 204.795 286.632V282.152C204.795 281.309 204.608 280.701 204.235 280.328C203.872 279.955 203.419 279.768 202.875 279.768C202.363 279.768 201.92 279.955 201.547 280.328C201.184 280.701 201.003 281.304 201.003 282.136V286.632C201.003 286.739 200.965 286.829 200.891 286.904C200.827 286.968 200.741 287 200.635 287H199.931ZM216.23 287.16C215.707 287.16 215.222 287.053 214.774 286.84C214.337 286.627 213.985 286.339 213.718 285.976C213.462 285.603 213.334 285.192 213.334 284.744C213.334 284.04 213.622 283.464 214.198 283.016C214.774 282.568 215.558 282.269 216.55 282.12L218.95 281.784V281.32C218.95 280.221 218.315 279.672 217.046 279.672C216.555 279.672 216.161 279.773 215.862 279.976C215.563 280.168 215.345 280.397 215.206 280.664C215.163 280.771 215.115 280.845 215.062 280.888C215.019 280.92 214.955 280.936 214.87 280.936H214.246C214.15 280.936 214.065 280.904 213.99 280.84C213.926 280.765 213.894 280.68 213.894 280.584C213.894 280.339 214.006 280.056 214.23 279.736C214.465 279.405 214.822 279.123 215.302 278.888C215.782 278.643 216.369 278.52 217.062 278.52C218.257 278.52 219.11 278.797 219.622 279.352C220.145 279.907 220.406 280.6 220.406 281.432V286.632C220.406 286.739 220.369 286.829 220.294 286.904C220.23 286.968 220.145 287 220.038 287H219.334C219.227 287 219.142 286.968 219.078 286.904C219.014 286.829 218.982 286.739 218.982 286.632V285.928C218.747 286.28 218.406 286.573 217.958 286.808C217.51 287.043 216.934 287.16 216.23 287.16ZM216.55 285.992C217.254 285.992 217.83 285.763 218.278 285.304C218.726 284.845 218.95 284.179 218.95 283.304V282.856L217.078 283.128C216.31 283.235 215.729 283.416 215.334 283.672C214.939 283.928 214.742 284.248 214.742 284.632C214.742 285.069 214.918 285.405 215.27 285.64C215.633 285.875 216.059 285.992 216.55 285.992ZM223.123 277.112C223.016 277.112 222.925 277.08 222.851 277.016C222.787 276.941 222.755 276.851 222.755 276.744V275.912C222.755 275.805 222.787 275.715 222.851 275.64C222.925 275.565 223.016 275.528 223.123 275.528H224.067C224.173 275.528 224.264 275.565 224.339 275.64C224.413 275.715 224.451 275.805 224.451 275.912V276.744C224.451 276.851 224.413 276.941 224.339 277.016C224.264 277.08 224.173 277.112 224.067 277.112H223.123ZM223.251 287C223.144 287 223.053 286.968 222.979 286.904C222.915 286.829 222.883 286.739 222.883 286.632V279.048C222.883 278.941 222.915 278.856 222.979 278.792C223.053 278.717 223.144 278.68 223.251 278.68H223.955C224.061 278.68 224.147 278.717 224.211 278.792C224.285 278.856 224.323 278.941 224.323 279.048V286.632C224.323 286.739 224.285 286.829 224.211 286.904C224.147 286.968 224.061 287 223.955 287H223.251ZM227.255 287C227.148 287 227.057 286.968 226.983 286.904C226.919 286.829 226.887 286.739 226.887 286.632V279.048C226.887 278.941 226.919 278.856 226.983 278.792C227.057 278.717 227.148 278.68 227.255 278.68H227.943C228.06 278.68 228.151 278.712 228.215 278.776C228.279 278.84 228.311 278.931 228.311 279.048V279.752C228.631 279.357 228.999 279.053 229.415 278.84C229.841 278.627 230.369 278.52 230.999 278.52C232.023 278.52 232.817 278.851 233.383 279.512C233.948 280.163 234.231 281.027 234.231 282.104V286.632C234.231 286.739 234.193 286.829 234.119 286.904C234.055 286.968 233.969 287 233.863 287H233.127C233.02 287 232.929 286.968 232.855 286.904C232.791 286.829 232.759 286.739 232.759 286.632V282.2C232.759 281.432 232.572 280.835 232.199 280.408C231.825 279.981 231.292 279.768 230.599 279.768C229.916 279.768 229.372 279.987 228.967 280.424C228.561 280.851 228.359 281.443 228.359 282.2V286.632C228.359 286.739 228.321 286.829 228.247 286.904C228.183 286.968 228.097 287 227.991 287H227.255ZM239.793 287C238.14 287 237.313 286.067 237.313 284.2V279.912H236.049C235.943 279.912 235.857 279.88 235.793 279.816C235.729 279.752 235.697 279.667 235.697 279.56V279.048C235.697 278.941 235.729 278.856 235.793 278.792C235.857 278.717 235.943 278.68 236.049 278.68H237.313V276.008C237.313 275.901 237.345 275.816 237.409 275.752C237.473 275.677 237.559 275.64 237.665 275.64H238.369C238.476 275.64 238.561 275.677 238.625 275.752C238.7 275.816 238.737 275.901 238.737 276.008V278.68H240.721C240.828 278.68 240.913 278.717 240.977 278.792C241.052 278.856 241.089 278.941 241.089 279.048V279.56C241.089 279.667 241.052 279.752 240.977 279.816C240.913 279.88 240.828 279.912 240.721 279.912H238.737V284.088C238.737 284.632 238.823 285.043 238.993 285.32C239.175 285.597 239.479 285.736 239.905 285.736H240.881C240.988 285.736 241.073 285.773 241.137 285.848C241.201 285.912 241.233 285.997 241.233 286.104V286.632C241.233 286.739 241.201 286.829 241.137 286.904C241.073 286.968 240.988 287 240.881 287H239.793ZM245.261 287.16C244.738 287.16 244.253 287.053 243.805 286.84C243.367 286.627 243.015 286.339 242.749 285.976C242.493 285.603 242.365 285.192 242.365 284.744C242.365 284.04 242.653 283.464 243.229 283.016C243.805 282.568 244.589 282.269 245.581 282.12L247.981 281.784V281.32C247.981 280.221 247.346 279.672 246.077 279.672C245.586 279.672 245.191 279.773 244.893 279.976C244.594 280.168 244.375 280.397 244.237 280.664C244.194 280.771 244.146 280.845 244.093 280.888C244.05 280.92 243.986 280.936 243.901 280.936H243.277C243.181 280.936 243.095 280.904 243.021 280.84C242.957 280.765 242.925 280.68 242.925 280.584C242.925 280.339 243.037 280.056 243.261 279.736C243.495 279.405 243.853 279.123 244.333 278.888C244.813 278.643 245.399 278.52 246.093 278.52C247.287 278.52 248.141 278.797 248.653 279.352C249.175 279.907 249.437 280.6 249.437 281.432V286.632C249.437 286.739 249.399 286.829 249.325 286.904C249.261 286.968 249.175 287 249.069 287H248.365C248.258 287 248.173 286.968 248.109 286.904C248.045 286.829 248.013 286.739 248.013 286.632V285.928C247.778 286.28 247.437 286.573 246.989 286.808C246.541 287.043 245.965 287.16 245.261 287.16ZM245.581 285.992C246.285 285.992 246.861 285.763 247.309 285.304C247.757 284.845 247.981 284.179 247.981 283.304V282.856L246.109 283.128C245.341 283.235 244.759 283.416 244.365 283.672C243.97 283.928 243.773 284.248 243.773 284.632C243.773 285.069 243.949 285.405 244.301 285.64C244.663 285.875 245.09 285.992 245.581 285.992ZM252.153 277.112C252.047 277.112 251.956 277.08 251.881 277.016C251.817 276.941 251.785 276.851 251.785 276.744V275.912C251.785 275.805 251.817 275.715 251.881 275.64C251.956 275.565 252.047 275.528 252.153 275.528H253.097C253.204 275.528 253.295 275.565 253.369 275.64C253.444 275.715 253.481 275.805 253.481 275.912V276.744C253.481 276.851 253.444 276.941 253.369 277.016C253.295 277.08 253.204 277.112 253.097 277.112H252.153ZM252.281 287C252.175 287 252.084 286.968 252.009 286.904C251.945 286.829 251.913 286.739 251.913 286.632V279.048C251.913 278.941 251.945 278.856 252.009 278.792C252.084 278.717 252.175 278.68 252.281 278.68H252.985C253.092 278.68 253.177 278.717 253.241 278.792C253.316 278.856 253.353 278.941 253.353 279.048V286.632C253.353 286.739 253.316 286.829 253.241 286.904C253.177 286.968 253.092 287 252.985 287H252.281ZM256.285 287C256.179 287 256.088 286.968 256.013 286.904C255.949 286.829 255.917 286.739 255.917 286.632V279.048C255.917 278.941 255.949 278.856 256.013 278.792C256.088 278.717 256.179 278.68 256.285 278.68H256.973C257.091 278.68 257.181 278.712 257.245 278.776C257.309 278.84 257.341 278.931 257.341 279.048V279.752C257.661 279.357 258.029 279.053 258.445 278.84C258.872 278.627 259.4 278.52 260.029 278.52C261.053 278.52 261.848 278.851 262.413 279.512C262.979 280.163 263.261 281.027 263.261 282.104V286.632C263.261 286.739 263.224 286.829 263.149 286.904C263.085 286.968 263 287 262.893 287H262.157C262.051 287 261.96 286.968 261.885 286.904C261.821 286.829 261.789 286.739 261.789 286.632V282.2C261.789 281.432 261.603 280.835 261.229 280.408C260.856 279.981 260.323 279.768 259.629 279.768C258.947 279.768 258.403 279.987 257.997 280.424C257.592 280.851 257.389 281.443 257.389 282.2V286.632C257.389 286.739 257.352 286.829 257.277 286.904C257.213 286.968 257.128 287 257.021 287H256.285ZM269.029 287.16C267.941 287.16 267.072 286.824 266.421 286.152C265.771 285.469 265.413 284.541 265.349 283.368L265.333 282.824L265.349 282.296C265.413 281.144 265.771 280.227 266.421 279.544C267.072 278.861 267.941 278.52 269.029 278.52C270.203 278.52 271.109 278.893 271.749 279.64C272.4 280.387 272.725 281.4 272.725 282.68V282.968C272.725 283.075 272.688 283.165 272.613 283.24C272.549 283.304 272.464 283.336 272.357 283.336H266.805V283.48C266.837 284.173 267.051 284.765 267.445 285.256C267.84 285.747 268.363 285.992 269.013 285.992C269.515 285.992 269.92 285.896 270.229 285.704C270.549 285.501 270.789 285.293 270.949 285.08C271.045 284.952 271.12 284.877 271.173 284.856C271.227 284.824 271.317 284.808 271.445 284.808H272.149C272.245 284.808 272.325 284.835 272.389 284.888C272.464 284.941 272.501 285.011 272.501 285.096C272.501 285.331 272.357 285.613 272.069 285.944C271.781 286.275 271.371 286.563 270.837 286.808C270.315 287.043 269.712 287.16 269.029 287.16ZM271.269 282.248V282.2C271.269 281.453 271.067 280.845 270.661 280.376C270.256 279.907 269.712 279.672 269.029 279.672C268.336 279.672 267.792 279.907 267.397 280.376C267.003 280.845 266.805 281.453 266.805 282.2V282.248H271.269ZM277.871 287.16C276.751 287.16 275.908 286.797 275.343 286.072C274.788 285.347 274.49 284.429 274.447 283.32L274.431 282.84L274.447 282.36C274.49 281.261 274.794 280.349 275.359 279.624C275.924 278.888 276.762 278.52 277.871 278.52C278.98 278.52 279.844 278.915 280.463 279.704V276.008C280.463 275.901 280.495 275.816 280.559 275.752C280.634 275.677 280.724 275.64 280.831 275.64H281.551C281.658 275.64 281.743 275.677 281.807 275.752C281.882 275.816 281.919 275.901 281.919 276.008V286.632C281.919 286.739 281.882 286.829 281.807 286.904C281.743 286.968 281.658 287 281.551 287H280.863C280.756 287 280.671 286.968 280.607 286.904C280.543 286.829 280.511 286.739 280.511 286.632V285.944C279.903 286.755 279.023 287.16 277.871 287.16ZM278.175 285.912C278.922 285.912 279.482 285.667 279.855 285.176C280.228 284.675 280.431 284.083 280.463 283.4C280.474 283.283 280.479 283.08 280.479 282.792C280.479 282.493 280.474 282.285 280.463 282.168C280.442 281.517 280.234 280.957 279.839 280.488C279.455 280.008 278.9 279.768 278.175 279.768C277.407 279.768 276.847 280.008 276.495 280.488C276.143 280.968 275.951 281.597 275.919 282.376L275.903 282.84C275.903 284.888 276.66 285.912 278.175 285.912ZM284.747 287C284.64 287 284.55 286.968 284.475 286.904C284.411 286.829 284.379 286.739 284.379 286.632V285.528C284.379 285.421 284.411 285.331 284.475 285.256C284.55 285.181 284.64 285.144 284.747 285.144H285.851C285.958 285.144 286.043 285.181 286.107 285.256C286.182 285.331 286.219 285.421 286.219 285.528V286.632C286.219 286.739 286.182 286.829 286.107 286.904C286.043 286.968 285.958 287 285.851 287H284.747Z" fill="white"/>
<circle cx="185" cy="88" r="40" fill="#C4C4C4"/>
<g clip-path="url(#clip0)">
<path d="M223.804 97.6732C218.459 119.113 196.737 132.146 175.328 126.802C153.887 121.457 140.854 99.736 146.199 78.327C151.543 56.887 173.234 43.8538 194.674 49.1985C216.084 54.5116 229.148 76.2329 223.804 97.6732Z" fill="url(#paint0_linear)"/>
<path d="M204.045 83.0159C204.826 77.7034 200.795 74.8284 195.232 72.9222L197.045 65.7034L192.67 64.6097L190.92 71.6409C189.764 71.3597 188.576 71.0784 187.389 70.8284L189.139 63.7659L184.764 62.6722L182.982 69.8597C182.014 69.6409 181.076 69.4222 180.17 69.2034V69.1722L174.107 67.6722L172.951 72.3597C172.951 72.3597 176.201 73.1097 176.139 73.1409C177.92 73.5784 178.232 74.7659 178.17 75.7034L176.107 83.9222C176.232 83.9534 176.389 83.9847 176.576 84.0784C176.42 84.0472 176.264 84.0159 176.107 83.9534L173.232 95.4534C173.014 95.9847 172.451 96.7972 171.232 96.4847C171.264 96.5472 168.045 95.7034 168.045 95.7034L165.857 100.735L171.576 102.172C172.639 102.453 173.67 102.703 174.701 102.985L172.889 110.266L177.264 111.36L179.076 104.141C180.264 104.453 181.451 104.766 182.576 105.047L180.795 112.235L185.17 113.328L186.982 106.047C194.482 107.453 200.107 106.891 202.451 100.11C204.357 94.6722 202.357 91.5159 198.42 89.4534C201.326 88.7972 203.482 86.8909 204.045 83.0159ZM194.014 97.0784C192.67 102.516 183.482 99.5784 180.514 98.8284L182.92 89.1722C185.889 89.9222 195.451 91.3909 194.014 97.0784ZM195.389 82.9222C194.139 87.8909 186.514 85.3597 184.045 84.7347L186.232 75.9847C188.701 76.6097 196.67 77.7659 195.389 82.9222Z" fill="white"/>
</g>
<defs>
<filter id="filter0_b" x="-250" y="-250" width="870" height="933" filterUnits="userSpaceOnUse" color-interpolation-filters="sRGB">
<feFlood flood-opacity="0" result="BackgroundImageFix"/>
<feGaussianBlur in="BackgroundImage" stdDeviation="125"/>
<feComposite in2="SourceAlpha" operator="in" result="effect1_backgroundBlur"/>
<feBlend mode="normal" in="SourceGraphic" in2="effect1_backgroundBlur" result="shape"/>
</filter>
<linearGradient id="paint0_linear" x1="184.978" y1="47.9809" x2="184.978" y2="127.992" gradientUnits="userSpaceOnUse">
<stop stop-color="#F9AA4B"/>
<stop offset="1" stop-color="#F7931A"/>
</linearGradient>
<clipPath id="clip0">
<rect width="80" height="80" fill="white" transform="translate(145 48)"/>
</clipPath>
</defs>
</svg>
