<svg width="450" height="513" viewBox="0 0 450 513" fill="none" xmlns="http://www.w3.org/2000/svg">
<g style="mix-blend-mode:overlay" filter="url(#filter0_d)">
<rect x="40" width="370" height="433" rx="16" fill="white"/>
</g>
<circle cx="225" cy="353" r="31" stroke="#2B076E" stroke-opacity="0.2" stroke-width="2"/>
<path d="M222 363C221.737 363.002 221.476 362.951 221.232 362.852C220.988 362.752 220.767 362.606 220.58 362.42C220.392 362.234 220.244 362.013 220.142 361.769C220.041 361.526 219.988 361.264 219.988 361C219.988 360.736 220.041 360.475 220.142 360.231C220.244 359.987 220.392 359.766 220.58 359.58L227.2 353L220.84 346.38C220.467 346.005 220.258 345.499 220.258 344.97C220.258 344.442 220.467 343.935 220.84 343.56C221.026 343.373 221.247 343.224 221.491 343.122C221.735 343.021 221.996 342.969 222.26 342.969C222.524 342.969 222.785 343.021 223.029 343.122C223.273 343.224 223.494 343.373 223.68 343.56L231.4 351.56C231.766 351.934 231.972 352.437 231.972 352.96C231.972 353.484 231.766 353.986 231.4 354.36L223.4 362.36C223.22 362.554 223.004 362.71 222.764 362.82C222.524 362.93 222.264 362.991 222 363Z" fill="#3671E9"/>
<path d="M73.8978 259C73.7912 259 73.7058 258.968 73.6418 258.904C73.5778 258.829 73.5458 258.739 73.5458 258.632V248.184C73.5458 248.067 73.5778 247.976 73.6418 247.912C73.7058 247.837 73.7912 247.8 73.8978 247.8H78.2658C79.3965 247.8 80.2498 248.072 80.8258 248.616C81.4018 249.16 81.6898 249.869 81.6898 250.744C81.6898 251.341 81.5512 251.843 81.2738 252.248C80.9965 252.643 80.6712 252.931 80.2978 253.112C80.7565 253.336 81.1405 253.683 81.4498 254.152C81.7592 254.621 81.9138 255.16 81.9138 255.768C81.9138 256.365 81.7752 256.909 81.4978 257.4C81.2312 257.891 80.8312 258.28 80.2978 258.568C79.7645 258.856 79.1298 259 78.3938 259H73.8978ZM78.0258 252.552C78.7192 252.552 79.2472 252.397 79.6098 252.088C79.9725 251.768 80.1538 251.325 80.1538 250.76C80.1538 250.205 79.9725 249.784 79.6098 249.496C79.2578 249.208 78.7298 249.064 78.0258 249.064H75.0498V252.552H78.0258ZM78.1858 257.736C78.8685 257.736 79.4018 257.555 79.7858 257.192C80.1805 256.819 80.3778 256.344 80.3778 255.768C80.3778 255.181 80.1805 254.707 79.7858 254.344C79.4018 253.981 78.8685 253.8 78.1858 253.8H75.0498V257.736H78.1858ZM84.5537 259C84.447 259 84.3564 258.968 84.2817 258.904C84.2177 258.829 84.1857 258.739 84.1857 258.632V248.008C84.1857 247.891 84.2177 247.8 84.2817 247.736C84.3564 247.672 84.447 247.64 84.5537 247.64H85.2577C85.3644 247.64 85.4497 247.677 85.5137 247.752C85.5884 247.816 85.6257 247.901 85.6257 248.008V258.632C85.6257 258.739 85.5884 258.829 85.5137 258.904C85.4497 258.968 85.3644 259 85.2577 259H84.5537ZM91.5651 259.16C90.3917 259.16 89.4851 258.829 88.8451 258.168C88.2157 257.507 87.8797 256.627 87.8371 255.528L87.8211 254.84L87.8371 254.152C87.8797 253.053 88.2211 252.173 88.8611 251.512C89.5117 250.851 90.4131 250.52 91.5651 250.52C92.7171 250.52 93.6131 250.851 94.2531 251.512C94.9037 252.173 95.2504 253.053 95.2931 254.152C95.3144 254.387 95.3251 254.616 95.3251 254.84C95.3251 255.064 95.3144 255.293 95.2931 255.528C95.2504 256.627 94.9091 257.507 94.2691 258.168C93.6397 258.829 92.7384 259.16 91.5651 259.16ZM91.5651 257.96C92.2477 257.96 92.7864 257.747 93.1811 257.32C93.5864 256.883 93.8051 256.259 93.8371 255.448C93.8477 255.341 93.8531 255.139 93.8531 254.84C93.8531 254.541 93.8477 254.339 93.8371 254.232C93.8051 253.421 93.5864 252.803 93.1811 252.376C92.7864 251.939 92.2477 251.72 91.5651 251.72C90.8824 251.72 90.3384 251.939 89.9331 252.376C89.5384 252.803 89.3251 253.421 89.2931 254.232L89.2771 254.84L89.2931 255.448C89.3251 256.259 89.5384 256.883 89.9331 257.32C90.3384 257.747 90.8824 257.96 91.5651 257.96ZM100.833 259.16C99.692 259.16 98.8013 258.84 98.1613 258.2C97.5213 257.549 97.1853 256.643 97.1533 255.48L97.1373 254.84L97.1533 254.2C97.1853 253.037 97.5213 252.136 98.1613 251.496C98.8013 250.845 99.692 250.52 100.833 250.52C101.601 250.52 102.247 250.659 102.769 250.936C103.303 251.203 103.697 251.539 103.953 251.944C104.22 252.349 104.364 252.755 104.385 253.16C104.396 253.256 104.359 253.341 104.273 253.416C104.199 253.491 104.113 253.528 104.017 253.528H103.313C103.207 253.528 103.127 253.507 103.073 253.464C103.02 253.411 102.967 253.32 102.913 253.192C102.721 252.669 102.455 252.301 102.113 252.088C101.783 251.864 101.361 251.752 100.849 251.752C100.177 251.752 99.644 251.96 99.2493 252.376C98.8547 252.792 98.6413 253.427 98.6093 254.28L98.5933 254.84L98.6093 255.4C98.6413 256.253 98.8547 256.888 99.2493 257.304C99.644 257.72 100.177 257.928 100.849 257.928C101.372 257.928 101.799 257.821 102.129 257.608C102.46 257.384 102.721 257.011 102.913 256.488C102.967 256.36 103.02 256.275 103.073 256.232C103.127 256.179 103.207 256.152 103.313 256.152H104.017C104.113 256.152 104.199 256.189 104.273 256.264C104.359 256.339 104.396 256.424 104.385 256.52C104.364 256.915 104.22 257.315 103.953 257.72C103.697 258.125 103.303 258.467 102.769 258.744C102.247 259.021 101.601 259.16 100.833 259.16ZM106.846 259C106.74 259 106.649 258.968 106.574 258.904C106.51 258.829 106.478 258.739 106.478 258.632V248.008C106.478 247.891 106.51 247.8 106.574 247.736C106.649 247.672 106.74 247.64 106.846 247.64H107.534C107.641 247.64 107.726 247.677 107.79 247.752C107.865 247.816 107.902 247.901 107.902 248.008V253.592L111.102 250.952C111.262 250.835 111.374 250.76 111.438 250.728C111.502 250.696 111.604 250.68 111.742 250.68H112.542C112.638 250.68 112.713 250.712 112.766 250.776C112.83 250.829 112.862 250.909 112.862 251.016C112.862 251.112 112.804 251.213 112.686 251.32L108.942 254.392L113.086 258.36C113.204 258.477 113.262 258.579 113.262 258.664C113.262 258.76 113.23 258.84 113.166 258.904C113.113 258.968 113.038 259 112.942 259H112.158C111.998 259 111.881 258.984 111.806 258.952C111.742 258.92 111.646 258.845 111.518 258.728L107.902 255.304V258.632C107.902 258.739 107.865 258.829 107.79 258.904C107.726 258.968 107.641 259 107.534 259H106.846ZM117.763 259.16C116.621 259.16 115.731 258.84 115.091 258.2C114.451 257.549 114.115 256.643 114.083 255.48L114.067 254.84L114.083 254.2C114.115 253.037 114.451 252.136 115.091 251.496C115.731 250.845 116.621 250.52 117.763 250.52C118.531 250.52 119.176 250.659 119.699 250.936C120.232 251.203 120.627 251.539 120.883 251.944C121.149 252.349 121.293 252.755 121.315 253.16C121.325 253.256 121.288 253.341 121.203 253.416C121.128 253.491 121.043 253.528 120.947 253.528H120.243C120.136 253.528 120.056 253.507 120.003 253.464C119.949 253.411 119.896 253.32 119.843 253.192C119.651 252.669 119.384 252.301 119.043 252.088C118.712 251.864 118.291 251.752 117.779 251.752C117.107 251.752 116.573 251.96 116.179 252.376C115.784 252.792 115.571 253.427 115.539 254.28L115.523 254.84L115.539 255.4C115.571 256.253 115.784 256.888 116.179 257.304C116.573 257.72 117.107 257.928 117.779 257.928C118.301 257.928 118.728 257.821 119.059 257.608C119.389 257.384 119.651 257.011 119.843 256.488C119.896 256.36 119.949 256.275 120.003 256.232C120.056 256.179 120.136 256.152 120.243 256.152H120.947C121.043 256.152 121.128 256.189 121.203 256.264C121.288 256.339 121.325 256.424 121.315 256.52C121.293 256.915 121.149 257.315 120.883 257.72C120.627 258.125 120.232 258.467 119.699 258.744C119.176 259.021 118.531 259.16 117.763 259.16ZM123.776 259C123.669 259 123.578 258.968 123.504 258.904C123.44 258.829 123.408 258.739 123.408 258.632V248.008C123.408 247.891 123.44 247.8 123.504 247.736C123.578 247.672 123.669 247.64 123.776 247.64H124.512C124.629 247.64 124.72 247.672 124.784 247.736C124.848 247.8 124.88 247.891 124.88 248.008V251.736C125.189 251.341 125.552 251.043 125.968 250.84C126.394 250.627 126.917 250.52 127.536 250.52C128.56 250.52 129.354 250.851 129.92 251.512C130.496 252.163 130.784 253.027 130.784 254.104V258.632C130.784 258.739 130.746 258.829 130.672 258.904C130.608 258.968 130.522 259 130.416 259H129.664C129.557 259 129.466 258.968 129.392 258.904C129.328 258.829 129.296 258.739 129.296 258.632V254.2C129.296 253.432 129.109 252.835 128.736 252.408C128.362 251.981 127.824 251.768 127.12 251.768C126.437 251.768 125.893 251.987 125.488 252.424C125.082 252.851 124.88 253.443 124.88 254.2V258.632C124.88 258.739 124.842 258.829 124.768 258.904C124.704 258.968 124.618 259 124.512 259H123.776ZM135.574 259.16C135.052 259.16 134.566 259.053 134.118 258.84C133.681 258.627 133.329 258.339 133.062 257.976C132.806 257.603 132.678 257.192 132.678 256.744C132.678 256.04 132.966 255.464 133.542 255.016C134.118 254.568 134.902 254.269 135.894 254.12L138.294 253.784V253.32C138.294 252.221 137.66 251.672 136.39 251.672C135.9 251.672 135.505 251.773 135.206 251.976C134.908 252.168 134.689 252.397 134.55 252.664C134.508 252.771 134.46 252.845 134.406 252.888C134.364 252.92 134.3 252.936 134.214 252.936H133.59C133.494 252.936 133.409 252.904 133.334 252.84C133.27 252.765 133.238 252.68 133.238 252.584C133.238 252.339 133.35 252.056 133.574 251.736C133.809 251.405 134.166 251.123 134.646 250.888C135.126 250.643 135.713 250.52 136.406 250.52C137.601 250.52 138.454 250.797 138.966 251.352C139.489 251.907 139.75 252.6 139.75 253.432V258.632C139.75 258.739 139.713 258.829 139.638 258.904C139.574 258.968 139.489 259 139.382 259H138.678C138.572 259 138.486 258.968 138.422 258.904C138.358 258.829 138.326 258.739 138.326 258.632V257.928C138.092 258.28 137.75 258.573 137.302 258.808C136.854 259.043 136.278 259.16 135.574 259.16ZM135.894 257.992C136.598 257.992 137.174 257.763 137.622 257.304C138.07 256.845 138.294 256.179 138.294 255.304V254.856L136.422 255.128C135.654 255.235 135.073 255.416 134.678 255.672C134.284 255.928 134.086 256.248 134.086 256.632C134.086 257.069 134.262 257.405 134.614 257.64C134.977 257.875 135.404 257.992 135.894 257.992ZM142.467 249.112C142.361 249.112 142.27 249.08 142.195 249.016C142.131 248.941 142.099 248.851 142.099 248.744V247.912C142.099 247.805 142.131 247.715 142.195 247.64C142.27 247.565 142.361 247.528 142.467 247.528H143.411C143.518 247.528 143.609 247.565 143.683 247.64C143.758 247.715 143.795 247.805 143.795 247.912V248.744C143.795 248.851 143.758 248.941 143.683 249.016C143.609 249.08 143.518 249.112 143.411 249.112H142.467ZM142.595 259C142.489 259 142.398 258.968 142.323 258.904C142.259 258.829 142.227 258.739 142.227 258.632V251.048C142.227 250.941 142.259 250.856 142.323 250.792C142.398 250.717 142.489 250.68 142.595 250.68H143.299C143.406 250.68 143.491 250.717 143.555 250.792C143.63 250.856 143.667 250.941 143.667 251.048V258.632C143.667 258.739 143.63 258.829 143.555 258.904C143.491 258.968 143.406 259 143.299 259H142.595ZM146.599 259C146.492 259 146.402 258.968 146.327 258.904C146.263 258.829 146.231 258.739 146.231 258.632V251.048C146.231 250.941 146.263 250.856 146.327 250.792C146.402 250.717 146.492 250.68 146.599 250.68H147.287C147.404 250.68 147.495 250.712 147.559 250.776C147.623 250.84 147.655 250.931 147.655 251.048V251.752C147.975 251.357 148.343 251.053 148.759 250.84C149.186 250.627 149.714 250.52 150.343 250.52C151.367 250.52 152.162 250.851 152.727 251.512C153.292 252.163 153.575 253.027 153.575 254.104V258.632C153.575 258.739 153.538 258.829 153.463 258.904C153.399 258.968 153.314 259 153.207 259H152.471C152.364 259 152.274 258.968 152.199 258.904C152.135 258.829 152.103 258.739 152.103 258.632V254.2C152.103 253.432 151.916 252.835 151.543 252.408C151.17 251.981 150.636 251.768 149.943 251.768C149.26 251.768 148.716 251.987 148.311 252.424C147.906 252.851 147.703 253.443 147.703 254.2V258.632C147.703 258.739 147.666 258.829 147.591 258.904C147.527 258.968 147.442 259 147.335 259H146.599ZM163.001 259C161.348 259 160.521 258.067 160.521 256.2V251.912H159.257C159.15 251.912 159.065 251.88 159.001 251.816C158.937 251.752 158.905 251.667 158.905 251.56V251.048C158.905 250.941 158.937 250.856 159.001 250.792C159.065 250.717 159.15 250.68 159.257 250.68H160.521V248.008C160.521 247.901 160.553 247.816 160.617 247.752C160.681 247.677 160.766 247.64 160.873 247.64H161.577C161.684 247.64 161.769 247.677 161.833 247.752C161.908 247.816 161.945 247.901 161.945 248.008V250.68H163.929C164.036 250.68 164.121 250.717 164.185 250.792C164.26 250.856 164.297 250.941 164.297 251.048V251.56C164.297 251.667 164.26 251.752 164.185 251.816C164.121 251.88 164.036 251.912 163.929 251.912H161.945V256.088C161.945 256.632 162.03 257.043 162.201 257.32C162.382 257.597 162.686 257.736 163.113 257.736H164.089C164.196 257.736 164.281 257.773 164.345 257.848C164.409 257.912 164.441 257.997 164.441 258.104V258.632C164.441 258.739 164.409 258.829 164.345 258.904C164.281 258.968 164.196 259 164.089 259H163.001ZM169.46 259.16C168.372 259.16 167.503 258.824 166.852 258.152C166.201 257.469 165.844 256.541 165.78 255.368L165.764 254.824L165.78 254.296C165.844 253.144 166.201 252.227 166.852 251.544C167.503 250.861 168.372 250.52 169.46 250.52C170.633 250.52 171.54 250.893 172.18 251.64C172.831 252.387 173.156 253.4 173.156 254.68V254.968C173.156 255.075 173.119 255.165 173.044 255.24C172.98 255.304 172.895 255.336 172.788 255.336H167.236V255.48C167.268 256.173 167.481 256.765 167.876 257.256C168.271 257.747 168.793 257.992 169.444 257.992C169.945 257.992 170.351 257.896 170.66 257.704C170.98 257.501 171.22 257.293 171.38 257.08C171.476 256.952 171.551 256.877 171.604 256.856C171.657 256.824 171.748 256.808 171.876 256.808H172.58C172.676 256.808 172.756 256.835 172.82 256.888C172.895 256.941 172.932 257.011 172.932 257.096C172.932 257.331 172.788 257.613 172.5 257.944C172.212 258.275 171.801 258.563 171.268 258.808C170.745 259.043 170.143 259.16 169.46 259.16ZM171.7 254.248V254.2C171.7 253.453 171.497 252.845 171.092 252.376C170.687 251.907 170.143 251.672 169.46 251.672C168.767 251.672 168.223 251.907 167.828 252.376C167.433 252.845 167.236 253.453 167.236 254.2V254.248H171.7ZM178.59 259.16C177.448 259.16 176.558 258.84 175.918 258.2C175.278 257.549 174.942 256.643 174.91 255.48L174.894 254.84L174.91 254.2C174.942 253.037 175.278 252.136 175.918 251.496C176.558 250.845 177.448 250.52 178.59 250.52C179.358 250.52 180.003 250.659 180.526 250.936C181.059 251.203 181.454 251.539 181.71 251.944C181.976 252.349 182.12 252.755 182.142 253.16C182.152 253.256 182.115 253.341 182.03 253.416C181.955 253.491 181.87 253.528 181.774 253.528H181.07C180.963 253.528 180.883 253.507 180.83 253.464C180.776 253.411 180.723 253.32 180.67 253.192C180.478 252.669 180.211 252.301 179.87 252.088C179.539 251.864 179.118 251.752 178.606 251.752C177.934 251.752 177.4 251.96 177.006 252.376C176.611 252.792 176.398 253.427 176.366 254.28L176.35 254.84L176.366 255.4C176.398 256.253 176.611 256.888 177.006 257.304C177.4 257.72 177.934 257.928 178.606 257.928C179.128 257.928 179.555 257.821 179.886 257.608C180.216 257.384 180.478 257.011 180.67 256.488C180.723 256.36 180.776 256.275 180.83 256.232C180.883 256.179 180.963 256.152 181.07 256.152H181.774C181.87 256.152 181.955 256.189 182.03 256.264C182.115 256.339 182.152 256.424 182.142 256.52C182.12 256.915 181.976 257.315 181.71 257.72C181.454 258.125 181.059 258.467 180.526 258.744C180.003 259.021 179.358 259.16 178.59 259.16ZM184.602 259C184.496 259 184.405 258.968 184.33 258.904C184.266 258.829 184.234 258.739 184.234 258.632V248.008C184.234 247.891 184.266 247.8 184.33 247.736C184.405 247.672 184.496 247.64 184.602 247.64H185.338C185.456 247.64 185.546 247.672 185.61 247.736C185.674 247.8 185.706 247.891 185.706 248.008V251.736C186.016 251.341 186.378 251.043 186.794 250.84C187.221 250.627 187.744 250.52 188.362 250.52C189.386 250.52 190.181 250.851 190.746 251.512C191.322 252.163 191.61 253.027 191.61 254.104V258.632C191.61 258.739 191.573 258.829 191.498 258.904C191.434 258.968 191.349 259 191.242 259H190.49C190.384 259 190.293 258.968 190.218 258.904C190.154 258.829 190.122 258.739 190.122 258.632V254.2C190.122 253.432 189.936 252.835 189.562 252.408C189.189 251.981 188.65 251.768 187.946 251.768C187.264 251.768 186.72 251.987 186.314 252.424C185.909 252.851 185.706 253.443 185.706 254.2V258.632C185.706 258.739 185.669 258.829 185.594 258.904C185.53 258.968 185.445 259 185.338 259H184.602ZM194.465 259C194.359 259 194.268 258.968 194.193 258.904C194.129 258.829 194.097 258.739 194.097 258.632V251.048C194.097 250.941 194.129 250.856 194.193 250.792C194.268 250.717 194.359 250.68 194.465 250.68H195.153C195.271 250.68 195.361 250.712 195.425 250.776C195.489 250.84 195.521 250.931 195.521 251.048V251.752C195.841 251.357 196.209 251.053 196.625 250.84C197.052 250.627 197.58 250.52 198.209 250.52C199.233 250.52 200.028 250.851 200.593 251.512C201.159 252.163 201.441 253.027 201.441 254.104V258.632C201.441 258.739 201.404 258.829 201.329 258.904C201.265 258.968 201.18 259 201.073 259H200.337C200.231 259 200.14 258.968 200.065 258.904C200.001 258.829 199.969 258.739 199.969 258.632V254.2C199.969 253.432 199.783 252.835 199.409 252.408C199.036 251.981 198.503 251.768 197.809 251.768C197.127 251.768 196.583 251.987 196.177 252.424C195.772 252.851 195.569 253.443 195.569 254.2V258.632C195.569 258.739 195.532 258.829 195.457 258.904C195.393 258.968 195.308 259 195.201 259H194.465ZM207.289 259.16C206.116 259.16 205.209 258.829 204.569 258.168C203.94 257.507 203.604 256.627 203.561 255.528L203.545 254.84L203.561 254.152C203.604 253.053 203.945 252.173 204.585 251.512C205.236 250.851 206.137 250.52 207.289 250.52C208.441 250.52 209.337 250.851 209.977 251.512C210.628 252.173 210.975 253.053 211.017 254.152C211.039 254.387 211.049 254.616 211.049 254.84C211.049 255.064 211.039 255.293 211.017 255.528C210.975 256.627 210.633 257.507 209.993 258.168C209.364 258.829 208.463 259.16 207.289 259.16ZM207.289 257.96C207.972 257.96 208.511 257.747 208.905 257.32C209.311 256.883 209.529 256.259 209.561 255.448C209.572 255.341 209.577 255.139 209.577 254.84C209.577 254.541 209.572 254.339 209.561 254.232C209.529 253.421 209.311 252.803 208.905 252.376C208.511 251.939 207.972 251.72 207.289 251.72C206.607 251.72 206.063 251.939 205.657 252.376C205.263 252.803 205.049 253.421 205.017 254.232L205.001 254.84L205.017 255.448C205.049 256.259 205.263 256.883 205.657 257.32C206.063 257.747 206.607 257.96 207.289 257.96ZM213.614 259C213.507 259 213.416 258.968 213.342 258.904C213.278 258.829 213.246 258.739 213.246 258.632V248.008C213.246 247.891 213.278 247.8 213.342 247.736C213.416 247.672 213.507 247.64 213.614 247.64H214.318C214.424 247.64 214.51 247.677 214.574 247.752C214.648 247.816 214.686 247.901 214.686 248.008V258.632C214.686 258.739 214.648 258.829 214.574 258.904C214.51 258.968 214.424 259 214.318 259H213.614ZM220.625 259.16C219.452 259.16 218.545 258.829 217.905 258.168C217.276 257.507 216.94 256.627 216.897 255.528L216.881 254.84L216.897 254.152C216.94 253.053 217.281 252.173 217.921 251.512C218.572 250.851 219.473 250.52 220.625 250.52C221.777 250.52 222.673 250.851 223.313 251.512C223.964 252.173 224.31 253.053 224.353 254.152C224.374 254.387 224.385 254.616 224.385 254.84C224.385 255.064 224.374 255.293 224.353 255.528C224.31 256.627 223.969 257.507 223.329 258.168C222.7 258.829 221.798 259.16 220.625 259.16ZM220.625 257.96C221.308 257.96 221.846 257.747 222.241 257.32C222.646 256.883 222.865 256.259 222.897 255.448C222.908 255.341 222.913 255.139 222.913 254.84C222.913 254.541 222.908 254.339 222.897 254.232C222.865 253.421 222.646 252.803 222.241 252.376C221.846 251.939 221.308 251.72 220.625 251.72C219.942 251.72 219.398 251.939 218.993 252.376C218.598 252.803 218.385 253.421 218.353 254.232L218.337 254.84L218.353 255.448C218.385 256.259 218.598 256.883 218.993 257.32C219.398 257.747 219.942 257.96 220.625 257.96ZM229.941 262.52C229.056 262.52 228.347 262.371 227.813 262.072C227.28 261.773 226.901 261.432 226.677 261.048C226.464 260.664 226.357 260.333 226.357 260.056C226.357 259.96 226.395 259.875 226.469 259.8C226.544 259.736 226.629 259.704 226.725 259.704H227.429C227.525 259.704 227.605 259.725 227.669 259.768C227.733 259.821 227.787 259.912 227.829 260.04C228.128 260.893 228.805 261.32 229.861 261.32C230.661 261.32 231.253 261.149 231.637 260.808C232.021 260.467 232.213 259.864 232.213 259V257.896C231.595 258.685 230.731 259.08 229.621 259.08C228.491 259.08 227.643 258.717 227.077 257.992C226.523 257.267 226.229 256.349 226.197 255.24L226.181 254.792L226.197 254.36C226.229 253.261 226.523 252.349 227.077 251.624C227.643 250.888 228.491 250.52 229.621 250.52C230.741 250.52 231.616 250.931 232.245 251.752V251.064C232.245 250.957 232.277 250.867 232.341 250.792C232.416 250.717 232.507 250.68 232.613 250.68H233.301C233.408 250.68 233.493 250.717 233.557 250.792C233.632 250.867 233.669 250.957 233.669 251.064V258.824C233.669 261.288 232.427 262.52 229.941 262.52ZM229.909 257.832C230.656 257.832 231.216 257.592 231.589 257.112C231.973 256.621 232.181 256.035 232.213 255.352C232.224 255.256 232.229 255.069 232.229 254.792C232.229 254.525 232.224 254.344 232.213 254.248C232.181 253.565 231.973 252.984 231.589 252.504C231.216 252.013 230.656 251.768 229.909 251.768C229.141 251.768 228.581 252.013 228.229 252.504C227.888 252.984 227.701 253.608 227.669 254.376L227.653 254.792L227.669 255.224C227.701 255.992 227.888 256.621 228.229 257.112C228.581 257.592 229.141 257.832 229.909 257.832ZM237.697 262.04C237.601 262.04 237.521 262.008 237.457 261.944C237.393 261.88 237.361 261.805 237.361 261.72C237.361 261.688 237.388 261.592 237.441 261.432L238.689 258.504L235.633 251.288C235.569 251.16 235.537 251.069 235.537 251.016C235.548 250.92 235.585 250.84 235.649 250.776C235.713 250.712 235.788 250.68 235.873 250.68H236.609C236.78 250.68 236.908 250.765 236.993 250.936L239.457 256.824L241.985 250.936C242.07 250.765 242.198 250.68 242.369 250.68H243.089C243.174 250.68 243.249 250.712 243.313 250.776C243.377 250.84 243.409 250.915 243.409 251C243.409 251.075 243.382 251.171 243.329 251.288L238.801 261.784C238.748 261.869 238.689 261.933 238.625 261.976C238.572 262.019 238.497 262.04 238.401 262.04H237.697ZM251.698 259C250.045 259 249.218 258.067 249.218 256.2V251.912H247.954C247.848 251.912 247.762 251.88 247.698 251.816C247.634 251.752 247.602 251.667 247.602 251.56V251.048C247.602 250.941 247.634 250.856 247.698 250.792C247.762 250.717 247.848 250.68 247.954 250.68H249.218V248.008C249.218 247.901 249.25 247.816 249.314 247.752C249.378 247.677 249.464 247.64 249.57 247.64H250.274C250.381 247.64 250.466 247.677 250.53 247.752C250.605 247.816 250.642 247.901 250.642 248.008V250.68H252.626C252.733 250.68 252.818 250.717 252.882 250.792C252.957 250.856 252.994 250.941 252.994 251.048V251.56C252.994 251.667 252.957 251.752 252.882 251.816C252.818 251.88 252.733 251.912 252.626 251.912H250.642V256.088C250.642 256.632 250.728 257.043 250.898 257.32C251.08 257.597 251.384 257.736 251.81 257.736H252.786C252.893 257.736 252.978 257.773 253.042 257.848C253.106 257.912 253.138 257.997 253.138 258.104V258.632C253.138 258.739 253.106 258.829 253.042 258.904C252.978 258.968 252.893 259 252.786 259H251.698ZM258.238 259.16C257.064 259.16 256.158 258.829 255.518 258.168C254.888 257.507 254.552 256.627 254.51 255.528L254.494 254.84L254.51 254.152C254.552 253.053 254.894 252.173 255.534 251.512C256.184 250.851 257.086 250.52 258.238 250.52C259.39 250.52 260.286 250.851 260.926 251.512C261.576 252.173 261.923 253.053 261.966 254.152C261.987 254.387 261.998 254.616 261.998 254.84C261.998 255.064 261.987 255.293 261.966 255.528C261.923 256.627 261.582 257.507 260.942 258.168C260.312 258.829 259.411 259.16 258.238 259.16ZM258.238 257.96C258.92 257.96 259.459 257.747 259.854 257.32C260.259 256.883 260.478 256.259 260.51 255.448C260.52 255.341 260.526 255.139 260.526 254.84C260.526 254.541 260.52 254.339 260.51 254.232C260.478 253.421 260.259 252.803 259.854 252.376C259.459 251.939 258.92 251.72 258.238 251.72C257.555 251.72 257.011 251.939 256.606 252.376C256.211 252.803 255.998 253.421 255.966 254.232L255.95 254.84L255.966 255.448C255.998 256.259 256.211 256.883 256.606 257.32C257.011 257.747 257.555 257.96 258.238 257.96ZM271.603 259.16C270.462 259.16 269.571 258.84 268.931 258.2C268.291 257.549 267.955 256.643 267.923 255.48L267.907 254.84L267.923 254.2C267.955 253.037 268.291 252.136 268.931 251.496C269.571 250.845 270.462 250.52 271.603 250.52C272.371 250.52 273.017 250.659 273.539 250.936C274.073 251.203 274.467 251.539 274.723 251.944C274.99 252.349 275.134 252.755 275.155 253.16C275.166 253.256 275.129 253.341 275.043 253.416C274.969 253.491 274.883 253.528 274.787 253.528H274.083C273.977 253.528 273.897 253.507 273.843 253.464C273.79 253.411 273.737 253.32 273.683 253.192C273.491 252.669 273.225 252.301 272.883 252.088C272.553 251.864 272.131 251.752 271.619 251.752C270.947 251.752 270.414 251.96 270.019 252.376C269.625 252.792 269.411 253.427 269.379 254.28L269.363 254.84L269.379 255.4C269.411 256.253 269.625 256.888 270.019 257.304C270.414 257.72 270.947 257.928 271.619 257.928C272.142 257.928 272.569 257.821 272.899 257.608C273.23 257.384 273.491 257.011 273.683 256.488C273.737 256.36 273.79 256.275 273.843 256.232C273.897 256.179 273.977 256.152 274.083 256.152H274.787C274.883 256.152 274.969 256.189 275.043 256.264C275.129 256.339 275.166 256.424 275.155 256.52C275.134 256.915 274.99 257.315 274.723 257.72C274.467 258.125 274.073 258.467 273.539 258.744C273.017 259.021 272.371 259.16 271.603 259.16ZM277.6 259C277.494 259 277.403 258.968 277.328 258.904C277.264 258.829 277.232 258.739 277.232 258.632V251.064C277.232 250.957 277.264 250.867 277.328 250.792C277.403 250.717 277.494 250.68 277.6 250.68H278.272C278.39 250.68 278.48 250.717 278.544 250.792C278.619 250.856 278.656 250.947 278.656 251.064V251.768C279.094 251.043 279.835 250.68 280.88 250.68H281.504C281.622 250.68 281.712 250.712 281.776 250.776C281.84 250.84 281.872 250.931 281.872 251.048V251.64C281.872 251.747 281.84 251.837 281.776 251.912C281.712 251.976 281.622 252.008 281.504 252.008H280.592C280.006 252.008 279.542 252.179 279.2 252.52C278.87 252.861 278.704 253.325 278.704 253.912V258.632C278.704 258.739 278.667 258.829 278.592 258.904C278.518 258.968 278.427 259 278.32 259H277.6ZM286.548 259.16C285.46 259.16 284.59 258.824 283.94 258.152C283.289 257.469 282.932 256.541 282.868 255.368L282.852 254.824L282.868 254.296C282.932 253.144 283.289 252.227 283.94 251.544C284.59 250.861 285.46 250.52 286.548 250.52C287.721 250.52 288.628 250.893 289.268 251.64C289.918 252.387 290.244 253.4 290.244 254.68V254.968C290.244 255.075 290.206 255.165 290.132 255.24C290.068 255.304 289.982 255.336 289.876 255.336H284.324V255.48C284.356 256.173 284.569 256.765 284.964 257.256C285.358 257.747 285.881 257.992 286.532 257.992C287.033 257.992 287.438 257.896 287.748 257.704C288.068 257.501 288.308 257.293 288.468 257.08C288.564 256.952 288.638 256.877 288.692 256.856C288.745 256.824 288.836 256.808 288.964 256.808H289.668C289.764 256.808 289.844 256.835 289.908 256.888C289.982 256.941 290.02 257.011 290.02 257.096C290.02 257.331 289.876 257.613 289.588 257.944C289.3 258.275 288.889 258.563 288.356 258.808C287.833 259.043 287.23 259.16 286.548 259.16ZM288.788 254.248V254.2C288.788 253.453 288.585 252.845 288.18 252.376C287.774 251.907 287.23 251.672 286.548 251.672C285.854 251.672 285.31 251.907 284.916 252.376C284.521 252.845 284.324 253.453 284.324 254.2V254.248H288.788ZM294.653 259.16C294.13 259.16 293.645 259.053 293.197 258.84C292.76 258.627 292.408 258.339 292.141 257.976C291.885 257.603 291.757 257.192 291.757 256.744C291.757 256.04 292.045 255.464 292.621 255.016C293.197 254.568 293.981 254.269 294.973 254.12L297.373 253.784V253.32C297.373 252.221 296.738 251.672 295.469 251.672C294.978 251.672 294.584 251.773 294.285 251.976C293.986 252.168 293.768 252.397 293.629 252.664C293.586 252.771 293.538 252.845 293.485 252.888C293.442 252.92 293.378 252.936 293.293 252.936H292.669C292.573 252.936 292.488 252.904 292.413 252.84C292.349 252.765 292.317 252.68 292.317 252.584C292.317 252.339 292.429 252.056 292.653 251.736C292.888 251.405 293.245 251.123 293.725 250.888C294.205 250.643 294.792 250.52 295.485 250.52C296.68 250.52 297.533 250.797 298.045 251.352C298.568 251.907 298.829 252.6 298.829 253.432V258.632C298.829 258.739 298.792 258.829 298.717 258.904C298.653 258.968 298.568 259 298.461 259H297.757C297.65 259 297.565 258.968 297.501 258.904C297.437 258.829 297.405 258.739 297.405 258.632V257.928C297.17 258.28 296.829 258.573 296.381 258.808C295.933 259.043 295.357 259.16 294.653 259.16ZM294.973 257.992C295.677 257.992 296.253 257.763 296.701 257.304C297.149 256.845 297.373 256.179 297.373 255.304V254.856L295.501 255.128C294.733 255.235 294.152 255.416 293.757 255.672C293.362 255.928 293.165 256.248 293.165 256.632C293.165 257.069 293.341 257.405 293.693 257.64C294.056 257.875 294.482 257.992 294.973 257.992ZM304.428 259C302.774 259 301.948 258.067 301.948 256.2V251.912H300.684C300.577 251.912 300.492 251.88 300.428 251.816C300.364 251.752 300.332 251.667 300.332 251.56V251.048C300.332 250.941 300.364 250.856 300.428 250.792C300.492 250.717 300.577 250.68 300.684 250.68H301.948V248.008C301.948 247.901 301.98 247.816 302.044 247.752C302.108 247.677 302.193 247.64 302.3 247.64H303.004C303.11 247.64 303.196 247.677 303.26 247.752C303.334 247.816 303.372 247.901 303.372 248.008V250.68H305.356C305.462 250.68 305.548 250.717 305.612 250.792C305.686 250.856 305.724 250.941 305.724 251.048V251.56C305.724 251.667 305.686 251.752 305.612 251.816C305.548 251.88 305.462 251.912 305.356 251.912H303.372V256.088C303.372 256.632 303.457 257.043 303.628 257.32C303.809 257.597 304.113 257.736 304.54 257.736H305.516C305.622 257.736 305.708 257.773 305.772 257.848C305.836 257.912 305.868 257.997 305.868 258.104V258.632C305.868 258.739 305.836 258.829 305.772 258.904C305.708 258.968 305.622 259 305.516 259H304.428ZM310.887 259.16C309.799 259.16 308.93 258.824 308.279 258.152C307.628 257.469 307.271 256.541 307.207 255.368L307.191 254.824L307.207 254.296C307.271 253.144 307.628 252.227 308.279 251.544C308.93 250.861 309.799 250.52 310.887 250.52C312.06 250.52 312.967 250.893 313.607 251.64C314.258 252.387 314.583 253.4 314.583 254.68V254.968C314.583 255.075 314.546 255.165 314.471 255.24C314.407 255.304 314.322 255.336 314.215 255.336H308.663V255.48C308.695 256.173 308.908 256.765 309.303 257.256C309.698 257.747 310.22 257.992 310.871 257.992C311.372 257.992 311.778 257.896 312.087 257.704C312.407 257.501 312.647 257.293 312.807 257.08C312.903 256.952 312.978 256.877 313.031 256.856C313.084 256.824 313.175 256.808 313.303 256.808H314.007C314.103 256.808 314.183 256.835 314.247 256.888C314.322 256.941 314.359 257.011 314.359 257.096C314.359 257.331 314.215 257.613 313.927 257.944C313.639 258.275 313.228 258.563 312.695 258.808C312.172 259.043 311.57 259.16 310.887 259.16ZM313.127 254.248V254.2C313.127 253.453 312.924 252.845 312.519 252.376C312.114 251.907 311.57 251.672 310.887 251.672C310.194 251.672 309.65 251.907 309.255 252.376C308.86 252.845 308.663 253.453 308.663 254.2V254.248H313.127ZM323.09 259.16C322.567 259.16 322.082 259.053 321.634 258.84C321.197 258.627 320.845 258.339 320.578 257.976C320.322 257.603 320.194 257.192 320.194 256.744C320.194 256.04 320.482 255.464 321.058 255.016C321.634 254.568 322.418 254.269 323.41 254.12L325.81 253.784V253.32C325.81 252.221 325.175 251.672 323.906 251.672C323.415 251.672 323.021 251.773 322.722 251.976C322.423 252.168 322.205 252.397 322.066 252.664C322.023 252.771 321.975 252.845 321.922 252.888C321.879 252.92 321.815 252.936 321.73 252.936H321.106C321.01 252.936 320.925 252.904 320.85 252.84C320.786 252.765 320.754 252.68 320.754 252.584C320.754 252.339 320.866 252.056 321.09 251.736C321.325 251.405 321.682 251.123 322.162 250.888C322.642 250.643 323.229 250.52 323.922 250.52C325.117 250.52 325.97 250.797 326.482 251.352C327.005 251.907 327.266 252.6 327.266 253.432V258.632C327.266 258.739 327.229 258.829 327.154 258.904C327.09 258.968 327.005 259 326.898 259H326.194C326.087 259 326.002 258.968 325.938 258.904C325.874 258.829 325.842 258.739 325.842 258.632V257.928C325.607 258.28 325.266 258.573 324.818 258.808C324.37 259.043 323.794 259.16 323.09 259.16ZM323.41 257.992C324.114 257.992 324.69 257.763 325.138 257.304C325.586 256.845 325.81 256.179 325.81 255.304V254.856L323.938 255.128C323.17 255.235 322.589 255.416 322.194 255.672C321.799 255.928 321.602 256.248 321.602 256.632C321.602 257.069 321.778 257.405 322.13 257.64C322.493 257.875 322.919 257.992 323.41 257.992ZM330.111 259C330.004 259 329.913 258.968 329.839 258.904C329.775 258.829 329.743 258.739 329.743 258.632V251.048C329.743 250.941 329.775 250.856 329.839 250.792C329.913 250.717 330.004 250.68 330.111 250.68H330.799C330.916 250.68 331.007 250.712 331.071 250.776C331.135 250.84 331.167 250.931 331.167 251.048V251.752C331.487 251.357 331.855 251.053 332.271 250.84C332.697 250.627 333.225 250.52 333.855 250.52C334.879 250.52 335.673 250.851 336.239 251.512C336.804 252.163 337.087 253.027 337.087 254.104V258.632C337.087 258.739 337.049 258.829 336.975 258.904C336.911 258.968 336.825 259 336.719 259H335.983C335.876 259 335.785 258.968 335.711 258.904C335.647 258.829 335.615 258.739 335.615 258.632V254.2C335.615 253.432 335.428 252.835 335.055 252.408C334.681 251.981 334.148 251.768 333.455 251.768C332.772 251.768 332.228 251.987 331.823 252.424C331.417 252.851 331.215 253.443 331.215 254.2V258.632C331.215 258.739 331.177 258.829 331.103 258.904C331.039 258.968 330.953 259 330.847 259H330.111ZM342.599 259.16C341.479 259.16 340.636 258.797 340.071 258.072C339.516 257.347 339.218 256.429 339.175 255.32L339.159 254.84L339.175 254.36C339.218 253.261 339.522 252.349 340.087 251.624C340.652 250.888 341.49 250.52 342.599 250.52C343.708 250.52 344.572 250.915 345.191 251.704V248.008C345.191 247.901 345.223 247.816 345.287 247.752C345.362 247.677 345.452 247.64 345.559 247.64H346.279C346.386 247.64 346.471 247.677 346.535 247.752C346.61 247.816 346.647 247.901 346.647 248.008V258.632C346.647 258.739 346.61 258.829 346.535 258.904C346.471 258.968 346.386 259 346.279 259H345.591C345.484 259 345.399 258.968 345.335 258.904C345.271 258.829 345.239 258.739 345.239 258.632V257.944C344.631 258.755 343.751 259.16 342.599 259.16ZM342.903 257.912C343.65 257.912 344.21 257.667 344.583 257.176C344.956 256.675 345.159 256.083 345.191 255.4C345.202 255.283 345.207 255.08 345.207 254.792C345.207 254.493 345.202 254.285 345.191 254.168C345.17 253.517 344.962 252.957 344.567 252.488C344.183 252.008 343.628 251.768 342.903 251.768C342.135 251.768 341.575 252.008 341.223 252.488C340.871 252.968 340.679 253.597 340.647 254.376L340.631 254.84C340.631 256.888 341.388 257.912 342.903 257.912ZM353.685 259C353.578 259 353.487 258.968 353.413 258.904C353.349 258.829 353.317 258.739 353.317 258.632V251.064C353.317 250.957 353.349 250.867 353.413 250.792C353.487 250.717 353.578 250.68 353.685 250.68H354.357C354.474 250.68 354.565 250.717 354.629 250.792C354.703 250.856 354.741 250.947 354.741 251.064V251.768C355.178 251.043 355.919 250.68 356.965 250.68H357.589C357.706 250.68 357.797 250.712 357.861 250.776C357.925 250.84 357.957 250.931 357.957 251.048V251.64C357.957 251.747 357.925 251.837 357.861 251.912C357.797 251.976 357.706 252.008 357.589 252.008H356.677C356.09 252.008 355.626 252.179 355.285 252.52C354.954 252.861 354.789 253.325 354.789 253.912V258.632C354.789 258.739 354.751 258.829 354.677 258.904C354.602 258.968 354.511 259 354.405 259H353.685ZM362.596 259.16C361.583 259.16 360.799 258.835 360.244 258.184C359.69 257.523 359.412 256.648 359.412 255.56V251.048C359.412 250.941 359.444 250.856 359.508 250.792C359.583 250.717 359.674 250.68 359.78 250.68H360.516C360.623 250.68 360.708 250.717 360.772 250.792C360.847 250.856 360.884 250.941 360.884 251.048V255.48C360.884 257.101 361.588 257.912 362.996 257.912C363.679 257.912 364.218 257.699 364.612 257.272C365.018 256.835 365.22 256.237 365.22 255.48V251.048C365.22 250.941 365.252 250.856 365.316 250.792C365.391 250.717 365.482 250.68 365.588 250.68H366.324C366.431 250.68 366.516 250.717 366.58 250.792C366.655 250.856 366.692 250.941 366.692 251.048V258.632C366.692 258.739 366.655 258.829 366.58 258.904C366.516 258.968 366.431 259 366.324 259H365.636C365.53 259 365.439 258.968 365.364 258.904C365.3 258.829 365.268 258.739 365.268 258.632V257.912C364.959 258.328 364.596 258.643 364.18 258.856C363.764 259.059 363.236 259.16 362.596 259.16ZM369.614 259C369.507 259 369.417 258.968 369.342 258.904C369.278 258.829 369.246 258.739 369.246 258.632V251.048C369.246 250.941 369.278 250.856 369.342 250.792C369.417 250.717 369.507 250.68 369.614 250.68H370.302C370.419 250.68 370.51 250.712 370.574 250.776C370.638 250.84 370.67 250.931 370.67 251.048V251.752C370.99 251.357 371.358 251.053 371.774 250.84C372.201 250.627 372.729 250.52 373.358 250.52C374.382 250.52 375.177 250.851 375.742 251.512C376.307 252.163 376.59 253.027 376.59 254.104V258.632C376.59 258.739 376.553 258.829 376.478 258.904C376.414 258.968 376.329 259 376.222 259H375.486C375.379 259 375.289 258.968 375.214 258.904C375.15 258.829 375.118 258.739 375.118 258.632V254.2C375.118 253.432 374.931 252.835 374.558 252.408C374.185 251.981 373.651 251.768 372.958 251.768C372.275 251.768 371.731 251.987 371.326 252.424C370.921 252.851 370.718 253.443 370.718 254.2V258.632C370.718 258.739 370.681 258.829 370.606 258.904C370.542 258.968 370.457 259 370.35 259H369.614ZM102.418 287.16C101.298 287.16 100.456 286.797 99.8904 286.072C99.3358 285.347 99.0371 284.429 98.9944 283.32L98.9784 282.84L98.9944 282.36C99.0371 281.261 99.3411 280.349 99.9064 279.624C100.472 278.888 101.309 278.52 102.418 278.52C103.528 278.52 104.392 278.915 105.01 279.704V276.008C105.01 275.901 105.042 275.816 105.106 275.752C105.181 275.677 105.272 275.64 105.378 275.64H106.098C106.205 275.64 106.29 275.677 106.354 275.752C106.429 275.816 106.466 275.901 106.466 276.008V286.632C106.466 286.739 106.429 286.829 106.354 286.904C106.29 286.968 106.205 287 106.098 287H105.41C105.304 287 105.218 286.968 105.154 286.904C105.09 286.829 105.058 286.739 105.058 286.632V285.944C104.45 286.755 103.57 287.16 102.418 287.16ZM102.722 285.912C103.469 285.912 104.029 285.667 104.402 285.176C104.776 284.675 104.978 284.083 105.01 283.4C105.021 283.283 105.026 283.08 105.026 282.792C105.026 282.493 105.021 282.285 105.01 282.168C104.989 281.517 104.781 280.957 104.386 280.488C104.002 280.008 103.448 279.768 102.722 279.768C101.954 279.768 101.394 280.008 101.042 280.488C100.69 280.968 100.498 281.597 100.466 282.376L100.45 282.84C100.45 284.888 101.208 285.912 102.722 285.912ZM112.334 287.16C111.246 287.16 110.377 286.824 109.726 286.152C109.076 285.469 108.718 284.541 108.654 283.368L108.638 282.824L108.654 282.296C108.718 281.144 109.076 280.227 109.726 279.544C110.377 278.861 111.246 278.52 112.334 278.52C113.508 278.52 114.414 278.893 115.054 279.64C115.705 280.387 116.03 281.4 116.03 282.68V282.968C116.03 283.075 115.993 283.165 115.918 283.24C115.854 283.304 115.769 283.336 115.662 283.336H110.11V283.48C110.142 284.173 110.356 284.765 110.75 285.256C111.145 285.747 111.668 285.992 112.318 285.992C112.82 285.992 113.225 285.896 113.534 285.704C113.854 285.501 114.094 285.293 114.254 285.08C114.35 284.952 114.425 284.877 114.478 284.856C114.532 284.824 114.622 284.808 114.75 284.808H115.454C115.55 284.808 115.63 284.835 115.694 284.888C115.769 284.941 115.806 285.011 115.806 285.096C115.806 285.331 115.662 285.613 115.374 285.944C115.086 286.275 114.676 286.563 114.142 286.808C113.62 287.043 113.017 287.16 112.334 287.16ZM114.574 282.248V282.2C114.574 281.453 114.372 280.845 113.966 280.376C113.561 279.907 113.017 279.672 112.334 279.672C111.641 279.672 111.097 279.907 110.702 280.376C110.308 280.845 110.11 281.453 110.11 282.2V282.248H114.574ZM121.464 287.16C120.323 287.16 119.432 286.84 118.792 286.2C118.152 285.549 117.816 284.643 117.784 283.48L117.768 282.84L117.784 282.2C117.816 281.037 118.152 280.136 118.792 279.496C119.432 278.845 120.323 278.52 121.464 278.52C122.232 278.52 122.877 278.659 123.4 278.936C123.933 279.203 124.328 279.539 124.584 279.944C124.851 280.349 124.995 280.755 125.016 281.16C125.027 281.256 124.989 281.341 124.904 281.416C124.829 281.491 124.744 281.528 124.648 281.528H123.944C123.837 281.528 123.757 281.507 123.704 281.464C123.651 281.411 123.597 281.32 123.544 281.192C123.352 280.669 123.085 280.301 122.744 280.088C122.413 279.864 121.992 279.752 121.48 279.752C120.808 279.752 120.275 279.96 119.88 280.376C119.485 280.792 119.272 281.427 119.24 282.28L119.224 282.84L119.24 283.4C119.272 284.253 119.485 284.888 119.88 285.304C120.275 285.72 120.808 285.928 121.48 285.928C122.003 285.928 122.429 285.821 122.76 285.608C123.091 285.384 123.352 285.011 123.544 284.488C123.597 284.36 123.651 284.275 123.704 284.232C123.757 284.179 123.837 284.152 123.944 284.152H124.648C124.744 284.152 124.829 284.189 124.904 284.264C124.989 284.339 125.027 284.424 125.016 284.52C124.995 284.915 124.851 285.315 124.584 285.72C124.328 286.125 123.933 286.467 123.4 286.744C122.877 287.021 122.232 287.16 121.464 287.16ZM130.389 287.16C129.301 287.16 128.431 286.824 127.781 286.152C127.13 285.469 126.773 284.541 126.709 283.368L126.693 282.824L126.709 282.296C126.773 281.144 127.13 280.227 127.781 279.544C128.431 278.861 129.301 278.52 130.389 278.52C131.562 278.52 132.469 278.893 133.109 279.64C133.759 280.387 134.085 281.4 134.085 282.68V282.968C134.085 283.075 134.047 283.165 133.973 283.24C133.909 283.304 133.823 283.336 133.717 283.336H128.165V283.48C128.197 284.173 128.41 284.765 128.805 285.256C129.199 285.747 129.722 285.992 130.373 285.992C130.874 285.992 131.279 285.896 131.589 285.704C131.909 285.501 132.149 285.293 132.309 285.08C132.405 284.952 132.479 284.877 132.533 284.856C132.586 284.824 132.677 284.808 132.805 284.808H133.509C133.605 284.808 133.685 284.835 133.749 284.888C133.823 284.941 133.861 285.011 133.861 285.096C133.861 285.331 133.717 285.613 133.429 285.944C133.141 286.275 132.73 286.563 132.197 286.808C131.674 287.043 131.071 287.16 130.389 287.16ZM132.629 282.248V282.2C132.629 281.453 132.426 280.845 132.021 280.376C131.615 279.907 131.071 279.672 130.389 279.672C129.695 279.672 129.151 279.907 128.757 280.376C128.362 280.845 128.165 281.453 128.165 282.2V282.248H132.629ZM136.558 287C136.452 287 136.361 286.968 136.286 286.904C136.222 286.829 136.19 286.739 136.19 286.632V279.048C136.19 278.941 136.222 278.856 136.286 278.792C136.361 278.717 136.452 278.68 136.558 278.68H137.246C137.364 278.68 137.454 278.712 137.518 278.776C137.582 278.84 137.614 278.931 137.614 279.048V279.752C137.934 279.357 138.302 279.053 138.718 278.84C139.145 278.627 139.673 278.52 140.302 278.52C141.326 278.52 142.121 278.851 142.686 279.512C143.252 280.163 143.534 281.027 143.534 282.104V286.632C143.534 286.739 143.497 286.829 143.422 286.904C143.358 286.968 143.273 287 143.166 287H142.43C142.324 287 142.233 286.968 142.158 286.904C142.094 286.829 142.062 286.739 142.062 286.632V282.2C142.062 281.432 141.876 280.835 141.502 280.408C141.129 279.981 140.596 279.768 139.902 279.768C139.22 279.768 138.676 279.987 138.27 280.424C137.865 280.851 137.662 281.443 137.662 282.2V286.632C137.662 286.739 137.625 286.829 137.55 286.904C137.486 286.968 137.401 287 137.294 287H136.558ZM149.097 287C147.444 287 146.617 286.067 146.617 284.2V279.912H145.353C145.247 279.912 145.161 279.88 145.097 279.816C145.033 279.752 145.001 279.667 145.001 279.56V279.048C145.001 278.941 145.033 278.856 145.097 278.792C145.161 278.717 145.247 278.68 145.353 278.68H146.617V276.008C146.617 275.901 146.649 275.816 146.713 275.752C146.777 275.677 146.863 275.64 146.969 275.64H147.673C147.78 275.64 147.865 275.677 147.929 275.752C148.004 275.816 148.041 275.901 148.041 276.008V278.68H150.025C150.132 278.68 150.217 278.717 150.281 278.792C150.356 278.856 150.393 278.941 150.393 279.048V279.56C150.393 279.667 150.356 279.752 150.281 279.816C150.217 279.88 150.132 279.912 150.025 279.912H148.041V284.088C148.041 284.632 148.127 285.043 148.297 285.32C148.479 285.597 148.783 285.736 149.209 285.736H150.185C150.292 285.736 150.377 285.773 150.441 285.848C150.505 285.912 150.537 285.997 150.537 286.104V286.632C150.537 286.739 150.505 286.829 150.441 286.904C150.377 286.968 150.292 287 150.185 287H149.097ZM152.628 287C152.522 287 152.431 286.968 152.356 286.904C152.292 286.829 152.26 286.739 152.26 286.632V279.064C152.26 278.957 152.292 278.867 152.356 278.792C152.431 278.717 152.522 278.68 152.628 278.68H153.3C153.418 278.68 153.508 278.717 153.572 278.792C153.647 278.856 153.684 278.947 153.684 279.064V279.768C154.122 279.043 154.863 278.68 155.908 278.68H156.532C156.65 278.68 156.74 278.712 156.804 278.776C156.868 278.84 156.9 278.931 156.9 279.048V279.64C156.9 279.747 156.868 279.837 156.804 279.912C156.74 279.976 156.65 280.008 156.532 280.008H155.62C155.034 280.008 154.57 280.179 154.228 280.52C153.898 280.861 153.732 281.325 153.732 281.912V286.632C153.732 286.739 153.695 286.829 153.62 286.904C153.546 286.968 153.455 287 153.348 287H152.628ZM160.615 287.16C160.092 287.16 159.607 287.053 159.159 286.84C158.722 286.627 158.37 286.339 158.103 285.976C157.847 285.603 157.719 285.192 157.719 284.744C157.719 284.04 158.007 283.464 158.583 283.016C159.159 282.568 159.943 282.269 160.935 282.12L163.335 281.784V281.32C163.335 280.221 162.7 279.672 161.431 279.672C160.94 279.672 160.546 279.773 160.247 279.976C159.948 280.168 159.73 280.397 159.591 280.664C159.548 280.771 159.5 280.845 159.447 280.888C159.404 280.92 159.34 280.936 159.255 280.936H158.631C158.535 280.936 158.45 280.904 158.375 280.84C158.311 280.765 158.279 280.68 158.279 280.584C158.279 280.339 158.391 280.056 158.615 279.736C158.85 279.405 159.207 279.123 159.687 278.888C160.167 278.643 160.754 278.52 161.447 278.52C162.642 278.52 163.495 278.797 164.007 279.352C164.53 279.907 164.791 280.6 164.791 281.432V286.632C164.791 286.739 164.754 286.829 164.679 286.904C164.615 286.968 164.53 287 164.423 287H163.719C163.612 287 163.527 286.968 163.463 286.904C163.399 286.829 163.367 286.739 163.367 286.632V285.928C163.132 286.28 162.791 286.573 162.343 286.808C161.895 287.043 161.319 287.16 160.615 287.16ZM160.935 285.992C161.639 285.992 162.215 285.763 162.663 285.304C163.111 284.845 163.335 284.179 163.335 283.304V282.856L161.463 283.128C160.695 283.235 160.114 283.416 159.719 283.672C159.324 283.928 159.127 284.248 159.127 284.632C159.127 285.069 159.303 285.405 159.655 285.64C160.018 285.875 160.444 285.992 160.935 285.992ZM167.652 287C167.545 287 167.454 286.968 167.38 286.904C167.316 286.829 167.284 286.739 167.284 286.632V276.008C167.284 275.891 167.316 275.8 167.38 275.736C167.454 275.672 167.545 275.64 167.652 275.64H168.356C168.462 275.64 168.548 275.677 168.612 275.752C168.686 275.816 168.724 275.901 168.724 276.008V286.632C168.724 286.739 168.686 286.829 168.612 286.904C168.548 286.968 168.462 287 168.356 287H167.652ZM171.527 277.112C171.421 277.112 171.33 277.08 171.255 277.016C171.191 276.941 171.159 276.851 171.159 276.744V275.912C171.159 275.805 171.191 275.715 171.255 275.64C171.33 275.565 171.421 275.528 171.527 275.528H172.471C172.578 275.528 172.669 275.565 172.743 275.64C172.818 275.715 172.855 275.805 172.855 275.912V276.744C172.855 276.851 172.818 276.941 172.743 277.016C172.669 277.08 172.578 277.112 172.471 277.112H171.527ZM171.655 287C171.549 287 171.458 286.968 171.383 286.904C171.319 286.829 171.287 286.739 171.287 286.632V279.048C171.287 278.941 171.319 278.856 171.383 278.792C171.458 278.717 171.549 278.68 171.655 278.68H172.359C172.466 278.68 172.551 278.717 172.615 278.792C172.69 278.856 172.727 278.941 172.727 279.048V286.632C172.727 286.739 172.69 286.829 172.615 286.904C172.551 286.968 172.466 287 172.359 287H171.655ZM175.115 287C175.008 287 174.918 286.968 174.843 286.904C174.779 286.829 174.747 286.739 174.747 286.632V286.104C174.747 286.019 174.768 285.933 174.811 285.848C174.864 285.752 174.918 285.667 174.971 285.592L179.435 279.912H175.259C175.152 279.912 175.067 279.88 175.003 279.816C174.939 279.741 174.907 279.651 174.907 279.544V279.048C174.907 278.941 174.939 278.856 175.003 278.792C175.067 278.717 175.152 278.68 175.259 278.68H180.923C181.03 278.68 181.115 278.717 181.179 278.792C181.254 278.856 181.291 278.941 181.291 279.048V279.608C181.291 279.725 181.216 279.891 181.067 280.104L176.667 285.768H181.243C181.36 285.768 181.451 285.8 181.515 285.864C181.579 285.928 181.611 286.019 181.611 286.136V286.632C181.611 286.739 181.574 286.829 181.499 286.904C181.435 286.968 181.35 287 181.243 287H175.115ZM186.763 287.16C185.675 287.16 184.805 286.824 184.155 286.152C183.504 285.469 183.147 284.541 183.083 283.368L183.067 282.824L183.083 282.296C183.147 281.144 183.504 280.227 184.155 279.544C184.805 278.861 185.675 278.52 186.763 278.52C187.936 278.52 188.843 278.893 189.483 279.64C190.133 280.387 190.459 281.4 190.459 282.68V282.968C190.459 283.075 190.421 283.165 190.347 283.24C190.283 283.304 190.197 283.336 190.091 283.336H184.539V283.48C184.571 284.173 184.784 284.765 185.179 285.256C185.573 285.747 186.096 285.992 186.747 285.992C187.248 285.992 187.653 285.896 187.963 285.704C188.283 285.501 188.523 285.293 188.683 285.08C188.779 284.952 188.853 284.877 188.907 284.856C188.96 284.824 189.051 284.808 189.179 284.808H189.883C189.979 284.808 190.059 284.835 190.123 284.888C190.197 284.941 190.235 285.011 190.235 285.096C190.235 285.331 190.091 285.613 189.803 285.944C189.515 286.275 189.104 286.563 188.571 286.808C188.048 287.043 187.445 287.16 186.763 287.16ZM189.003 282.248V282.2C189.003 281.453 188.8 280.845 188.395 280.376C187.989 279.907 187.445 279.672 186.763 279.672C186.069 279.672 185.525 279.907 185.131 280.376C184.736 280.845 184.539 281.453 184.539 282.2V282.248H189.003ZM195.604 287.16C194.484 287.16 193.641 286.797 193.076 286.072C192.521 285.347 192.223 284.429 192.18 283.32L192.164 282.84L192.18 282.36C192.223 281.261 192.527 280.349 193.092 279.624C193.657 278.888 194.495 278.52 195.604 278.52C196.713 278.52 197.577 278.915 198.196 279.704V276.008C198.196 275.901 198.228 275.816 198.292 275.752C198.367 275.677 198.457 275.64 198.564 275.64H199.284C199.391 275.64 199.476 275.677 199.54 275.752C199.615 275.816 199.652 275.901 199.652 276.008V286.632C199.652 286.739 199.615 286.829 199.54 286.904C199.476 286.968 199.391 287 199.284 287H198.596C198.489 287 198.404 286.968 198.34 286.904C198.276 286.829 198.244 286.739 198.244 286.632V285.944C197.636 286.755 196.756 287.16 195.604 287.16ZM195.908 285.912C196.655 285.912 197.215 285.667 197.588 285.176C197.961 284.675 198.164 284.083 198.196 283.4C198.207 283.283 198.212 283.08 198.212 282.792C198.212 282.493 198.207 282.285 198.196 282.168C198.175 281.517 197.967 280.957 197.572 280.488C197.188 280.008 196.633 279.768 195.908 279.768C195.14 279.768 194.58 280.008 194.228 280.488C193.876 280.968 193.684 281.597 193.652 282.376L193.636 282.84C193.636 284.888 194.393 285.912 195.908 285.912ZM209.362 287.16C208.242 287.16 207.399 286.797 206.834 286.072C206.279 285.347 205.98 284.429 205.938 283.32L205.922 282.84L205.938 282.36C205.98 281.261 206.284 280.349 206.85 279.624C207.415 278.888 208.252 278.52 209.362 278.52C210.471 278.52 211.335 278.915 211.954 279.704V276.008C211.954 275.901 211.986 275.816 212.05 275.752C212.124 275.677 212.215 275.64 212.322 275.64H213.042C213.148 275.64 213.234 275.677 213.298 275.752C213.372 275.816 213.41 275.901 213.41 276.008V286.632C213.41 286.739 213.372 286.829 213.298 286.904C213.234 286.968 213.148 287 213.042 287H212.354C212.247 287 212.162 286.968 212.098 286.904C212.034 286.829 212.002 286.739 212.002 286.632V285.944C211.394 286.755 210.514 287.16 209.362 287.16ZM209.666 285.912C210.412 285.912 210.972 285.667 211.346 285.176C211.719 284.675 211.922 284.083 211.954 283.4C211.964 283.283 211.97 283.08 211.97 282.792C211.97 282.493 211.964 282.285 211.954 282.168C211.932 281.517 211.724 280.957 211.33 280.488C210.946 280.008 210.391 279.768 209.666 279.768C208.898 279.768 208.338 280.008 207.986 280.488C207.634 280.968 207.442 281.597 207.41 282.376L207.394 282.84C207.394 284.888 208.151 285.912 209.666 285.912ZM216.222 277.112C216.115 277.112 216.024 277.08 215.95 277.016C215.886 276.941 215.854 276.851 215.854 276.744V275.912C215.854 275.805 215.886 275.715 215.95 275.64C216.024 275.565 216.115 275.528 216.222 275.528H217.166C217.272 275.528 217.363 275.565 217.438 275.64C217.512 275.715 217.55 275.805 217.55 275.912V276.744C217.55 276.851 217.512 276.941 217.438 277.016C217.363 277.08 217.272 277.112 217.166 277.112H216.222ZM216.35 287C216.243 287 216.152 286.968 216.078 286.904C216.014 286.829 215.982 286.739 215.982 286.632V279.048C215.982 278.941 216.014 278.856 216.078 278.792C216.152 278.717 216.243 278.68 216.35 278.68H217.054C217.16 278.68 217.246 278.717 217.31 278.792C217.384 278.856 217.422 278.941 217.422 279.048V286.632C217.422 286.739 217.384 286.829 217.31 286.904C217.246 286.968 217.16 287 217.054 287H216.35ZM223.361 290.52C222.476 290.52 221.767 290.371 221.233 290.072C220.7 289.773 220.321 289.432 220.097 289.048C219.884 288.664 219.777 288.333 219.777 288.056C219.777 287.96 219.815 287.875 219.889 287.8C219.964 287.736 220.049 287.704 220.145 287.704H220.849C220.945 287.704 221.025 287.725 221.089 287.768C221.153 287.821 221.207 287.912 221.249 288.04C221.548 288.893 222.225 289.32 223.281 289.32C224.081 289.32 224.673 289.149 225.057 288.808C225.441 288.467 225.633 287.864 225.633 287V285.896C225.015 286.685 224.151 287.08 223.041 287.08C221.911 287.08 221.063 286.717 220.497 285.992C219.943 285.267 219.649 284.349 219.617 283.24L219.601 282.792L219.617 282.36C219.649 281.261 219.943 280.349 220.497 279.624C221.063 278.888 221.911 278.52 223.041 278.52C224.161 278.52 225.036 278.931 225.665 279.752V279.064C225.665 278.957 225.697 278.867 225.761 278.792C225.836 278.717 225.927 278.68 226.033 278.68H226.721C226.828 278.68 226.913 278.717 226.977 278.792C227.052 278.867 227.089 278.957 227.089 279.064V286.824C227.089 289.288 225.847 290.52 223.361 290.52ZM223.329 285.832C224.076 285.832 224.636 285.592 225.009 285.112C225.393 284.621 225.601 284.035 225.633 283.352C225.644 283.256 225.649 283.069 225.649 282.792C225.649 282.525 225.644 282.344 225.633 282.248C225.601 281.565 225.393 280.984 225.009 280.504C224.636 280.013 224.076 279.768 223.329 279.768C222.561 279.768 222.001 280.013 221.649 280.504C221.308 280.984 221.121 281.608 221.089 282.376L221.073 282.792L221.089 283.224C221.121 283.992 221.308 284.621 221.649 285.112C222.001 285.592 222.561 285.832 223.329 285.832ZM229.901 277.112C229.794 277.112 229.704 277.08 229.629 277.016C229.565 276.941 229.533 276.851 229.533 276.744V275.912C229.533 275.805 229.565 275.715 229.629 275.64C229.704 275.565 229.794 275.528 229.901 275.528H230.845C230.952 275.528 231.042 275.565 231.117 275.64C231.192 275.715 231.229 275.805 231.229 275.912V276.744C231.229 276.851 231.192 276.941 231.117 277.016C231.042 277.08 230.952 277.112 230.845 277.112H229.901ZM230.029 287C229.922 287 229.832 286.968 229.757 286.904C229.693 286.829 229.661 286.739 229.661 286.632V279.048C229.661 278.941 229.693 278.856 229.757 278.792C229.832 278.717 229.922 278.68 230.029 278.68H230.733C230.84 278.68 230.925 278.717 230.989 278.792C231.064 278.856 231.101 278.941 231.101 279.048V286.632C231.101 286.739 231.064 286.829 230.989 286.904C230.925 286.968 230.84 287 230.733 287H230.029ZM236.865 287C235.211 287 234.385 286.067 234.385 284.2V279.912H233.121C233.014 279.912 232.929 279.88 232.865 279.816C232.801 279.752 232.769 279.667 232.769 279.56V279.048C232.769 278.941 232.801 278.856 232.865 278.792C232.929 278.717 233.014 278.68 233.121 278.68H234.385V276.008C234.385 275.901 234.417 275.816 234.481 275.752C234.545 275.677 234.63 275.64 234.737 275.64H235.441C235.547 275.64 235.633 275.677 235.697 275.752C235.771 275.816 235.809 275.901 235.809 276.008V278.68H237.793C237.899 278.68 237.985 278.717 238.049 278.792C238.123 278.856 238.161 278.941 238.161 279.048V279.56C238.161 279.667 238.123 279.752 238.049 279.816C237.985 279.88 237.899 279.912 237.793 279.912H235.809V284.088C235.809 284.632 235.894 285.043 236.065 285.32C236.246 285.597 236.55 285.736 236.977 285.736H237.953C238.059 285.736 238.145 285.773 238.209 285.848C238.273 285.912 238.305 285.997 238.305 286.104V286.632C238.305 286.739 238.273 286.829 238.209 286.904C238.145 286.968 238.059 287 237.953 287H236.865ZM242.332 287.16C241.809 287.16 241.324 287.053 240.876 286.84C240.438 286.627 240.086 286.339 239.82 285.976C239.564 285.603 239.436 285.192 239.436 284.744C239.436 284.04 239.724 283.464 240.3 283.016C240.876 282.568 241.66 282.269 242.652 282.12L245.052 281.784V281.32C245.052 280.221 244.417 279.672 243.148 279.672C242.657 279.672 242.262 279.773 241.964 279.976C241.665 280.168 241.446 280.397 241.308 280.664C241.265 280.771 241.217 280.845 241.164 280.888C241.121 280.92 241.057 280.936 240.972 280.936H240.348C240.252 280.936 240.166 280.904 240.092 280.84C240.028 280.765 239.996 280.68 239.996 280.584C239.996 280.339 240.108 280.056 240.332 279.736C240.566 279.405 240.924 279.123 241.404 278.888C241.884 278.643 242.47 278.52 243.164 278.52C244.358 278.52 245.212 278.797 245.724 279.352C246.246 279.907 246.508 280.6 246.508 281.432V286.632C246.508 286.739 246.47 286.829 246.396 286.904C246.332 286.968 246.246 287 246.14 287H245.436C245.329 287 245.244 286.968 245.18 286.904C245.116 286.829 245.084 286.739 245.084 286.632V285.928C244.849 286.28 244.508 286.573 244.06 286.808C243.612 287.043 243.036 287.16 242.332 287.16ZM242.652 285.992C243.356 285.992 243.932 285.763 244.38 285.304C244.828 284.845 245.052 284.179 245.052 283.304V282.856L243.18 283.128C242.412 283.235 241.83 283.416 241.436 283.672C241.041 283.928 240.844 284.248 240.844 284.632C240.844 285.069 241.02 285.405 241.372 285.64C241.734 285.875 242.161 285.992 242.652 285.992ZM249.369 287C249.262 287 249.171 286.968 249.097 286.904C249.033 286.829 249.001 286.739 249.001 286.632V276.008C249.001 275.891 249.033 275.8 249.097 275.736C249.171 275.672 249.262 275.64 249.369 275.64H250.073C250.179 275.64 250.265 275.677 250.329 275.752C250.403 275.816 250.441 275.901 250.441 276.008V286.632C250.441 286.739 250.403 286.829 250.329 286.904C250.265 286.968 250.179 287 250.073 287H249.369ZM259.406 287.16C258.883 287.16 258.398 287.053 257.95 286.84C257.512 286.627 257.16 286.339 256.894 285.976C256.638 285.603 256.51 285.192 256.51 284.744C256.51 284.04 256.798 283.464 257.374 283.016C257.95 282.568 258.734 282.269 259.726 282.12L262.126 281.784V281.32C262.126 280.221 261.491 279.672 260.222 279.672C259.731 279.672 259.336 279.773 259.038 279.976C258.739 280.168 258.52 280.397 258.382 280.664C258.339 280.771 258.291 280.845 258.238 280.888C258.195 280.92 258.131 280.936 258.046 280.936H257.422C257.326 280.936 257.24 280.904 257.166 280.84C257.102 280.765 257.07 280.68 257.07 280.584C257.07 280.339 257.182 280.056 257.406 279.736C257.64 279.405 257.998 279.123 258.478 278.888C258.958 278.643 259.544 278.52 260.238 278.52C261.432 278.52 262.286 278.797 262.798 279.352C263.32 279.907 263.582 280.6 263.582 281.432V286.632C263.582 286.739 263.544 286.829 263.47 286.904C263.406 286.968 263.32 287 263.214 287H262.51C262.403 287 262.318 286.968 262.254 286.904C262.19 286.829 262.158 286.739 262.158 286.632V285.928C261.923 286.28 261.582 286.573 261.134 286.808C260.686 287.043 260.11 287.16 259.406 287.16ZM259.726 285.992C260.43 285.992 261.006 285.763 261.454 285.304C261.902 284.845 262.126 284.179 262.126 283.304V282.856L260.254 283.128C259.486 283.235 258.904 283.416 258.51 283.672C258.115 283.928 257.918 284.248 257.918 284.632C257.918 285.069 258.094 285.405 258.446 285.64C258.808 285.875 259.235 285.992 259.726 285.992ZM266.442 290.04C266.336 290.04 266.245 290.008 266.17 289.944C266.106 289.88 266.074 289.789 266.074 289.672V279.048C266.074 278.931 266.106 278.84 266.17 278.776C266.245 278.712 266.336 278.68 266.442 278.68H267.114C267.232 278.68 267.322 278.712 267.386 278.776C267.45 278.84 267.482 278.931 267.482 279.048V279.752C268.101 278.931 268.981 278.52 270.122 278.52C271.242 278.52 272.08 278.877 272.634 279.592C273.2 280.296 273.498 281.197 273.53 282.296C273.541 282.413 273.546 282.595 273.546 282.84C273.546 283.085 273.541 283.267 273.53 283.384C273.498 284.472 273.2 285.373 272.634 286.088C272.08 286.803 271.242 287.16 270.122 287.16C268.981 287.16 268.117 286.755 267.53 285.944V289.672C267.53 289.779 267.493 289.864 267.418 289.928C267.354 290.003 267.269 290.04 267.162 290.04H266.442ZM269.818 285.912C270.586 285.912 271.146 285.672 271.498 285.192C271.85 284.712 272.042 284.083 272.074 283.304C272.085 283.197 272.09 283.043 272.09 282.84C272.09 280.792 271.333 279.768 269.818 279.768C269.072 279.768 268.506 280.019 268.122 280.52C267.749 281.011 267.552 281.592 267.53 282.264C267.52 282.381 267.514 282.589 267.514 282.888C267.514 283.187 267.52 283.395 267.53 283.512C267.552 284.163 267.754 284.728 268.138 285.208C268.533 285.677 269.093 285.912 269.818 285.912ZM276.102 290.04C275.996 290.04 275.905 290.008 275.83 289.944C275.766 289.88 275.734 289.789 275.734 289.672V279.048C275.734 278.931 275.766 278.84 275.83 278.776C275.905 278.712 275.996 278.68 276.102 278.68H276.774C276.892 278.68 276.982 278.712 277.046 278.776C277.11 278.84 277.142 278.931 277.142 279.048V279.752C277.761 278.931 278.641 278.52 279.782 278.52C280.902 278.52 281.74 278.877 282.294 279.592C282.86 280.296 283.158 281.197 283.19 282.296C283.201 282.413 283.206 282.595 283.206 282.84C283.206 283.085 283.201 283.267 283.19 283.384C283.158 284.472 282.86 285.373 282.294 286.088C281.74 286.803 280.902 287.16 279.782 287.16C278.641 287.16 277.777 286.755 277.19 285.944V289.672C277.19 289.779 277.153 289.864 277.078 289.928C277.014 290.003 276.929 290.04 276.822 290.04H276.102ZM279.478 285.912C280.246 285.912 280.806 285.672 281.158 285.192C281.51 284.712 281.702 284.083 281.734 283.304C281.745 283.197 281.75 283.043 281.75 282.84C281.75 280.792 280.993 279.768 279.478 279.768C278.732 279.768 278.166 280.019 277.782 280.52C277.409 281.011 277.212 281.592 277.19 282.264C277.18 282.381 277.174 282.589 277.174 282.888C277.174 283.187 277.18 283.395 277.19 283.512C277.212 284.163 277.414 284.728 277.798 285.208C278.193 285.677 278.753 285.912 279.478 285.912ZM285.762 287C285.656 287 285.565 286.968 285.49 286.904C285.426 286.829 285.394 286.739 285.394 286.632V276.008C285.394 275.891 285.426 275.8 285.49 275.736C285.565 275.672 285.656 275.64 285.762 275.64H286.466C286.573 275.64 286.658 275.677 286.722 275.752C286.797 275.816 286.834 275.901 286.834 276.008V286.632C286.834 286.739 286.797 286.829 286.722 286.904C286.658 286.968 286.573 287 286.466 287H285.762ZM289.638 277.112C289.531 277.112 289.44 277.08 289.366 277.016C289.302 276.941 289.27 276.851 289.27 276.744V275.912C289.27 275.805 289.302 275.715 289.366 275.64C289.44 275.565 289.531 275.528 289.638 275.528H290.582C290.688 275.528 290.779 275.565 290.854 275.64C290.928 275.715 290.966 275.805 290.966 275.912V276.744C290.966 276.851 290.928 276.941 290.854 277.016C290.779 277.08 290.688 277.112 290.582 277.112H289.638ZM289.766 287C289.659 287 289.568 286.968 289.494 286.904C289.43 286.829 289.398 286.739 289.398 286.632V279.048C289.398 278.941 289.43 278.856 289.494 278.792C289.568 278.717 289.659 278.68 289.766 278.68H290.47C290.576 278.68 290.662 278.717 290.726 278.792C290.8 278.856 290.838 278.941 290.838 279.048V286.632C290.838 286.739 290.8 286.829 290.726 286.904C290.662 286.968 290.576 287 290.47 287H289.766ZM296.73 287.16C295.588 287.16 294.698 286.84 294.058 286.2C293.418 285.549 293.082 284.643 293.05 283.48L293.034 282.84L293.05 282.2C293.082 281.037 293.418 280.136 294.058 279.496C294.698 278.845 295.588 278.52 296.73 278.52C297.498 278.52 298.143 278.659 298.666 278.936C299.199 279.203 299.594 279.539 299.85 279.944C300.116 280.349 300.26 280.755 300.282 281.16C300.292 281.256 300.255 281.341 300.17 281.416C300.095 281.491 300.01 281.528 299.914 281.528H299.21C299.103 281.528 299.023 281.507 298.97 281.464C298.916 281.411 298.863 281.32 298.81 281.192C298.618 280.669 298.351 280.301 298.01 280.088C297.679 279.864 297.258 279.752 296.746 279.752C296.074 279.752 295.54 279.96 295.146 280.376C294.751 280.792 294.538 281.427 294.506 282.28L294.49 282.84L294.506 283.4C294.538 284.253 294.751 284.888 295.146 285.304C295.54 285.72 296.074 285.928 296.746 285.928C297.268 285.928 297.695 285.821 298.026 285.608C298.356 285.384 298.618 285.011 298.81 284.488C298.863 284.36 298.916 284.275 298.97 284.232C299.023 284.179 299.103 284.152 299.21 284.152H299.914C300.01 284.152 300.095 284.189 300.17 284.264C300.255 284.339 300.292 284.424 300.282 284.52C300.26 284.915 300.116 285.315 299.85 285.72C299.594 286.125 299.199 286.467 298.666 286.744C298.143 287.021 297.498 287.16 296.73 287.16ZM304.662 287.16C304.14 287.16 303.654 287.053 303.206 286.84C302.769 286.627 302.417 286.339 302.15 285.976C301.894 285.603 301.766 285.192 301.766 284.744C301.766 284.04 302.054 283.464 302.63 283.016C303.206 282.568 303.99 282.269 304.982 282.12L307.382 281.784V281.32C307.382 280.221 306.748 279.672 305.478 279.672C304.988 279.672 304.593 279.773 304.294 279.976C303.996 280.168 303.777 280.397 303.638 280.664C303.596 280.771 303.548 280.845 303.494 280.888C303.452 280.92 303.388 280.936 303.302 280.936H302.678C302.582 280.936 302.497 280.904 302.422 280.84C302.358 280.765 302.326 280.68 302.326 280.584C302.326 280.339 302.438 280.056 302.662 279.736C302.897 279.405 303.254 279.123 303.734 278.888C304.214 278.643 304.801 278.52 305.494 278.52C306.689 278.52 307.542 278.797 308.054 279.352C308.577 279.907 308.838 280.6 308.838 281.432V286.632C308.838 286.739 308.801 286.829 308.726 286.904C308.662 286.968 308.577 287 308.47 287H307.766C307.66 287 307.574 286.968 307.51 286.904C307.446 286.829 307.414 286.739 307.414 286.632V285.928C307.18 286.28 306.838 286.573 306.39 286.808C305.942 287.043 305.366 287.16 304.662 287.16ZM304.982 285.992C305.686 285.992 306.262 285.763 306.71 285.304C307.158 284.845 307.382 284.179 307.382 283.304V282.856L305.51 283.128C304.742 283.235 304.161 283.416 303.766 283.672C303.372 283.928 303.174 284.248 303.174 284.632C303.174 285.069 303.35 285.405 303.702 285.64C304.065 285.875 304.492 285.992 304.982 285.992ZM314.437 287C312.784 287 311.957 286.067 311.957 284.2V279.912H310.693C310.587 279.912 310.501 279.88 310.437 279.816C310.373 279.752 310.341 279.667 310.341 279.56V279.048C310.341 278.941 310.373 278.856 310.437 278.792C310.501 278.717 310.587 278.68 310.693 278.68H311.957V276.008C311.957 275.901 311.989 275.816 312.053 275.752C312.117 275.677 312.203 275.64 312.309 275.64H313.013C313.12 275.64 313.205 275.677 313.269 275.752C313.344 275.816 313.381 275.901 313.381 276.008V278.68H315.365C315.472 278.68 315.557 278.717 315.621 278.792C315.696 278.856 315.733 278.941 315.733 279.048V279.56C315.733 279.667 315.696 279.752 315.621 279.816C315.557 279.88 315.472 279.912 315.365 279.912H313.381V284.088C313.381 284.632 313.467 285.043 313.637 285.32C313.819 285.597 314.123 285.736 314.549 285.736H315.525C315.632 285.736 315.717 285.773 315.781 285.848C315.845 285.912 315.877 285.997 315.877 286.104V286.632C315.877 286.739 315.845 286.829 315.781 286.904C315.717 286.968 315.632 287 315.525 287H314.437ZM317.84 277.112C317.734 277.112 317.643 277.08 317.568 277.016C317.504 276.941 317.472 276.851 317.472 276.744V275.912C317.472 275.805 317.504 275.715 317.568 275.64C317.643 275.565 317.734 275.528 317.84 275.528H318.784C318.891 275.528 318.982 275.565 319.056 275.64C319.131 275.715 319.168 275.805 319.168 275.912V276.744C319.168 276.851 319.131 276.941 319.056 277.016C318.982 277.08 318.891 277.112 318.784 277.112H317.84ZM317.968 287C317.862 287 317.771 286.968 317.696 286.904C317.632 286.829 317.6 286.739 317.6 286.632V279.048C317.6 278.941 317.632 278.856 317.696 278.792C317.771 278.717 317.862 278.68 317.968 278.68H318.672C318.779 278.68 318.864 278.717 318.928 278.792C319.003 278.856 319.04 278.941 319.04 279.048V286.632C319.04 286.739 319.003 286.829 318.928 286.904C318.864 286.968 318.779 287 318.672 287H317.968ZM324.98 287.16C323.807 287.16 322.9 286.829 322.26 286.168C321.631 285.507 321.295 284.627 321.252 283.528L321.236 282.84L321.252 282.152C321.295 281.053 321.636 280.173 322.276 279.512C322.927 278.851 323.828 278.52 324.98 278.52C326.132 278.52 327.028 278.851 327.668 279.512C328.319 280.173 328.665 281.053 328.708 282.152C328.729 282.387 328.74 282.616 328.74 282.84C328.74 283.064 328.729 283.293 328.708 283.528C328.665 284.627 328.324 285.507 327.684 286.168C327.055 286.829 326.153 287.16 324.98 287.16ZM324.98 285.96C325.663 285.96 326.201 285.747 326.596 285.32C327.001 284.883 327.22 284.259 327.252 283.448C327.263 283.341 327.268 283.139 327.268 282.84C327.268 282.541 327.263 282.339 327.252 282.232C327.22 281.421 327.001 280.803 326.596 280.376C326.201 279.939 325.663 279.72 324.98 279.72C324.297 279.72 323.753 279.939 323.348 280.376C322.953 280.803 322.74 281.421 322.708 282.232L322.692 282.84L322.708 283.448C322.74 284.259 322.953 284.883 323.348 285.32C323.753 285.747 324.297 285.96 324.98 285.96ZM331.288 287C331.182 287 331.091 286.968 331.016 286.904C330.952 286.829 330.92 286.739 330.92 286.632V279.048C330.92 278.941 330.952 278.856 331.016 278.792C331.091 278.717 331.182 278.68 331.288 278.68H331.976C332.094 278.68 332.184 278.712 332.248 278.776C332.312 278.84 332.344 278.931 332.344 279.048V279.752C332.664 279.357 333.032 279.053 333.448 278.84C333.875 278.627 334.403 278.52 335.032 278.52C336.056 278.52 336.851 278.851 337.416 279.512C337.982 280.163 338.264 281.027 338.264 282.104V286.632C338.264 286.739 338.227 286.829 338.152 286.904C338.088 286.968 338.003 287 337.896 287H337.16C337.054 287 336.963 286.968 336.888 286.904C336.824 286.829 336.792 286.739 336.792 286.632V282.2C336.792 281.432 336.606 280.835 336.232 280.408C335.859 279.981 335.326 279.768 334.632 279.768C333.95 279.768 333.406 279.987 333 280.424C332.595 280.851 332.392 281.443 332.392 282.2V286.632C332.392 286.739 332.355 286.829 332.28 286.904C332.216 286.968 332.131 287 332.024 287H331.288ZM343.585 287.16C342.849 287.16 342.225 287.043 341.713 286.808C341.211 286.563 340.838 286.285 340.593 285.976C340.347 285.667 340.225 285.411 340.225 285.208C340.225 285.101 340.262 285.021 340.337 284.968C340.411 284.904 340.491 284.872 340.577 284.872H341.249C341.313 284.872 341.361 284.883 341.393 284.904C341.435 284.925 341.489 284.973 341.553 285.048C341.798 285.347 342.07 285.581 342.369 285.752C342.678 285.923 343.089 286.008 343.601 286.008C344.177 286.008 344.635 285.901 344.977 285.688C345.329 285.475 345.505 285.165 345.505 284.76C345.505 284.493 345.43 284.28 345.281 284.12C345.131 283.96 344.881 283.816 344.529 283.688C344.187 283.56 343.675 283.421 342.993 283.272C342.065 283.069 341.409 282.776 341.025 282.392C340.641 282.008 340.449 281.512 340.449 280.904C340.449 280.509 340.566 280.131 340.801 279.768C341.035 279.395 341.382 279.096 341.841 278.872C342.31 278.637 342.865 278.52 343.505 278.52C344.177 278.52 344.747 278.632 345.217 278.856C345.697 279.08 346.054 279.341 346.289 279.64C346.534 279.939 346.657 280.189 346.657 280.392C346.657 280.488 346.619 280.568 346.545 280.632C346.481 280.696 346.401 280.728 346.305 280.728H345.697C345.547 280.728 345.441 280.669 345.377 280.552C345.195 280.349 345.041 280.195 344.913 280.088C344.795 279.971 344.619 279.875 344.385 279.8C344.15 279.715 343.857 279.672 343.505 279.672C342.982 279.672 342.582 279.784 342.305 280.008C342.027 280.221 341.889 280.509 341.889 280.872C341.889 281.096 341.947 281.288 342.065 281.448C342.182 281.597 342.406 281.741 342.737 281.88C343.067 282.008 343.558 282.141 344.209 282.28C345.222 282.493 345.937 282.797 346.353 283.192C346.779 283.587 346.993 284.093 346.993 284.712C346.993 285.171 346.859 285.587 346.593 285.96C346.337 286.333 345.947 286.627 345.425 286.84C344.913 287.053 344.299 287.16 343.585 287.16ZM349.278 287C349.171 287 349.08 286.968 349.006 286.904C348.942 286.829 348.91 286.739 348.91 286.632V285.528C348.91 285.421 348.942 285.331 349.006 285.256C349.08 285.181 349.171 285.144 349.278 285.144H350.382C350.488 285.144 350.574 285.181 350.638 285.256C350.712 285.331 350.75 285.421 350.75 285.528V286.632C350.75 286.739 350.712 286.829 350.638 286.904C350.574 286.968 350.488 287 350.382 287H349.278Z" fill="#828282"/>
<path d="M126.335 211C126.122 211 125.93 210.925 125.759 210.776C125.61 210.605 125.535 210.413 125.535 210.2V189.432C125.535 189.197 125.61 189.005 125.759 188.856C125.909 188.685 126.101 188.6 126.335 188.6H141.439C141.674 188.6 141.866 188.685 142.015 188.856C142.186 189.005 142.271 189.197 142.271 189.432V192.6C142.271 192.835 142.186 193.027 142.015 193.176C141.866 193.325 141.674 193.4 141.439 193.4H131.327V197.464H140.735C140.97 197.464 141.162 197.549 141.311 197.72C141.482 197.869 141.567 198.061 141.567 198.296V201.208C141.567 201.443 141.482 201.645 141.311 201.816C141.162 201.965 140.97 202.04 140.735 202.04H131.327V206.2H141.695C141.93 206.2 142.122 206.285 142.271 206.456C142.442 206.605 142.527 206.797 142.527 207.032V210.2C142.527 210.435 142.442 210.627 142.271 210.776C142.122 210.925 141.93 211 141.695 211H126.335ZM154.326 211C149.803 211 147.542 208.877 147.542 204.632V198.712H145.014C144.8 198.712 144.608 198.637 144.438 198.488C144.288 198.317 144.214 198.125 144.214 197.912V195.16C144.214 194.925 144.288 194.733 144.438 194.584C144.608 194.435 144.8 194.36 145.014 194.36H147.542V189.08C147.542 188.845 147.616 188.653 147.766 188.504C147.936 188.355 148.128 188.28 148.342 188.28H152.278C152.512 188.28 152.704 188.355 152.854 188.504C153.003 188.653 153.078 188.845 153.078 189.08V194.36H157.078C157.312 194.36 157.504 194.435 157.654 194.584C157.824 194.733 157.91 194.925 157.91 195.16V197.912C157.91 198.147 157.824 198.339 157.654 198.488C157.504 198.637 157.312 198.712 157.078 198.712H153.078V204.152C153.078 204.899 153.216 205.464 153.494 205.848C153.771 206.232 154.219 206.424 154.838 206.424H157.366C157.6 206.424 157.792 206.509 157.942 206.68C158.091 206.829 158.166 207.021 158.166 207.256V210.2C158.166 210.413 158.091 210.605 157.942 210.776C157.792 210.925 157.6 211 157.366 211H154.326ZM161.578 211C161.343 211 161.141 210.925 160.97 210.776C160.821 210.627 160.746 210.435 160.746 210.2V189.08C160.746 188.845 160.821 188.653 160.97 188.504C161.141 188.355 161.343 188.28 161.578 188.28H165.898C166.133 188.28 166.325 188.355 166.474 188.504C166.645 188.653 166.73 188.845 166.73 189.08V196.216C167.967 194.765 169.642 194.04 171.754 194.04C172.97 194.04 174.069 194.317 175.05 194.872C176.031 195.427 176.799 196.248 177.354 197.336C177.909 198.424 178.186 199.736 178.186 201.272V210.2C178.186 210.435 178.101 210.627 177.93 210.776C177.781 210.925 177.589 211 177.354 211H173.002C172.789 211 172.597 210.925 172.426 210.776C172.277 210.605 172.202 210.413 172.202 210.2V201.464C172.202 200.525 171.967 199.8 171.498 199.288C171.029 198.755 170.357 198.488 169.482 198.488C168.629 198.488 167.957 198.755 167.466 199.288C166.975 199.8 166.73 200.525 166.73 201.464V210.2C166.73 210.435 166.645 210.627 166.474 210.776C166.325 210.925 166.133 211 165.898 211H161.578ZM189.491 211.32C186.889 211.32 184.841 210.627 183.347 209.24C181.854 207.832 181.086 205.795 181.043 203.128V202.136C181.129 199.597 181.918 197.613 183.411 196.184C184.905 194.755 186.921 194.04 189.459 194.04C191.294 194.04 192.841 194.413 194.099 195.16C195.379 195.885 196.329 196.899 196.947 198.2C197.587 199.48 197.907 200.941 197.907 202.584V203.384C197.907 203.619 197.822 203.821 197.651 203.992C197.502 204.141 197.31 204.216 197.075 204.216H186.931V204.408C186.953 205.368 187.177 206.147 187.603 206.744C188.03 207.32 188.638 207.608 189.427 207.608C189.939 207.608 190.345 207.512 190.643 207.32C190.963 207.107 191.262 206.84 191.539 206.52C191.731 206.307 191.881 206.179 191.987 206.136C192.115 206.072 192.307 206.04 192.563 206.04H196.755C196.947 206.04 197.107 206.104 197.235 206.232C197.385 206.339 197.459 206.477 197.459 206.648C197.459 207.203 197.139 207.853 196.499 208.6C195.881 209.347 194.963 209.987 193.747 210.52C192.553 211.053 191.134 211.32 189.491 211.32ZM192.019 200.952V200.888C192.019 199.864 191.795 199.075 191.347 198.52C190.899 197.944 190.27 197.656 189.459 197.656C188.649 197.656 188.019 197.944 187.571 198.52C187.145 199.075 186.931 199.864 186.931 200.888V200.952H192.019ZM201.577 211C201.364 211 201.172 210.925 201.001 210.776C200.852 210.605 200.777 210.413 200.777 210.2V195.192C200.777 194.957 200.852 194.765 201.001 194.616C201.15 194.445 201.342 194.36 201.577 194.36H205.481C205.716 194.36 205.908 194.445 206.057 194.616C206.228 194.765 206.313 194.957 206.313 195.192V196.408C206.91 195.747 207.604 195.245 208.393 194.904C209.204 194.541 210.1 194.36 211.081 194.36H212.521C212.756 194.36 212.948 194.435 213.097 194.584C213.246 194.733 213.321 194.925 213.321 195.16V198.648C213.321 198.861 213.246 199.053 213.097 199.224C212.948 199.373 212.756 199.448 212.521 199.448H209.289C208.436 199.448 207.774 199.683 207.305 200.152C206.857 200.621 206.633 201.283 206.633 202.136V210.2C206.633 210.435 206.548 210.627 206.377 210.776C206.228 210.925 206.036 211 205.801 211H201.577ZM223.21 211.32C220.607 211.32 218.559 210.627 217.066 209.24C215.573 207.832 214.805 205.795 214.762 203.128V202.136C214.847 199.597 215.637 197.613 217.13 196.184C218.623 194.755 220.639 194.04 223.178 194.04C225.013 194.04 226.559 194.413 227.818 195.16C229.098 195.885 230.047 196.899 230.666 198.2C231.306 199.48 231.626 200.941 231.626 202.584V203.384C231.626 203.619 231.541 203.821 231.37 203.992C231.221 204.141 231.029 204.216 230.794 204.216H220.65V204.408C220.671 205.368 220.895 206.147 221.322 206.744C221.749 207.32 222.357 207.608 223.146 207.608C223.658 207.608 224.063 207.512 224.362 207.32C224.682 207.107 224.981 206.84 225.258 206.52C225.45 206.307 225.599 206.179 225.706 206.136C225.834 206.072 226.026 206.04 226.282 206.04H230.474C230.666 206.04 230.826 206.104 230.954 206.232C231.103 206.339 231.178 206.477 231.178 206.648C231.178 207.203 230.858 207.853 230.218 208.6C229.599 209.347 228.682 209.987 227.466 210.52C226.271 211.053 224.853 211.32 223.21 211.32ZM225.738 200.952V200.888C225.738 199.864 225.514 199.075 225.066 198.52C224.618 197.944 223.989 197.656 223.178 197.656C222.367 197.656 221.738 197.944 221.29 198.52C220.863 199.075 220.65 199.864 220.65 200.888V200.952H225.738ZM240.608 211.32C238.731 211.32 237.216 210.691 236.064 209.432C234.912 208.173 234.336 206.392 234.336 204.088V195.16C234.336 194.925 234.411 194.733 234.56 194.584C234.731 194.435 234.923 194.36 235.136 194.36H239.392C239.627 194.36 239.819 194.435 239.968 194.584C240.139 194.733 240.224 194.925 240.224 195.16V203.896C240.224 205.88 241.109 206.872 242.88 206.872C243.733 206.872 244.395 206.616 244.864 206.104C245.355 205.571 245.6 204.835 245.6 203.896V195.16C245.6 194.925 245.675 194.733 245.824 194.584C245.995 194.435 246.197 194.36 246.432 194.36H250.656C250.891 194.36 251.083 194.435 251.232 194.584C251.381 194.733 251.456 194.925 251.456 195.16V210.2C251.456 210.413 251.381 210.605 251.232 210.776C251.083 210.925 250.891 211 250.656 211H246.752C246.517 211 246.315 210.925 246.144 210.776C245.995 210.627 245.92 210.435 245.92 210.2V208.984C244.811 210.541 243.04 211.32 240.608 211.32ZM255.89 211C255.676 211 255.484 210.925 255.314 210.776C255.164 210.605 255.09 210.413 255.09 210.2V195.16C255.09 194.925 255.164 194.733 255.314 194.584C255.484 194.435 255.676 194.36 255.89 194.36H259.602C259.836 194.36 260.028 194.435 260.178 194.584C260.327 194.733 260.402 194.925 260.402 195.16V196.248C260.914 195.629 261.575 195.107 262.386 194.68C263.196 194.253 264.114 194.04 265.138 194.04C267.484 194.04 269.095 194.957 269.97 196.792C270.482 195.981 271.196 195.32 272.114 194.808C273.031 194.296 274.012 194.04 275.058 194.04C276.807 194.04 278.226 194.637 279.314 195.832C280.423 197.005 280.978 198.765 280.978 201.112V210.2C280.978 210.413 280.903 210.605 280.754 210.776C280.604 210.925 280.412 211 280.178 211H276.242C276.007 211 275.804 210.925 275.634 210.776C275.484 210.627 275.41 210.435 275.41 210.2V201.336C275.41 200.355 275.196 199.64 274.77 199.192C274.364 198.723 273.81 198.488 273.106 198.488C272.444 198.488 271.9 198.723 271.474 199.192C271.068 199.64 270.866 200.355 270.866 201.336V210.2C270.866 210.413 270.791 210.605 270.642 210.776C270.492 210.925 270.3 211 270.066 211H266.13C265.895 211 265.692 210.925 265.522 210.776C265.372 210.627 265.298 210.435 265.298 210.2V201.336C265.298 200.355 265.084 199.64 264.658 199.192C264.231 198.723 263.676 198.488 262.994 198.488C262.332 198.488 261.788 198.723 261.362 199.192C260.935 199.64 260.722 200.344 260.722 201.304V210.2C260.722 210.413 260.647 210.605 260.498 210.776C260.348 210.925 260.156 211 259.922 211H255.89Z" fill="#0D0D2B"/>
<path d="M293.196 207C293.076 207 292.974 206.958 292.89 206.874C292.806 206.79 292.764 206.688 292.764 206.568V194.85C292.764 194.718 292.8 194.61 292.872 194.526C292.956 194.442 293.064 194.4 293.196 194.4H301.134C301.266 194.4 301.374 194.442 301.458 194.526C301.542 194.61 301.584 194.718 301.584 194.85V196.056C301.584 196.188 301.542 196.296 301.458 196.38C301.374 196.452 301.266 196.488 301.134 196.488H295.23V199.638H300.738C300.87 199.638 300.978 199.68 301.062 199.764C301.146 199.848 301.188 199.956 301.188 200.088V201.222C301.188 201.354 301.146 201.462 301.062 201.546C300.978 201.618 300.87 201.654 300.738 201.654H295.23V204.912H301.278C301.41 204.912 301.518 204.954 301.602 205.038C301.686 205.11 301.728 205.212 301.728 205.344V206.568C301.728 206.7 301.686 206.808 301.602 206.892C301.518 206.964 301.41 207 301.278 207H293.196ZM307.183 207C307.063 207 306.961 206.958 306.877 206.874C306.793 206.79 306.751 206.688 306.751 206.568V196.65H303.421C303.301 196.65 303.199 196.608 303.115 196.524C303.031 196.44 302.989 196.332 302.989 196.2V194.85C302.989 194.718 303.025 194.61 303.097 194.526C303.181 194.442 303.289 194.4 303.421 194.4H312.619C312.751 194.4 312.859 194.442 312.943 194.526C313.027 194.61 313.069 194.718 313.069 194.85V196.2C313.069 196.332 313.027 196.44 312.943 196.524C312.859 196.608 312.751 196.65 312.619 196.65H309.307V206.568C309.307 206.688 309.265 206.79 309.181 206.874C309.109 206.958 309.007 207 308.875 207H307.183ZM315.327 207C315.207 207 315.105 206.958 315.021 206.874C314.937 206.79 314.895 206.688 314.895 206.568V194.85C314.895 194.718 314.931 194.61 315.003 194.526C315.087 194.442 315.195 194.4 315.327 194.4H316.983C317.115 194.4 317.223 194.442 317.307 194.526C317.391 194.61 317.433 194.718 317.433 194.85V199.476H322.689V194.85C322.689 194.718 322.731 194.61 322.815 194.526C322.899 194.442 323.001 194.4 323.121 194.4H324.795C324.927 194.4 325.029 194.442 325.101 194.526C325.185 194.61 325.227 194.718 325.227 194.85V206.568C325.227 206.688 325.185 206.79 325.101 206.874C325.029 206.958 324.927 207 324.795 207H323.121C323.001 207 322.899 206.958 322.815 206.874C322.731 206.79 322.689 206.688 322.689 206.568V201.762H317.433V206.568C317.433 206.688 317.391 206.79 317.307 206.874C317.223 206.958 317.115 207 316.983 207H315.327Z" fill="#BDBDBD"/>
<circle cx="221" cy="88" r="40" fill="#1181E8"/>
<g clip-path="url(#clip0)">
<path d="M220.89 99.9385L206.156 91.243L220.881 112.001L235.623 91.243L220.881 99.9385H220.89ZM221.109 64L206.381 88.4455L221.109 97.156L235.844 88.4545L221.109 64Z" fill="white"/>
</g>
<defs>
<filter id="filter0_d" x="0" y="0" width="450" height="513" filterUnits="userSpaceOnUse" color-interpolation-filters="sRGB">
<feFlood flood-opacity="0" result="BackgroundImageFix"/>
<feColorMatrix in="SourceAlpha" type="matrix" values="0 0 0 0 0 0 0 0 0 0 0 0 0 0 0 0 0 0 127 0"/>
<feOffset dy="40"/>
<feGaussianBlur stdDeviation="20"/>
<feColorMatrix type="matrix" values="0 0 0 0 0.223529 0 0 0 0 0.0901961 0 0 0 0 0.466667 0 0 0 1 0"/>
<feBlend mode="normal" in2="BackgroundImageFix" result="effect1_dropShadow"/>
<feBlend mode="normal" in="SourceGraphic" in2="effect1_dropShadow" result="shape"/>
</filter>
<clipPath id="clip0">
<rect width="48" height="48" fill="white" transform="translate(197 64)"/>
</clipPath>
</defs>
</svg>
