<svg width="450" height="513" viewBox="0 0 450 513" fill="none" xmlns="http://www.w3.org/2000/svg">
<g style="mix-blend-mode:overlay" filter="url(#filter0_d)">
<rect x="40" width="370" height="433" rx="16" fill="white"/>
</g>
<circle cx="225" cy="353" r="31" stroke="#2B076E" stroke-opacity="0.2" stroke-width="2"/>
<path d="M222 363C221.737 363.002 221.476 362.951 221.232 362.852C220.988 362.752 220.767 362.606 220.58 362.42C220.392 362.234 220.244 362.013 220.142 361.769C220.041 361.526 219.988 361.264 219.988 361C219.988 360.736 220.041 360.475 220.142 360.231C220.244 359.987 220.392 359.766 220.58 359.58L227.2 353L220.84 346.38C220.467 346.005 220.258 345.499 220.258 344.97C220.258 344.442 220.467 343.935 220.84 343.56C221.026 343.373 221.247 343.224 221.491 343.122C221.735 343.021 221.996 342.969 222.26 342.969C222.524 342.969 222.785 343.021 223.029 343.122C223.273 343.224 223.494 343.373 223.68 343.56L231.4 351.56C231.766 351.934 231.972 352.437 231.972 352.96C231.972 353.484 231.766 353.986 231.4 354.36L223.4 362.36C223.22 362.554 223.004 362.71 222.764 362.82C222.524 362.93 222.264 362.991 222 363Z" fill="#3671E9"/>
<path d="M142.32 211C142.106 211 141.914 210.925 141.744 210.776C141.594 210.605 141.52 210.413 141.52 210.2V189.4C141.52 189.165 141.594 188.973 141.744 188.824C141.914 188.675 142.106 188.6 142.32 188.6H146.8C147.034 188.6 147.226 188.675 147.376 188.824C147.525 188.973 147.6 189.165 147.6 189.4V205.976H157.2C157.434 205.976 157.626 206.061 157.776 206.232C157.946 206.381 158.032 206.573 158.032 206.808V210.2C158.032 210.435 157.946 210.627 157.776 210.776C157.626 210.925 157.434 211 157.2 211H142.32ZM161.155 192.056C160.921 192.056 160.729 191.981 160.579 191.832C160.43 191.661 160.355 191.459 160.355 191.224V188.248C160.355 188.013 160.43 187.821 160.579 187.672C160.75 187.501 160.942 187.416 161.155 187.416H165.155C165.39 187.416 165.582 187.501 165.731 187.672C165.902 187.821 165.987 188.013 165.987 188.248V191.224C165.987 191.459 165.902 191.661 165.731 191.832C165.582 191.981 165.39 192.056 165.155 192.056H161.155ZM161.155 211C160.942 211 160.75 210.925 160.579 210.776C160.43 210.605 160.355 210.413 160.355 210.2V195.16C160.355 194.925 160.43 194.733 160.579 194.584C160.75 194.435 160.942 194.36 161.155 194.36H165.155C165.39 194.36 165.582 194.435 165.731 194.584C165.902 194.733 165.987 194.925 165.987 195.16V210.2C165.987 210.435 165.902 210.627 165.731 210.776C165.582 210.925 165.39 211 165.155 211H161.155ZM178.373 211C173.85 211 171.589 208.877 171.589 204.632V198.712H169.061C168.847 198.712 168.655 198.637 168.485 198.488C168.335 198.317 168.261 198.125 168.261 197.912V195.16C168.261 194.925 168.335 194.733 168.485 194.584C168.655 194.435 168.847 194.36 169.061 194.36H171.589V189.08C171.589 188.845 171.663 188.653 171.812 188.504C171.983 188.355 172.175 188.28 172.389 188.28H176.325C176.559 188.28 176.751 188.355 176.901 188.504C177.05 188.653 177.125 188.845 177.125 189.08V194.36H181.125C181.359 194.36 181.551 194.435 181.701 194.584C181.871 194.733 181.957 194.925 181.957 195.16V197.912C181.957 198.147 181.871 198.339 181.701 198.488C181.551 198.637 181.359 198.712 181.125 198.712H177.125V204.152C177.125 204.899 177.263 205.464 177.541 205.848C177.818 206.232 178.266 206.424 178.885 206.424H181.413C181.647 206.424 181.839 206.509 181.989 206.68C182.138 206.829 182.213 207.021 182.213 207.256V210.2C182.213 210.413 182.138 210.605 181.989 210.776C181.839 210.925 181.647 211 181.413 211H178.373ZM192.601 211.32C189.998 211.32 187.95 210.627 186.457 209.24C184.963 207.832 184.195 205.795 184.153 203.128V202.136C184.238 199.597 185.027 197.613 186.521 196.184C188.014 194.755 190.03 194.04 192.569 194.04C194.403 194.04 195.95 194.413 197.209 195.16C198.489 195.885 199.438 196.899 200.057 198.2C200.697 199.48 201.017 200.941 201.017 202.584V203.384C201.017 203.619 200.931 203.821 200.761 203.992C200.611 204.141 200.419 204.216 200.185 204.216H190.041V204.408C190.062 205.368 190.286 206.147 190.713 206.744C191.139 207.32 191.747 207.608 192.537 207.608C193.049 207.608 193.454 207.512 193.753 207.32C194.073 207.107 194.371 206.84 194.649 206.52C194.841 206.307 194.99 206.179 195.097 206.136C195.225 206.072 195.417 206.04 195.673 206.04H199.865C200.057 206.04 200.217 206.104 200.345 206.232C200.494 206.339 200.569 206.477 200.569 206.648C200.569 207.203 200.249 207.853 199.609 208.6C198.99 209.347 198.073 209.987 196.857 210.52C195.662 211.053 194.243 211.32 192.601 211.32ZM195.129 200.952V200.888C195.129 199.864 194.905 199.075 194.457 198.52C194.009 197.944 193.379 197.656 192.569 197.656C191.758 197.656 191.129 197.944 190.681 198.52C190.254 199.075 190.041 199.864 190.041 200.888V200.952H195.129ZM211.631 211.32C209.199 211.32 207.225 210.68 205.711 209.4C204.217 208.099 203.417 206.296 203.311 203.992L203.279 202.712L203.311 201.4C203.396 199.096 204.196 197.293 205.711 195.992C207.225 194.691 209.199 194.04 211.631 194.04C213.487 194.04 215.044 194.371 216.303 195.032C217.561 195.693 218.5 196.483 219.119 197.4C219.737 198.296 220.068 199.117 220.111 199.864C220.132 200.099 220.057 200.301 219.887 200.472C219.716 200.621 219.513 200.696 219.279 200.696H214.991C214.756 200.696 214.575 200.643 214.447 200.536C214.319 200.429 214.201 200.259 214.095 200.024C213.86 199.427 213.551 198.989 213.167 198.712C212.804 198.435 212.335 198.296 211.759 198.296C210.116 198.296 209.263 199.384 209.199 201.56L209.167 202.776L209.199 203.832C209.22 204.941 209.444 205.763 209.871 206.296C210.297 206.808 210.927 207.064 211.759 207.064C212.377 207.064 212.857 206.936 213.199 206.68C213.561 206.403 213.86 205.955 214.095 205.336C214.201 205.101 214.319 204.931 214.447 204.824C214.575 204.717 214.756 204.664 214.991 204.664H219.279C219.492 204.664 219.684 204.739 219.855 204.888C220.025 205.037 220.111 205.219 220.111 205.432C220.111 206.093 219.812 206.893 219.215 207.832C218.639 208.749 217.711 209.56 216.431 210.264C215.151 210.968 213.551 211.32 211.631 211.32ZM230.855 211.32C228.167 211.32 226.098 210.701 224.647 209.464C223.218 208.205 222.439 206.424 222.311 204.12C222.29 203.843 222.279 203.363 222.279 202.68C222.279 201.997 222.29 201.517 222.311 201.24C222.439 198.979 223.239 197.219 224.711 195.96C226.205 194.68 228.253 194.04 230.855 194.04C233.458 194.04 235.495 194.68 236.967 195.96C238.461 197.219 239.271 198.979 239.399 201.24C239.442 201.795 239.463 202.275 239.463 202.68C239.463 203.085 239.442 203.565 239.399 204.12C239.271 206.424 238.482 208.205 237.031 209.464C235.602 210.701 233.543 211.32 230.855 211.32ZM230.855 207.288C231.73 207.288 232.381 207.021 232.807 206.488C233.234 205.933 233.479 205.091 233.543 203.96C233.565 203.747 233.575 203.32 233.575 202.68C233.575 202.04 233.565 201.613 233.543 201.4C233.479 200.291 233.234 199.459 232.807 198.904C232.381 198.349 231.73 198.072 230.855 198.072C229.981 198.072 229.33 198.349 228.903 198.904C228.477 199.459 228.231 200.291 228.167 201.4L228.135 202.68L228.167 203.96C228.231 205.091 228.477 205.933 228.903 206.488C229.33 207.021 229.981 207.288 230.855 207.288ZM243.312 192.056C243.077 192.056 242.885 191.981 242.736 191.832C242.586 191.661 242.512 191.459 242.512 191.224V188.248C242.512 188.013 242.586 187.821 242.736 187.672C242.906 187.501 243.098 187.416 243.312 187.416H247.312C247.546 187.416 247.738 187.501 247.888 187.672C248.058 187.821 248.144 188.013 248.144 188.248V191.224C248.144 191.459 248.058 191.661 247.888 191.832C247.738 191.981 247.546 192.056 247.312 192.056H243.312ZM243.312 211C243.098 211 242.906 210.925 242.736 210.776C242.586 210.605 242.512 210.413 242.512 210.2V195.16C242.512 194.925 242.586 194.733 242.736 194.584C242.906 194.435 243.098 194.36 243.312 194.36H247.312C247.546 194.36 247.738 194.435 247.888 194.584C248.058 194.733 248.144 194.925 248.144 195.16V210.2C248.144 210.435 248.058 210.627 247.888 210.776C247.738 210.925 247.546 211 247.312 211H243.312ZM252.593 211C252.379 211 252.187 210.925 252.017 210.776C251.867 210.605 251.793 210.413 251.793 210.2V195.16C251.793 194.925 251.867 194.733 252.017 194.584C252.187 194.435 252.379 194.36 252.593 194.36H256.529C256.763 194.36 256.955 194.435 257.105 194.584C257.254 194.733 257.329 194.925 257.329 195.16V196.376C257.905 195.672 258.641 195.107 259.537 194.68C260.454 194.253 261.499 194.04 262.673 194.04C263.889 194.04 264.966 194.317 265.905 194.872C266.865 195.427 267.611 196.248 268.145 197.336C268.699 198.424 268.977 199.736 268.977 201.272V210.2C268.977 210.413 268.902 210.605 268.753 210.776C268.603 210.925 268.411 211 268.177 211H263.921C263.686 211 263.483 210.925 263.313 210.776C263.163 210.627 263.089 210.435 263.089 210.2V201.464C263.089 200.504 262.854 199.768 262.385 199.256C261.937 198.744 261.275 198.488 260.401 198.488C259.547 198.488 258.875 198.755 258.385 199.288C257.894 199.8 257.649 200.525 257.649 201.464V210.2C257.649 210.413 257.574 210.605 257.425 210.776C257.275 210.925 257.083 211 256.849 211H252.593Z" fill="#0D0D2B"/>
<path d="M281.121 207C281.001 207 280.899 206.958 280.815 206.874C280.731 206.79 280.689 206.688 280.689 206.568V194.832C280.689 194.7 280.731 194.598 280.815 194.526C280.899 194.442 281.001 194.4 281.121 194.4H282.813C282.945 194.4 283.047 194.442 283.119 194.526C283.203 194.598 283.245 194.7 283.245 194.832V204.84H288.951C289.083 204.84 289.191 204.882 289.275 204.966C289.359 205.05 289.401 205.152 289.401 205.272V206.568C289.401 206.688 289.359 206.79 289.275 206.874C289.191 206.958 289.083 207 288.951 207H281.121ZM292.313 207C292.193 207 292.091 206.958 292.007 206.874C291.923 206.79 291.881 206.688 291.881 206.568V196.65H288.551C288.431 196.65 288.329 196.608 288.245 196.524C288.161 196.44 288.119 196.332 288.119 196.2V194.85C288.119 194.718 288.155 194.61 288.227 194.526C288.311 194.442 288.419 194.4 288.551 194.4H297.749C297.881 194.4 297.989 194.442 298.073 194.526C298.157 194.61 298.199 194.718 298.199 194.85V196.2C298.199 196.332 298.157 196.44 298.073 196.524C297.989 196.608 297.881 196.65 297.749 196.65H294.437V206.568C294.437 206.688 294.395 206.79 294.311 206.874C294.239 206.958 294.137 207 294.005 207H292.313ZM304.657 207.18C303.001 207.18 301.717 206.76 300.805 205.92C299.905 205.068 299.425 203.862 299.365 202.302C299.353 201.978 299.347 201.45 299.347 200.718C299.347 199.974 299.353 199.434 299.365 199.098C299.425 197.562 299.911 196.368 300.823 195.516C301.735 194.652 303.013 194.22 304.657 194.22C305.725 194.22 306.655 194.406 307.447 194.778C308.239 195.138 308.851 195.636 309.283 196.272C309.727 196.908 309.961 197.622 309.985 198.414V198.45C309.985 198.546 309.943 198.63 309.859 198.702C309.787 198.762 309.703 198.792 309.607 198.792H307.861C307.717 198.792 307.609 198.762 307.537 198.702C307.465 198.63 307.405 198.51 307.357 198.342C307.177 197.598 306.865 197.076 306.421 196.776C305.977 196.464 305.389 196.308 304.657 196.308C302.941 196.308 302.047 197.268 301.975 199.188C301.963 199.512 301.957 200.01 301.957 200.682C301.957 201.354 301.963 201.864 301.975 202.212C302.047 204.132 302.941 205.092 304.657 205.092C305.377 205.092 305.959 204.942 306.403 204.642C306.859 204.33 307.177 203.802 307.357 203.058C307.405 202.89 307.465 202.776 307.537 202.716C307.609 202.644 307.717 202.608 307.861 202.608H309.607C309.715 202.608 309.805 202.644 309.877 202.716C309.961 202.788 309.997 202.878 309.985 202.986C309.961 203.778 309.727 204.492 309.283 205.128C308.851 205.764 308.239 206.268 307.447 206.64C306.655 207 305.725 207.18 304.657 207.18Z" fill="#BDBDBD"/>
<g clip-path="url(#clip0)">
<circle cx="221" cy="89" r="40" fill="white"/>
<path d="M221 49C213.089 49 205.355 51.346 198.777 55.7412C192.199 60.1365 187.072 66.3836 184.045 73.6927C181.017 81.0017 180.225 89.0444 181.769 96.8036C183.312 104.563 187.122 111.69 192.716 117.284C198.31 122.878 205.437 126.688 213.196 128.231C220.956 129.775 228.998 128.983 236.307 125.955C243.616 122.928 249.864 117.801 254.259 111.223C258.654 104.645 261 96.9112 261 89C261 78.3913 256.786 68.2172 249.284 60.7157C241.783 53.2143 231.609 49 221 49V49ZM220.127 61.26H228.74C228.916 61.2602 229.09 61.3012 229.248 61.3796C229.405 61.4581 229.543 61.5719 229.649 61.7123C229.756 61.8527 229.829 62.0158 229.862 62.1888C229.895 62.3619 229.887 62.5403 229.84 62.71L223.073 85.77L229.423 83.83L228.063 88.4467L221.65 90.3133L217.49 104.36H239.743C239.92 104.361 240.093 104.403 240.251 104.482C240.409 104.561 240.546 104.676 240.652 104.817C240.757 104.958 240.829 105.122 240.861 105.295C240.893 105.469 240.885 105.647 240.837 105.817L238.897 112.483C238.804 112.8 238.611 113.079 238.346 113.277C238.082 113.476 237.76 113.583 237.43 113.583H203.443L209.187 94.1767L202.833 96.11L204.233 91.5733L210.6 89.64L218.673 62.3733C218.762 62.0545 218.952 61.7733 219.215 61.5723C219.478 61.3714 219.799 61.2617 220.13 61.26H220.127Z" fill="#59C19C"/>
</g>
<path d="M93.3814 260.16C91.9628 260.16 90.8801 259.776 90.1334 259.008C89.3974 258.229 89.0028 257.168 88.9494 255.824C88.9388 255.536 88.9334 255.067 88.9334 254.416C88.9334 253.755 88.9388 253.275 88.9494 252.976C89.0028 251.632 89.3974 250.576 90.1334 249.808C90.8801 249.029 91.9628 248.64 93.3814 248.64C94.3308 248.64 95.1361 248.811 95.7974 249.152C96.4588 249.483 96.9548 249.92 97.2854 250.464C97.6268 251.008 97.8134 251.589 97.8454 252.208C97.8454 252.304 97.8081 252.384 97.7334 252.448C97.6694 252.501 97.5894 252.528 97.4934 252.528H96.6934C96.5868 252.528 96.5014 252.501 96.4374 252.448C96.3734 252.395 96.3254 252.304 96.2934 252.176C96.1121 251.355 95.7814 250.779 95.3014 250.448C94.8321 250.117 94.1921 249.952 93.3814 249.952C91.5254 249.952 90.5601 250.987 90.4854 253.056C90.4748 253.344 90.4694 253.787 90.4694 254.384C90.4694 254.981 90.4748 255.435 90.4854 255.744C90.5601 257.803 91.5254 258.832 93.3814 258.832C94.1814 258.832 94.8214 258.667 95.3014 258.336C95.7814 258.005 96.1121 257.435 96.2934 256.624C96.3254 256.496 96.3734 256.405 96.4374 256.352C96.5014 256.299 96.5868 256.272 96.6934 256.272H97.4934C97.5894 256.272 97.6694 256.304 97.7334 256.368C97.8081 256.421 97.8454 256.496 97.8454 256.592C97.8134 257.211 97.6268 257.792 97.2854 258.336C96.9548 258.88 96.4588 259.323 95.7974 259.664C95.1361 259.995 94.3308 260.16 93.3814 260.16ZM100.342 260C100.235 260 100.145 259.968 100.07 259.904C100.006 259.829 99.9741 259.739 99.9741 259.632V252.064C99.9741 251.957 100.006 251.867 100.07 251.792C100.145 251.717 100.235 251.68 100.342 251.68H101.014C101.131 251.68 101.222 251.717 101.286 251.792C101.361 251.856 101.398 251.947 101.398 252.064V252.768C101.835 252.043 102.577 251.68 103.622 251.68H104.246C104.363 251.68 104.454 251.712 104.518 251.776C104.582 251.84 104.614 251.931 104.614 252.048V252.64C104.614 252.747 104.582 252.837 104.518 252.912C104.454 252.976 104.363 253.008 104.246 253.008H103.334C102.747 253.008 102.283 253.179 101.942 253.52C101.611 253.861 101.446 254.325 101.446 254.912V259.632C101.446 259.739 101.409 259.829 101.334 259.904C101.259 259.968 101.169 260 101.062 260H100.342ZM107.606 263.04C107.51 263.04 107.43 263.008 107.366 262.944C107.302 262.88 107.27 262.805 107.27 262.72C107.27 262.688 107.296 262.592 107.35 262.432L108.598 259.504L105.542 252.288C105.478 252.16 105.446 252.069 105.446 252.016C105.456 251.92 105.494 251.84 105.558 251.776C105.622 251.712 105.696 251.68 105.782 251.68H106.518C106.688 251.68 106.816 251.765 106.902 251.936L109.366 257.824L111.894 251.936C111.979 251.765 112.107 251.68 112.278 251.68H112.998C113.083 251.68 113.158 251.712 113.222 251.776C113.286 251.84 113.318 251.915 113.318 252C113.318 252.075 113.291 252.171 113.238 252.288L108.71 262.784C108.656 262.869 108.598 262.933 108.534 262.976C108.48 263.019 108.406 263.04 108.31 263.04H107.606ZM115.475 263.04C115.368 263.04 115.278 263.008 115.203 262.944C115.139 262.88 115.107 262.789 115.107 262.672V252.048C115.107 251.931 115.139 251.84 115.203 251.776C115.278 251.712 115.368 251.68 115.475 251.68H116.147C116.264 251.68 116.355 251.712 116.419 251.776C116.483 251.84 116.515 251.931 116.515 252.048V252.752C117.134 251.931 118.014 251.52 119.155 251.52C120.275 251.52 121.112 251.877 121.667 252.592C122.232 253.296 122.531 254.197 122.563 255.296C122.574 255.413 122.579 255.595 122.579 255.84C122.579 256.085 122.574 256.267 122.563 256.384C122.531 257.472 122.232 258.373 121.667 259.088C121.112 259.803 120.275 260.16 119.155 260.16C118.014 260.16 117.15 259.755 116.563 258.944V262.672C116.563 262.779 116.526 262.864 116.451 262.928C116.387 263.003 116.302 263.04 116.195 263.04H115.475ZM118.851 258.912C119.619 258.912 120.179 258.672 120.531 258.192C120.883 257.712 121.075 257.083 121.107 256.304C121.118 256.197 121.123 256.043 121.123 255.84C121.123 253.792 120.366 252.768 118.851 252.768C118.104 252.768 117.539 253.019 117.155 253.52C116.782 254.011 116.584 254.592 116.563 255.264C116.552 255.381 116.547 255.589 116.547 255.888C116.547 256.187 116.552 256.395 116.563 256.512C116.584 257.163 116.787 257.728 117.171 258.208C117.566 258.677 118.126 258.912 118.851 258.912ZM127.857 260C126.204 260 125.377 259.067 125.377 257.2V252.912H124.113C124.007 252.912 123.921 252.88 123.857 252.816C123.793 252.752 123.761 252.667 123.761 252.56V252.048C123.761 251.941 123.793 251.856 123.857 251.792C123.921 251.717 124.007 251.68 124.113 251.68H125.377V249.008C125.377 248.901 125.409 248.816 125.473 248.752C125.537 248.677 125.623 248.64 125.729 248.64H126.433C126.54 248.64 126.625 248.677 126.689 248.752C126.764 248.816 126.801 248.901 126.801 249.008V251.68H128.785C128.892 251.68 128.977 251.717 129.041 251.792C129.116 251.856 129.153 251.941 129.153 252.048V252.56C129.153 252.667 129.116 252.752 129.041 252.816C128.977 252.88 128.892 252.912 128.785 252.912H126.801V257.088C126.801 257.632 126.887 258.043 127.057 258.32C127.239 258.597 127.543 258.736 127.969 258.736H128.945C129.052 258.736 129.137 258.773 129.201 258.848C129.265 258.912 129.297 258.997 129.297 259.104V259.632C129.297 259.739 129.265 259.829 129.201 259.904C129.137 259.968 129.052 260 128.945 260H127.857ZM134.396 260.16C133.223 260.16 132.316 259.829 131.676 259.168C131.047 258.507 130.711 257.627 130.668 256.528L130.652 255.84L130.668 255.152C130.711 254.053 131.052 253.173 131.692 252.512C132.343 251.851 133.244 251.52 134.396 251.52C135.548 251.52 136.444 251.851 137.084 252.512C137.735 253.173 138.082 254.053 138.124 255.152C138.146 255.387 138.156 255.616 138.156 255.84C138.156 256.064 138.146 256.293 138.124 256.528C138.082 257.627 137.74 258.507 137.1 259.168C136.471 259.829 135.57 260.16 134.396 260.16ZM134.396 258.96C135.079 258.96 135.618 258.747 136.012 258.32C136.418 257.883 136.636 257.259 136.668 256.448C136.679 256.341 136.684 256.139 136.684 255.84C136.684 255.541 136.679 255.339 136.668 255.232C136.636 254.421 136.418 253.803 136.012 253.376C135.618 252.939 135.079 252.72 134.396 252.72C133.714 252.72 133.17 252.939 132.764 253.376C132.37 253.803 132.156 254.421 132.124 255.232L132.108 255.84L132.124 256.448C132.156 257.259 132.37 257.883 132.764 258.32C133.17 258.747 133.714 258.96 134.396 258.96ZM143.665 260.16C142.523 260.16 141.633 259.84 140.993 259.2C140.353 258.549 140.017 257.643 139.985 256.48L139.969 255.84L139.985 255.2C140.017 254.037 140.353 253.136 140.993 252.496C141.633 251.845 142.523 251.52 143.665 251.52C144.433 251.52 145.078 251.659 145.601 251.936C146.134 252.203 146.529 252.539 146.785 252.944C147.051 253.349 147.195 253.755 147.217 254.16C147.227 254.256 147.19 254.341 147.105 254.416C147.03 254.491 146.945 254.528 146.849 254.528H146.145C146.038 254.528 145.958 254.507 145.905 254.464C145.851 254.411 145.798 254.32 145.745 254.192C145.553 253.669 145.286 253.301 144.945 253.088C144.614 252.864 144.193 252.752 143.681 252.752C143.009 252.752 142.475 252.96 142.081 253.376C141.686 253.792 141.473 254.427 141.441 255.28L141.425 255.84L141.441 256.4C141.473 257.253 141.686 257.888 142.081 258.304C142.475 258.72 143.009 258.928 143.681 258.928C144.203 258.928 144.63 258.821 144.961 258.608C145.291 258.384 145.553 258.011 145.745 257.488C145.798 257.36 145.851 257.275 145.905 257.232C145.958 257.179 146.038 257.152 146.145 257.152H146.849C146.945 257.152 147.03 257.189 147.105 257.264C147.19 257.339 147.227 257.424 147.217 257.52C147.195 257.915 147.051 258.315 146.785 258.72C146.529 259.125 146.134 259.467 145.601 259.744C145.078 260.021 144.433 260.16 143.665 260.16ZM152.397 260.16C151.384 260.16 150.6 259.835 150.045 259.184C149.491 258.523 149.213 257.648 149.213 256.56V252.048C149.213 251.941 149.245 251.856 149.309 251.792C149.384 251.717 149.475 251.68 149.581 251.68H150.317C150.424 251.68 150.509 251.717 150.573 251.792C150.648 251.856 150.685 251.941 150.685 252.048V256.48C150.685 258.101 151.389 258.912 152.797 258.912C153.48 258.912 154.019 258.699 154.413 258.272C154.819 257.835 155.021 257.237 155.021 256.48V252.048C155.021 251.941 155.053 251.856 155.117 251.792C155.192 251.717 155.283 251.68 155.389 251.68H156.125C156.232 251.68 156.317 251.717 156.381 251.792C156.456 251.856 156.493 251.941 156.493 252.048V259.632C156.493 259.739 156.456 259.829 156.381 259.904C156.317 259.968 156.232 260 156.125 260H155.437C155.331 260 155.24 259.968 155.165 259.904C155.101 259.829 155.069 259.739 155.069 259.632V258.912C154.76 259.328 154.397 259.643 153.981 259.856C153.565 260.059 153.037 260.16 152.397 260.16ZM159.415 260C159.309 260 159.218 259.968 159.143 259.904C159.079 259.829 159.047 259.739 159.047 259.632V252.064C159.047 251.957 159.079 251.867 159.143 251.792C159.218 251.717 159.309 251.68 159.415 251.68H160.087C160.205 251.68 160.295 251.717 160.359 251.792C160.434 251.856 160.471 251.947 160.471 252.064V252.768C160.909 252.043 161.65 251.68 162.695 251.68H163.319C163.437 251.68 163.527 251.712 163.591 251.776C163.655 251.84 163.687 251.931 163.687 252.048V252.64C163.687 252.747 163.655 252.837 163.591 252.912C163.527 252.976 163.437 253.008 163.319 253.008H162.407C161.821 253.008 161.357 253.179 161.015 253.52C160.685 253.861 160.519 254.325 160.519 254.912V259.632C160.519 259.739 160.482 259.829 160.407 259.904C160.333 259.968 160.242 260 160.135 260H159.415ZM165.591 260C165.484 260 165.393 259.968 165.319 259.904C165.255 259.829 165.223 259.739 165.223 259.632V252.064C165.223 251.957 165.255 251.867 165.319 251.792C165.393 251.717 165.484 251.68 165.591 251.68H166.263C166.38 251.68 166.471 251.717 166.535 251.792C166.609 251.856 166.647 251.947 166.647 252.064V252.768C167.084 252.043 167.825 251.68 168.871 251.68H169.495C169.612 251.68 169.703 251.712 169.767 251.776C169.831 251.84 169.863 251.931 169.863 252.048V252.64C169.863 252.747 169.831 252.837 169.767 252.912C169.703 252.976 169.612 253.008 169.495 253.008H168.583C167.996 253.008 167.532 253.179 167.191 253.52C166.86 253.861 166.695 254.325 166.695 254.912V259.632C166.695 259.739 166.657 259.829 166.583 259.904C166.508 259.968 166.417 260 166.311 260H165.591ZM174.538 260.16C173.45 260.16 172.581 259.824 171.93 259.152C171.28 258.469 170.922 257.541 170.858 256.368L170.842 255.824L170.858 255.296C170.922 254.144 171.28 253.227 171.93 252.544C172.581 251.861 173.45 251.52 174.538 251.52C175.712 251.52 176.618 251.893 177.258 252.64C177.909 253.387 178.234 254.4 178.234 255.68V255.968C178.234 256.075 178.197 256.165 178.122 256.24C178.058 256.304 177.973 256.336 177.866 256.336H172.314V256.48C172.346 257.173 172.56 257.765 172.954 258.256C173.349 258.747 173.872 258.992 174.522 258.992C175.024 258.992 175.429 258.896 175.738 258.704C176.058 258.501 176.298 258.293 176.458 258.08C176.554 257.952 176.629 257.877 176.682 257.856C176.736 257.824 176.826 257.808 176.954 257.808H177.658C177.754 257.808 177.834 257.835 177.898 257.888C177.973 257.941 178.01 258.011 178.01 258.096C178.01 258.331 177.866 258.613 177.578 258.944C177.29 259.275 176.88 259.563 176.346 259.808C175.824 260.043 175.221 260.16 174.538 260.16ZM176.778 255.248V255.2C176.778 254.453 176.576 253.845 176.17 253.376C175.765 252.907 175.221 252.672 174.538 252.672C173.845 252.672 173.301 252.907 172.906 253.376C172.512 253.845 172.314 254.453 172.314 255.2V255.248H176.778ZM180.708 260C180.601 260 180.51 259.968 180.436 259.904C180.372 259.829 180.34 259.739 180.34 259.632V252.048C180.34 251.941 180.372 251.856 180.436 251.792C180.51 251.717 180.601 251.68 180.708 251.68H181.396C181.513 251.68 181.604 251.712 181.668 251.776C181.732 251.84 181.764 251.931 181.764 252.048V252.752C182.084 252.357 182.452 252.053 182.868 251.84C183.294 251.627 183.822 251.52 184.452 251.52C185.476 251.52 186.27 251.851 186.836 252.512C187.401 253.163 187.684 254.027 187.684 255.104V259.632C187.684 259.739 187.646 259.829 187.572 259.904C187.508 259.968 187.422 260 187.316 260H186.58C186.473 260 186.382 259.968 186.308 259.904C186.244 259.829 186.212 259.739 186.212 259.632V255.2C186.212 254.432 186.025 253.835 185.652 253.408C185.278 252.981 184.745 252.768 184.052 252.768C183.369 252.768 182.825 252.987 182.42 253.424C182.014 253.851 181.812 254.443 181.812 255.2V259.632C181.812 259.739 181.774 259.829 181.7 259.904C181.636 259.968 181.55 260 181.444 260H180.708ZM193.484 260.16C192.343 260.16 191.452 259.84 190.812 259.2C190.172 258.549 189.836 257.643 189.804 256.48L189.788 255.84L189.804 255.2C189.836 254.037 190.172 253.136 190.812 252.496C191.452 251.845 192.343 251.52 193.484 251.52C194.252 251.52 194.897 251.659 195.42 251.936C195.953 252.203 196.348 252.539 196.604 252.944C196.871 253.349 197.015 253.755 197.036 254.16C197.047 254.256 197.009 254.341 196.924 254.416C196.849 254.491 196.764 254.528 196.668 254.528H195.964C195.857 254.528 195.777 254.507 195.724 254.464C195.671 254.411 195.617 254.32 195.564 254.192C195.372 253.669 195.105 253.301 194.764 253.088C194.433 252.864 194.012 252.752 193.5 252.752C192.828 252.752 192.295 252.96 191.9 253.376C191.505 253.792 191.292 254.427 191.26 255.28L191.244 255.84L191.26 256.4C191.292 257.253 191.505 257.888 191.9 258.304C192.295 258.72 192.828 258.928 193.5 258.928C194.023 258.928 194.449 258.821 194.78 258.608C195.111 258.384 195.372 258.011 195.564 257.488C195.617 257.36 195.671 257.275 195.724 257.232C195.777 257.179 195.857 257.152 195.964 257.152H196.668C196.764 257.152 196.849 257.189 196.924 257.264C197.009 257.339 197.047 257.424 197.036 257.52C197.015 257.915 196.871 258.315 196.604 258.72C196.348 259.125 195.953 259.467 195.42 259.744C194.897 260.021 194.252 260.16 193.484 260.16ZM200.334 263.04C200.238 263.04 200.158 263.008 200.094 262.944C200.03 262.88 199.998 262.805 199.998 262.72C199.998 262.688 200.025 262.592 200.078 262.432L201.326 259.504L198.27 252.288C198.206 252.16 198.174 252.069 198.174 252.016C198.185 251.92 198.222 251.84 198.286 251.776C198.35 251.712 198.425 251.68 198.51 251.68H199.246C199.417 251.68 199.545 251.765 199.63 251.936L202.094 257.824L204.622 251.936C204.708 251.765 204.836 251.68 205.006 251.68H205.726C205.812 251.68 205.886 251.712 205.95 251.776C206.014 251.84 206.046 251.915 206.046 252C206.046 252.075 206.02 252.171 205.966 252.288L201.438 262.784C201.385 262.869 201.326 262.933 201.262 262.976C201.209 263.019 201.134 263.04 201.038 263.04H200.334ZM214.336 260C212.683 260 211.856 259.067 211.856 257.2V252.912H210.592C210.485 252.912 210.4 252.88 210.336 252.816C210.272 252.752 210.24 252.667 210.24 252.56V252.048C210.24 251.941 210.272 251.856 210.336 251.792C210.4 251.717 210.485 251.68 210.592 251.68H211.856V249.008C211.856 248.901 211.888 248.816 211.952 248.752C212.016 248.677 212.101 248.64 212.208 248.64H212.912C213.019 248.64 213.104 248.677 213.168 248.752C213.243 248.816 213.28 248.901 213.28 249.008V251.68H215.264C215.371 251.68 215.456 251.717 215.52 251.792C215.595 251.856 215.632 251.941 215.632 252.048V252.56C215.632 252.667 215.595 252.752 215.52 252.816C215.456 252.88 215.371 252.912 215.264 252.912H213.28V257.088C213.28 257.632 213.365 258.043 213.536 258.32C213.717 258.597 214.021 258.736 214.448 258.736H215.424C215.531 258.736 215.616 258.773 215.68 258.848C215.744 258.912 215.776 258.997 215.776 259.104V259.632C215.776 259.739 215.744 259.829 215.68 259.904C215.616 259.968 215.531 260 215.424 260H214.336ZM217.883 260C217.776 260 217.686 259.968 217.611 259.904C217.547 259.829 217.515 259.739 217.515 259.632V249.008C217.515 248.891 217.547 248.8 217.611 248.736C217.686 248.672 217.776 248.64 217.883 248.64H218.619C218.736 248.64 218.827 248.672 218.891 248.736C218.955 248.8 218.987 248.891 218.987 249.008V252.736C219.296 252.341 219.659 252.043 220.075 251.84C220.502 251.627 221.024 251.52 221.643 251.52C222.667 251.52 223.462 251.851 224.027 252.512C224.603 253.163 224.891 254.027 224.891 255.104V259.632C224.891 259.739 224.854 259.829 224.779 259.904C224.715 259.968 224.63 260 224.523 260H223.771C223.664 260 223.574 259.968 223.499 259.904C223.435 259.829 223.403 259.739 223.403 259.632V255.2C223.403 254.432 223.216 253.835 222.843 253.408C222.47 252.981 221.931 252.768 221.227 252.768C220.544 252.768 220 252.987 219.595 253.424C219.19 253.851 218.987 254.443 218.987 255.2V259.632C218.987 259.739 218.95 259.829 218.875 259.904C218.811 259.968 218.726 260 218.619 260H217.883ZM229.682 260.16C229.159 260.16 228.674 260.053 228.226 259.84C227.788 259.627 227.436 259.339 227.17 258.976C226.914 258.603 226.786 258.192 226.786 257.744C226.786 257.04 227.074 256.464 227.65 256.016C228.226 255.568 229.01 255.269 230.002 255.12L232.402 254.784V254.32C232.402 253.221 231.767 252.672 230.498 252.672C230.007 252.672 229.612 252.773 229.314 252.976C229.015 253.168 228.796 253.397 228.658 253.664C228.615 253.771 228.567 253.845 228.514 253.888C228.471 253.92 228.407 253.936 228.322 253.936H227.698C227.602 253.936 227.516 253.904 227.442 253.84C227.378 253.765 227.346 253.68 227.346 253.584C227.346 253.339 227.458 253.056 227.682 252.736C227.916 252.405 228.274 252.123 228.754 251.888C229.234 251.643 229.82 251.52 230.514 251.52C231.708 251.52 232.562 251.797 233.074 252.352C233.596 252.907 233.858 253.6 233.858 254.432V259.632C233.858 259.739 233.82 259.829 233.746 259.904C233.682 259.968 233.596 260 233.49 260H232.786C232.679 260 232.594 259.968 232.53 259.904C232.466 259.829 232.434 259.739 232.434 259.632V258.928C232.199 259.28 231.858 259.573 231.41 259.808C230.962 260.043 230.386 260.16 229.682 260.16ZM230.002 258.992C230.706 258.992 231.282 258.763 231.73 258.304C232.178 257.845 232.402 257.179 232.402 256.304V255.856L230.53 256.128C229.762 256.235 229.18 256.416 228.786 256.672C228.391 256.928 228.194 257.248 228.194 257.632C228.194 258.069 228.37 258.405 228.722 258.64C229.084 258.875 229.511 258.992 230.002 258.992ZM239.457 260C237.803 260 236.977 259.067 236.977 257.2V252.912H235.713C235.606 252.912 235.521 252.88 235.457 252.816C235.393 252.752 235.361 252.667 235.361 252.56V252.048C235.361 251.941 235.393 251.856 235.457 251.792C235.521 251.717 235.606 251.68 235.713 251.68H236.977V249.008C236.977 248.901 237.009 248.816 237.073 248.752C237.137 248.677 237.222 248.64 237.329 248.64H238.033C238.139 248.64 238.225 248.677 238.289 248.752C238.363 248.816 238.401 248.901 238.401 249.008V251.68H240.385C240.491 251.68 240.577 251.717 240.641 251.792C240.715 251.856 240.753 251.941 240.753 252.048V252.56C240.753 252.667 240.715 252.752 240.641 252.816C240.577 252.88 240.491 252.912 240.385 252.912H238.401V257.088C238.401 257.632 238.486 258.043 238.657 258.32C238.838 258.597 239.142 258.736 239.569 258.736H240.545C240.651 258.736 240.737 258.773 240.801 258.848C240.865 258.912 240.897 258.997 240.897 259.104V259.632C240.897 259.739 240.865 259.829 240.801 259.904C240.737 259.968 240.651 260 240.545 260H239.457ZM250.013 260.16C248.925 260.16 248.056 259.824 247.405 259.152C246.755 258.469 246.397 257.541 246.333 256.368L246.317 255.824L246.333 255.296C246.397 254.144 246.755 253.227 247.405 252.544C248.056 251.861 248.925 251.52 250.013 251.52C251.187 251.52 252.093 251.893 252.733 252.64C253.384 253.387 253.709 254.4 253.709 255.68V255.968C253.709 256.075 253.672 256.165 253.597 256.24C253.533 256.304 253.448 256.336 253.341 256.336H247.789V256.48C247.821 257.173 248.035 257.765 248.429 258.256C248.824 258.747 249.347 258.992 249.997 258.992C250.499 258.992 250.904 258.896 251.213 258.704C251.533 258.501 251.773 258.293 251.933 258.08C252.029 257.952 252.104 257.877 252.157 257.856C252.211 257.824 252.301 257.808 252.429 257.808H253.133C253.229 257.808 253.309 257.835 253.373 257.888C253.448 257.941 253.485 258.011 253.485 258.096C253.485 258.331 253.341 258.613 253.053 258.944C252.765 259.275 252.355 259.563 251.821 259.808C251.299 260.043 250.696 260.16 250.013 260.16ZM252.253 255.248V255.2C252.253 254.453 252.051 253.845 251.645 253.376C251.24 252.907 250.696 252.672 250.013 252.672C249.32 252.672 248.776 252.907 248.381 253.376C247.987 253.845 247.789 254.453 247.789 255.2V255.248H252.253ZM256.183 260C256.076 260 255.985 259.968 255.911 259.904C255.847 259.829 255.815 259.739 255.815 259.632V252.048C255.815 251.941 255.847 251.856 255.911 251.792C255.985 251.717 256.076 251.68 256.183 251.68H256.871C256.988 251.68 257.079 251.712 257.143 251.776C257.207 251.84 257.239 251.931 257.239 252.048V252.752C257.559 252.357 257.927 252.053 258.343 251.84C258.769 251.627 259.297 251.52 259.927 251.52C260.951 251.52 261.745 251.851 262.311 252.512C262.876 253.163 263.159 254.027 263.159 255.104V259.632C263.159 259.739 263.121 259.829 263.047 259.904C262.983 259.968 262.897 260 262.791 260H262.055C261.948 260 261.857 259.968 261.783 259.904C261.719 259.829 261.687 259.739 261.687 259.632V255.2C261.687 254.432 261.5 253.835 261.127 253.408C260.753 252.981 260.22 252.768 259.527 252.768C258.844 252.768 258.3 252.987 257.895 253.424C257.489 253.851 257.287 254.443 257.287 255.2V259.632C257.287 259.739 257.249 259.829 257.175 259.904C257.111 259.968 257.025 260 256.919 260H256.183ZM267.935 260.16C267.412 260.16 266.927 260.053 266.479 259.84C266.042 259.627 265.69 259.339 265.423 258.976C265.167 258.603 265.039 258.192 265.039 257.744C265.039 257.04 265.327 256.464 265.903 256.016C266.479 255.568 267.263 255.269 268.255 255.12L270.655 254.784V254.32C270.655 253.221 270.02 252.672 268.751 252.672C268.26 252.672 267.866 252.773 267.567 252.976C267.268 253.168 267.05 253.397 266.911 253.664C266.868 253.771 266.82 253.845 266.767 253.888C266.724 253.92 266.66 253.936 266.575 253.936H265.951C265.855 253.936 265.77 253.904 265.695 253.84C265.631 253.765 265.599 253.68 265.599 253.584C265.599 253.339 265.711 253.056 265.935 252.736C266.17 252.405 266.527 252.123 267.007 251.888C267.487 251.643 268.074 251.52 268.767 251.52C269.962 251.52 270.815 251.797 271.327 252.352C271.85 252.907 272.111 253.6 272.111 254.432V259.632C272.111 259.739 272.074 259.829 271.999 259.904C271.935 259.968 271.85 260 271.743 260H271.039C270.932 260 270.847 259.968 270.783 259.904C270.719 259.829 270.687 259.739 270.687 259.632V258.928C270.452 259.28 270.111 259.573 269.663 259.808C269.215 260.043 268.639 260.16 267.935 260.16ZM268.255 258.992C268.959 258.992 269.535 258.763 269.983 258.304C270.431 257.845 270.655 257.179 270.655 256.304V255.856L268.783 256.128C268.015 256.235 267.434 256.416 267.039 256.672C266.644 256.928 266.447 257.248 266.447 257.632C266.447 258.069 266.623 258.405 266.975 258.64C267.338 258.875 267.764 258.992 268.255 258.992ZM278.652 260.16C277.5 260.16 276.62 259.755 276.012 258.944V259.632C276.012 259.739 275.974 259.829 275.9 259.904C275.836 259.968 275.75 260 275.644 260H274.972C274.865 260 274.774 259.968 274.7 259.904C274.636 259.829 274.604 259.739 274.604 259.632V249.008C274.604 248.891 274.636 248.8 274.7 248.736C274.774 248.672 274.865 248.64 274.972 248.64H275.692C275.798 248.64 275.884 248.677 275.948 248.752C276.022 248.816 276.06 248.901 276.06 249.008V252.704C276.657 251.915 277.521 251.52 278.652 251.52C279.772 251.52 280.609 251.888 281.164 252.624C281.729 253.349 282.028 254.261 282.06 255.36C282.07 255.477 282.076 255.637 282.076 255.84C282.076 256.043 282.07 256.203 282.06 256.32C282.028 257.419 281.729 258.336 281.164 259.072C280.609 259.797 279.772 260.16 278.652 260.16ZM278.348 258.912C279.116 258.912 279.676 258.672 280.028 258.192C280.38 257.712 280.572 257.083 280.604 256.304C280.614 256.197 280.62 256.043 280.62 255.84C280.62 253.792 279.862 252.768 278.348 252.768C277.622 252.768 277.062 253.008 276.668 253.488C276.284 253.957 276.081 254.517 276.06 255.168C276.049 255.285 276.044 255.493 276.044 255.792C276.044 256.08 276.049 256.283 276.06 256.4C276.081 257.083 276.278 257.675 276.652 258.176C277.036 258.667 277.601 258.912 278.348 258.912ZM284.632 260C284.525 260 284.434 259.968 284.36 259.904C284.296 259.829 284.264 259.739 284.264 259.632V249.008C284.264 248.891 284.296 248.8 284.36 248.736C284.434 248.672 284.525 248.64 284.632 248.64H285.336C285.442 248.64 285.528 248.677 285.592 248.752C285.666 248.816 285.704 248.901 285.704 249.008V259.632C285.704 259.739 285.666 259.829 285.592 259.904C285.528 259.968 285.442 260 285.336 260H284.632ZM291.563 260.16C290.475 260.16 289.606 259.824 288.955 259.152C288.305 258.469 287.947 257.541 287.883 256.368L287.867 255.824L287.883 255.296C287.947 254.144 288.305 253.227 288.955 252.544C289.606 251.861 290.475 251.52 291.563 251.52C292.737 251.52 293.643 251.893 294.283 252.64C294.934 253.387 295.259 254.4 295.259 255.68V255.968C295.259 256.075 295.222 256.165 295.147 256.24C295.083 256.304 294.998 256.336 294.891 256.336H289.339V256.48C289.371 257.173 289.585 257.765 289.979 258.256C290.374 258.747 290.897 258.992 291.547 258.992C292.049 258.992 292.454 258.896 292.763 258.704C293.083 258.501 293.323 258.293 293.483 258.08C293.579 257.952 293.654 257.877 293.707 257.856C293.761 257.824 293.851 257.808 293.979 257.808H294.683C294.779 257.808 294.859 257.835 294.923 257.888C294.998 257.941 295.035 258.011 295.035 258.096C295.035 258.331 294.891 258.613 294.603 258.944C294.315 259.275 293.905 259.563 293.371 259.808C292.849 260.043 292.246 260.16 291.563 260.16ZM293.803 255.248V255.2C293.803 254.453 293.601 253.845 293.195 253.376C292.79 252.907 292.246 252.672 291.563 252.672C290.87 252.672 290.326 252.907 289.931 253.376C289.537 253.845 289.339 254.453 289.339 255.2V255.248H293.803ZM300.213 260.16C299.477 260.16 298.853 260.043 298.341 259.808C297.839 259.563 297.466 259.285 297.221 258.976C296.975 258.667 296.853 258.411 296.853 258.208C296.853 258.101 296.89 258.021 296.965 257.968C297.039 257.904 297.119 257.872 297.205 257.872H297.877C297.941 257.872 297.989 257.883 298.021 257.904C298.063 257.925 298.117 257.973 298.181 258.048C298.426 258.347 298.698 258.581 298.997 258.752C299.306 258.923 299.717 259.008 300.229 259.008C300.805 259.008 301.263 258.901 301.605 258.688C301.957 258.475 302.133 258.165 302.133 257.76C302.133 257.493 302.058 257.28 301.909 257.12C301.759 256.96 301.509 256.816 301.157 256.688C300.815 256.56 300.303 256.421 299.621 256.272C298.693 256.069 298.037 255.776 297.653 255.392C297.269 255.008 297.077 254.512 297.077 253.904C297.077 253.509 297.194 253.131 297.429 252.768C297.663 252.395 298.01 252.096 298.469 251.872C298.938 251.637 299.493 251.52 300.133 251.52C300.805 251.52 301.375 251.632 301.845 251.856C302.325 252.08 302.682 252.341 302.917 252.64C303.162 252.939 303.285 253.189 303.285 253.392C303.285 253.488 303.247 253.568 303.173 253.632C303.109 253.696 303.029 253.728 302.933 253.728H302.325C302.175 253.728 302.069 253.669 302.005 253.552C301.823 253.349 301.669 253.195 301.541 253.088C301.423 252.971 301.247 252.875 301.013 252.8C300.778 252.715 300.485 252.672 300.133 252.672C299.61 252.672 299.21 252.784 298.933 253.008C298.655 253.221 298.517 253.509 298.517 253.872C298.517 254.096 298.575 254.288 298.693 254.448C298.81 254.597 299.034 254.741 299.365 254.88C299.695 255.008 300.186 255.141 300.837 255.28C301.85 255.493 302.565 255.797 302.981 256.192C303.407 256.587 303.621 257.093 303.621 257.712C303.621 258.171 303.487 258.587 303.221 258.96C302.965 259.333 302.575 259.627 302.053 259.84C301.541 260.053 300.927 260.16 300.213 260.16ZM309.987 250.112C309.881 250.112 309.79 250.08 309.715 250.016C309.651 249.941 309.619 249.851 309.619 249.744V248.912C309.619 248.805 309.651 248.715 309.715 248.64C309.79 248.565 309.881 248.528 309.987 248.528H310.931C311.038 248.528 311.129 248.565 311.203 248.64C311.278 248.715 311.315 248.805 311.315 248.912V249.744C311.315 249.851 311.278 249.941 311.203 250.016C311.129 250.08 311.038 250.112 310.931 250.112H309.987ZM310.115 260C310.009 260 309.918 259.968 309.843 259.904C309.779 259.829 309.747 259.739 309.747 259.632V252.048C309.747 251.941 309.779 251.856 309.843 251.792C309.918 251.717 310.009 251.68 310.115 251.68H310.819C310.926 251.68 311.011 251.717 311.075 251.792C311.15 251.856 311.187 251.941 311.187 252.048V259.632C311.187 259.739 311.15 259.829 311.075 259.904C311.011 259.968 310.926 260 310.819 260H310.115ZM314.119 260C314.012 260 313.922 259.968 313.847 259.904C313.783 259.829 313.751 259.739 313.751 259.632V252.048C313.751 251.941 313.783 251.856 313.847 251.792C313.922 251.717 314.012 251.68 314.119 251.68H314.807C314.924 251.68 315.015 251.712 315.079 251.776C315.143 251.84 315.175 251.931 315.175 252.048V252.752C315.495 252.357 315.863 252.053 316.279 251.84C316.706 251.627 317.234 251.52 317.863 251.52C318.887 251.52 319.682 251.851 320.247 252.512C320.812 253.163 321.095 254.027 321.095 255.104V259.632C321.095 259.739 321.058 259.829 320.983 259.904C320.919 259.968 320.834 260 320.727 260H319.991C319.884 260 319.794 259.968 319.719 259.904C319.655 259.829 319.623 259.739 319.623 259.632V255.2C319.623 254.432 319.436 253.835 319.063 253.408C318.69 252.981 318.156 252.768 317.463 252.768C316.78 252.768 316.236 252.987 315.831 253.424C315.426 253.851 315.223 254.443 315.223 255.2V259.632C315.223 259.739 315.186 259.829 315.111 259.904C315.047 259.968 314.962 260 314.855 260H314.119ZM326.415 260.16C325.679 260.16 325.055 260.043 324.543 259.808C324.042 259.563 323.669 259.285 323.423 258.976C323.178 258.667 323.055 258.411 323.055 258.208C323.055 258.101 323.093 258.021 323.167 257.968C323.242 257.904 323.322 257.872 323.407 257.872H324.079C324.143 257.872 324.191 257.883 324.223 257.904C324.266 257.925 324.319 257.973 324.383 258.048C324.629 258.347 324.901 258.581 325.199 258.752C325.509 258.923 325.919 259.008 326.431 259.008C327.007 259.008 327.466 258.901 327.807 258.688C328.159 258.475 328.335 258.165 328.335 257.76C328.335 257.493 328.261 257.28 328.111 257.12C327.962 256.96 327.711 256.816 327.359 256.688C327.018 256.56 326.506 256.421 325.823 256.272C324.895 256.069 324.239 255.776 323.855 255.392C323.471 255.008 323.279 254.512 323.279 253.904C323.279 253.509 323.397 253.131 323.631 252.768C323.866 252.395 324.213 252.096 324.671 251.872C325.141 251.637 325.695 251.52 326.335 251.52C327.007 251.52 327.578 251.632 328.047 251.856C328.527 252.08 328.885 252.341 329.119 252.64C329.365 252.939 329.487 253.189 329.487 253.392C329.487 253.488 329.45 253.568 329.375 253.632C329.311 253.696 329.231 253.728 329.135 253.728H328.527C328.378 253.728 328.271 253.669 328.207 253.552C328.026 253.349 327.871 253.195 327.743 253.088C327.626 252.971 327.45 252.875 327.215 252.8C326.981 252.715 326.687 252.672 326.335 252.672C325.813 252.672 325.413 252.784 325.135 253.008C324.858 253.221 324.719 253.509 324.719 253.872C324.719 254.096 324.778 254.288 324.895 254.448C325.013 254.597 325.237 254.741 325.567 254.88C325.898 255.008 326.389 255.141 327.039 255.28C328.053 255.493 328.767 255.797 329.183 256.192C329.61 256.587 329.823 257.093 329.823 257.712C329.823 258.171 329.69 258.587 329.423 258.96C329.167 259.333 328.778 259.627 328.255 259.84C327.743 260.053 327.13 260.16 326.415 260.16ZM335.037 260C333.383 260 332.557 259.067 332.557 257.2V252.912H331.293C331.186 252.912 331.101 252.88 331.037 252.816C330.973 252.752 330.941 252.667 330.941 252.56V252.048C330.941 251.941 330.973 251.856 331.037 251.792C331.101 251.717 331.186 251.68 331.293 251.68H332.557V249.008C332.557 248.901 332.589 248.816 332.653 248.752C332.717 248.677 332.802 248.64 332.909 248.64H333.613C333.719 248.64 333.805 248.677 333.869 248.752C333.943 248.816 333.981 248.901 333.981 249.008V251.68H335.965C336.071 251.68 336.157 251.717 336.221 251.792C336.295 251.856 336.333 251.941 336.333 252.048V252.56C336.333 252.667 336.295 252.752 336.221 252.816C336.157 252.88 336.071 252.912 335.965 252.912H333.981V257.088C333.981 257.632 334.066 258.043 334.237 258.32C334.418 258.597 334.722 258.736 335.149 258.736H336.125C336.231 258.736 336.317 258.773 336.381 258.848C336.445 258.912 336.477 258.997 336.477 259.104V259.632C336.477 259.739 336.445 259.829 336.381 259.904C336.317 259.968 336.231 260 336.125 260H335.037ZM340.504 260.16C339.981 260.16 339.496 260.053 339.048 259.84C338.61 259.627 338.258 259.339 337.992 258.976C337.736 258.603 337.608 258.192 337.608 257.744C337.608 257.04 337.896 256.464 338.472 256.016C339.048 255.568 339.832 255.269 340.824 255.12L343.224 254.784V254.32C343.224 253.221 342.589 252.672 341.32 252.672C340.829 252.672 340.434 252.773 340.136 252.976C339.837 253.168 339.618 253.397 339.48 253.664C339.437 253.771 339.389 253.845 339.336 253.888C339.293 253.92 339.229 253.936 339.144 253.936H338.52C338.424 253.936 338.338 253.904 338.264 253.84C338.2 253.765 338.168 253.68 338.168 253.584C338.168 253.339 338.28 253.056 338.504 252.736C338.738 252.405 339.096 252.123 339.576 251.888C340.056 251.643 340.642 251.52 341.336 251.52C342.53 251.52 343.384 251.797 343.896 252.352C344.418 252.907 344.68 253.6 344.68 254.432V259.632C344.68 259.739 344.642 259.829 344.568 259.904C344.504 259.968 344.418 260 344.312 260H343.608C343.501 260 343.416 259.968 343.352 259.904C343.288 259.829 343.256 259.739 343.256 259.632V258.928C343.021 259.28 342.68 259.573 342.232 259.808C341.784 260.043 341.208 260.16 340.504 260.16ZM340.824 258.992C341.528 258.992 342.104 258.763 342.552 258.304C343 257.845 343.224 257.179 343.224 256.304V255.856L341.352 256.128C340.584 256.235 340.002 256.416 339.608 256.672C339.213 256.928 339.016 257.248 339.016 257.632C339.016 258.069 339.192 258.405 339.544 258.64C339.906 258.875 340.333 258.992 340.824 258.992ZM347.525 260C347.418 260 347.327 259.968 347.253 259.904C347.189 259.829 347.157 259.739 347.157 259.632V252.048C347.157 251.941 347.189 251.856 347.253 251.792C347.327 251.717 347.418 251.68 347.525 251.68H348.213C348.33 251.68 348.421 251.712 348.485 251.776C348.549 251.84 348.581 251.931 348.581 252.048V252.752C348.901 252.357 349.269 252.053 349.685 251.84C350.111 251.627 350.639 251.52 351.269 251.52C352.293 251.52 353.087 251.851 353.653 252.512C354.218 253.163 354.501 254.027 354.501 255.104V259.632C354.501 259.739 354.463 259.829 354.389 259.904C354.325 259.968 354.239 260 354.133 260H353.397C353.29 260 353.199 259.968 353.125 259.904C353.061 259.829 353.029 259.739 353.029 259.632V255.2C353.029 254.432 352.842 253.835 352.469 253.408C352.095 252.981 351.562 252.768 350.869 252.768C350.186 252.768 349.642 252.987 349.237 253.424C348.831 253.851 348.629 254.443 348.629 255.2V259.632C348.629 259.739 348.591 259.829 348.517 259.904C348.453 259.968 348.367 260 348.261 260H347.525ZM360.063 260C358.41 260 357.583 259.067 357.583 257.2V252.912H356.319C356.213 252.912 356.127 252.88 356.063 252.816C355.999 252.752 355.967 252.667 355.967 252.56V252.048C355.967 251.941 355.999 251.856 356.063 251.792C356.127 251.717 356.213 251.68 356.319 251.68H357.583V249.008C357.583 248.901 357.615 248.816 357.679 248.752C357.743 248.677 357.829 248.64 357.935 248.64H358.639C358.746 248.64 358.831 248.677 358.895 248.752C358.97 248.816 359.007 248.901 359.007 249.008V251.68H360.991C361.098 251.68 361.183 251.717 361.247 251.792C361.322 251.856 361.359 251.941 361.359 252.048V252.56C361.359 252.667 361.322 252.752 361.247 252.816C361.183 252.88 361.098 252.912 360.991 252.912H359.007V257.088C359.007 257.632 359.093 258.043 359.263 258.32C359.445 258.597 359.749 258.736 360.175 258.736H361.151C361.258 258.736 361.343 258.773 361.407 258.848C361.471 258.912 361.503 258.997 361.503 259.104V259.632C361.503 259.739 361.471 259.829 361.407 259.904C361.343 259.968 361.258 260 361.151 260H360.063ZM101.19 291.04C101.083 291.04 100.993 291.008 100.918 290.944C100.854 290.88 100.822 290.789 100.822 290.672V280.048C100.822 279.931 100.854 279.84 100.918 279.776C100.993 279.712 101.083 279.68 101.19 279.68H101.862C101.979 279.68 102.07 279.712 102.134 279.776C102.198 279.84 102.23 279.931 102.23 280.048V280.752C102.849 279.931 103.729 279.52 104.87 279.52C105.99 279.52 106.827 279.877 107.382 280.592C107.947 281.296 108.246 282.197 108.278 283.296C108.289 283.413 108.294 283.595 108.294 283.84C108.294 284.085 108.289 284.267 108.278 284.384C108.246 285.472 107.947 286.373 107.382 287.088C106.827 287.803 105.99 288.16 104.87 288.16C103.729 288.16 102.865 287.755 102.278 286.944V290.672C102.278 290.779 102.241 290.864 102.166 290.928C102.102 291.003 102.017 291.04 101.91 291.04H101.19ZM104.566 286.912C105.334 286.912 105.894 286.672 106.246 286.192C106.598 285.712 106.79 285.083 106.822 284.304C106.833 284.197 106.838 284.043 106.838 283.84C106.838 281.792 106.081 280.768 104.566 280.768C103.819 280.768 103.254 281.019 102.87 281.52C102.497 282.011 102.299 282.592 102.278 283.264C102.267 283.381 102.262 283.589 102.262 283.888C102.262 284.187 102.267 284.395 102.278 284.512C102.299 285.163 102.502 285.728 102.886 286.208C103.281 286.677 103.841 286.912 104.566 286.912ZM112.77 288.16C112.247 288.16 111.762 288.053 111.314 287.84C110.877 287.627 110.525 287.339 110.258 286.976C110.002 286.603 109.874 286.192 109.874 285.744C109.874 285.04 110.162 284.464 110.738 284.016C111.314 283.568 112.098 283.269 113.09 283.12L115.49 282.784V282.32C115.49 281.221 114.855 280.672 113.586 280.672C113.095 280.672 112.701 280.773 112.402 280.976C112.103 281.168 111.885 281.397 111.746 281.664C111.703 281.771 111.655 281.845 111.602 281.888C111.559 281.92 111.495 281.936 111.41 281.936H110.786C110.69 281.936 110.605 281.904 110.53 281.84C110.466 281.765 110.434 281.68 110.434 281.584C110.434 281.339 110.546 281.056 110.77 280.736C111.005 280.405 111.362 280.123 111.842 279.888C112.322 279.643 112.909 279.52 113.602 279.52C114.797 279.52 115.65 279.797 116.162 280.352C116.685 280.907 116.946 281.6 116.946 282.432V287.632C116.946 287.739 116.909 287.829 116.834 287.904C116.77 287.968 116.685 288 116.578 288H115.874C115.767 288 115.682 287.968 115.618 287.904C115.554 287.829 115.522 287.739 115.522 287.632V286.928C115.287 287.28 114.946 287.573 114.498 287.808C114.05 288.043 113.474 288.16 112.77 288.16ZM113.09 286.992C113.794 286.992 114.37 286.763 114.818 286.304C115.266 285.845 115.49 285.179 115.49 284.304V283.856L113.618 284.128C112.85 284.235 112.269 284.416 111.874 284.672C111.479 284.928 111.282 285.248 111.282 285.632C111.282 286.069 111.458 286.405 111.81 286.64C112.173 286.875 112.599 286.992 113.09 286.992ZM120.707 291.04C120.611 291.04 120.531 291.008 120.467 290.944C120.403 290.88 120.371 290.805 120.371 290.72C120.371 290.688 120.398 290.592 120.451 290.432L121.699 287.504L118.643 280.288C118.579 280.16 118.547 280.069 118.547 280.016C118.558 279.92 118.595 279.84 118.659 279.776C118.723 279.712 118.798 279.68 118.883 279.68H119.619C119.79 279.68 119.918 279.765 120.003 279.936L122.467 285.824L124.995 279.936C125.08 279.765 125.208 279.68 125.379 279.68H126.099C126.184 279.68 126.259 279.712 126.323 279.776C126.387 279.84 126.419 279.915 126.419 280C126.419 280.075 126.392 280.171 126.339 280.288L121.811 290.784C121.758 290.869 121.699 290.933 121.635 290.976C121.582 291.019 121.507 291.04 121.411 291.04H120.707ZM128.56 288C128.454 288 128.363 287.968 128.288 287.904C128.224 287.829 128.192 287.739 128.192 287.632V280.048C128.192 279.941 128.224 279.856 128.288 279.792C128.363 279.717 128.454 279.68 128.56 279.68H129.232C129.339 279.68 129.424 279.717 129.488 279.792C129.552 279.856 129.584 279.941 129.584 280.048V280.592C130.16 279.877 130.939 279.52 131.92 279.52C133.094 279.52 133.926 280.011 134.416 280.992C134.672 280.544 135.035 280.187 135.504 279.92C135.984 279.653 136.518 279.52 137.104 279.52C137.979 279.52 138.694 279.819 139.248 280.416C139.803 281.013 140.08 281.877 140.08 283.008V287.632C140.08 287.739 140.043 287.829 139.968 287.904C139.904 287.968 139.819 288 139.712 288H139.024C138.918 288 138.827 287.968 138.752 287.904C138.688 287.829 138.656 287.739 138.656 287.632V283.152C138.656 282.299 138.48 281.691 138.128 281.328C137.776 280.955 137.312 280.768 136.736 280.768C136.224 280.768 135.782 280.96 135.408 281.344C135.046 281.717 134.864 282.32 134.864 283.152V287.632C134.864 287.739 134.827 287.829 134.752 287.904C134.688 287.968 134.603 288 134.496 288H133.792C133.686 288 133.595 287.968 133.52 287.904C133.456 287.829 133.424 287.739 133.424 287.632V283.152C133.424 282.309 133.238 281.701 132.864 281.328C132.502 280.955 132.048 280.768 131.504 280.768C130.992 280.768 130.55 280.955 130.176 281.328C129.814 281.701 129.632 282.304 129.632 283.136V287.632C129.632 287.739 129.595 287.829 129.52 287.904C129.456 287.968 129.371 288 129.264 288H128.56ZM145.851 288.16C144.763 288.16 143.894 287.824 143.243 287.152C142.593 286.469 142.235 285.541 142.171 284.368L142.155 283.824L142.171 283.296C142.235 282.144 142.593 281.227 143.243 280.544C143.894 279.861 144.763 279.52 145.851 279.52C147.025 279.52 147.931 279.893 148.571 280.64C149.222 281.387 149.547 282.4 149.547 283.68V283.968C149.547 284.075 149.51 284.165 149.435 284.24C149.371 284.304 149.286 284.336 149.179 284.336H143.627V284.48C143.659 285.173 143.873 285.765 144.267 286.256C144.662 286.747 145.185 286.992 145.835 286.992C146.337 286.992 146.742 286.896 147.051 286.704C147.371 286.501 147.611 286.293 147.771 286.08C147.867 285.952 147.942 285.877 147.995 285.856C148.049 285.824 148.139 285.808 148.267 285.808H148.971C149.067 285.808 149.147 285.835 149.211 285.888C149.286 285.941 149.323 286.011 149.323 286.096C149.323 286.331 149.179 286.613 148.891 286.944C148.603 287.275 148.193 287.563 147.659 287.808C147.137 288.043 146.534 288.16 145.851 288.16ZM148.091 283.248V283.2C148.091 282.453 147.889 281.845 147.483 281.376C147.078 280.907 146.534 280.672 145.851 280.672C145.158 280.672 144.614 280.907 144.219 281.376C143.825 281.845 143.627 282.453 143.627 283.2V283.248H148.091ZM152.021 288C151.914 288 151.823 287.968 151.749 287.904C151.685 287.829 151.653 287.739 151.653 287.632V280.048C151.653 279.941 151.685 279.856 151.749 279.792C151.823 279.717 151.914 279.68 152.021 279.68H152.709C152.826 279.68 152.917 279.712 152.981 279.776C153.045 279.84 153.077 279.931 153.077 280.048V280.752C153.397 280.357 153.765 280.053 154.181 279.84C154.607 279.627 155.135 279.52 155.765 279.52C156.789 279.52 157.583 279.851 158.149 280.512C158.714 281.163 158.997 282.027 158.997 283.104V287.632C158.997 287.739 158.959 287.829 158.885 287.904C158.821 287.968 158.735 288 158.629 288H157.893C157.786 288 157.695 287.968 157.621 287.904C157.557 287.829 157.525 287.739 157.525 287.632V283.2C157.525 282.432 157.338 281.835 156.965 281.408C156.591 280.981 156.058 280.768 155.365 280.768C154.682 280.768 154.138 280.987 153.733 281.424C153.327 281.851 153.125 282.443 153.125 283.2V287.632C153.125 287.739 153.087 287.829 153.013 287.904C152.949 287.968 152.863 288 152.757 288H152.021ZM164.56 288C162.906 288 162.08 287.067 162.08 285.2V280.912H160.816C160.709 280.912 160.624 280.88 160.56 280.816C160.496 280.752 160.464 280.667 160.464 280.56V280.048C160.464 279.941 160.496 279.856 160.56 279.792C160.624 279.717 160.709 279.68 160.816 279.68H162.08V277.008C162.08 276.901 162.112 276.816 162.176 276.752C162.24 276.677 162.325 276.64 162.432 276.64H163.136C163.242 276.64 163.328 276.677 163.392 276.752C163.466 276.816 163.504 276.901 163.504 277.008V279.68H165.488C165.594 279.68 165.68 279.717 165.744 279.792C165.818 279.856 165.856 279.941 165.856 280.048V280.56C165.856 280.667 165.818 280.752 165.744 280.816C165.68 280.88 165.594 280.912 165.488 280.912H163.504V285.088C163.504 285.632 163.589 286.043 163.76 286.32C163.941 286.597 164.245 286.736 164.672 286.736H165.648C165.754 286.736 165.84 286.773 165.904 286.848C165.968 286.912 166 286.997 166 287.104V287.632C166 287.739 165.968 287.829 165.904 287.904C165.84 287.968 165.754 288 165.648 288H164.56ZM170.571 288.16C169.835 288.16 169.211 288.043 168.699 287.808C168.197 287.563 167.824 287.285 167.579 286.976C167.333 286.667 167.211 286.411 167.211 286.208C167.211 286.101 167.248 286.021 167.323 285.968C167.397 285.904 167.477 285.872 167.563 285.872H168.235C168.299 285.872 168.347 285.883 168.379 285.904C168.421 285.925 168.475 285.973 168.539 286.048C168.784 286.347 169.056 286.581 169.355 286.752C169.664 286.923 170.075 287.008 170.587 287.008C171.163 287.008 171.621 286.901 171.963 286.688C172.315 286.475 172.491 286.165 172.491 285.76C172.491 285.493 172.416 285.28 172.267 285.12C172.117 284.96 171.867 284.816 171.515 284.688C171.173 284.56 170.661 284.421 169.979 284.272C169.051 284.069 168.395 283.776 168.011 283.392C167.627 283.008 167.435 282.512 167.435 281.904C167.435 281.509 167.552 281.131 167.787 280.768C168.021 280.395 168.368 280.096 168.827 279.872C169.296 279.637 169.851 279.52 170.491 279.52C171.163 279.52 171.733 279.632 172.203 279.856C172.683 280.08 173.04 280.341 173.275 280.64C173.52 280.939 173.643 281.189 173.643 281.392C173.643 281.488 173.605 281.568 173.531 281.632C173.467 281.696 173.387 281.728 173.291 281.728H172.683C172.533 281.728 172.427 281.669 172.363 281.552C172.181 281.349 172.027 281.195 171.899 281.088C171.781 280.971 171.605 280.875 171.371 280.8C171.136 280.715 170.843 280.672 170.491 280.672C169.968 280.672 169.568 280.784 169.291 281.008C169.013 281.221 168.875 281.509 168.875 281.872C168.875 282.096 168.933 282.288 169.051 282.448C169.168 282.597 169.392 282.741 169.723 282.88C170.053 283.008 170.544 283.141 171.195 283.28C172.208 283.493 172.923 283.797 173.339 284.192C173.765 284.587 173.979 285.093 173.979 285.712C173.979 286.171 173.845 286.587 173.579 286.96C173.323 287.333 172.933 287.627 172.411 287.84C171.899 288.053 171.285 288.16 170.571 288.16ZM182.962 288C181.308 288 180.482 287.067 180.482 285.2V280.912H179.218C179.111 280.912 179.026 280.88 178.962 280.816C178.898 280.752 178.866 280.667 178.866 280.56V280.048C178.866 279.941 178.898 279.856 178.962 279.792C179.026 279.717 179.111 279.68 179.218 279.68H180.482V277.008C180.482 276.901 180.514 276.816 180.578 276.752C180.642 276.677 180.727 276.64 180.834 276.64H181.538C181.644 276.64 181.73 276.677 181.794 276.752C181.868 276.816 181.906 276.901 181.906 277.008V279.68H183.89C183.996 279.68 184.082 279.717 184.146 279.792C184.22 279.856 184.258 279.941 184.258 280.048V280.56C184.258 280.667 184.22 280.752 184.146 280.816C184.082 280.88 183.996 280.912 183.89 280.912H181.906V285.088C181.906 285.632 181.991 286.043 182.162 286.32C182.343 286.597 182.647 286.736 183.074 286.736H184.05C184.156 286.736 184.242 286.773 184.306 286.848C184.37 286.912 184.402 286.997 184.402 287.104V287.632C184.402 287.739 184.37 287.829 184.306 287.904C184.242 287.968 184.156 288 184.05 288H182.962ZM189.501 288.16C188.327 288.16 187.421 287.829 186.781 287.168C186.151 286.507 185.815 285.627 185.773 284.528L185.757 283.84L185.773 283.152C185.815 282.053 186.157 281.173 186.797 280.512C187.447 279.851 188.349 279.52 189.501 279.52C190.653 279.52 191.549 279.851 192.189 280.512C192.839 281.173 193.186 282.053 193.229 283.152C193.25 283.387 193.261 283.616 193.261 283.84C193.261 284.064 193.25 284.293 193.229 284.528C193.186 285.627 192.845 286.507 192.205 287.168C191.575 287.829 190.674 288.16 189.501 288.16ZM189.501 286.96C190.183 286.96 190.722 286.747 191.117 286.32C191.522 285.883 191.741 285.259 191.773 284.448C191.783 284.341 191.789 284.139 191.789 283.84C191.789 283.541 191.783 283.339 191.773 283.232C191.741 282.421 191.522 281.803 191.117 281.376C190.722 280.939 190.183 280.72 189.501 280.72C188.818 280.72 188.274 280.939 187.869 281.376C187.474 281.803 187.261 282.421 187.229 283.232L187.213 283.84L187.229 284.448C187.261 285.259 187.474 285.883 187.869 286.32C188.274 286.747 188.818 286.96 189.501 286.96ZM201.842 288.16C201.32 288.16 200.834 288.053 200.386 287.84C199.949 287.627 199.597 287.339 199.33 286.976C199.074 286.603 198.946 286.192 198.946 285.744C198.946 285.04 199.234 284.464 199.81 284.016C200.386 283.568 201.17 283.269 202.162 283.12L204.562 282.784V282.32C204.562 281.221 203.928 280.672 202.658 280.672C202.168 280.672 201.773 280.773 201.474 280.976C201.176 281.168 200.957 281.397 200.818 281.664C200.776 281.771 200.728 281.845 200.674 281.888C200.632 281.92 200.568 281.936 200.482 281.936H199.858C199.762 281.936 199.677 281.904 199.602 281.84C199.538 281.765 199.506 281.68 199.506 281.584C199.506 281.339 199.618 281.056 199.842 280.736C200.077 280.405 200.434 280.123 200.914 279.888C201.394 279.643 201.981 279.52 202.674 279.52C203.869 279.52 204.722 279.797 205.234 280.352C205.757 280.907 206.018 281.6 206.018 282.432V287.632C206.018 287.739 205.981 287.829 205.906 287.904C205.842 287.968 205.757 288 205.65 288H204.946C204.84 288 204.754 287.968 204.69 287.904C204.626 287.829 204.594 287.739 204.594 287.632V286.928C204.36 287.28 204.018 287.573 203.57 287.808C203.122 288.043 202.546 288.16 201.842 288.16ZM202.162 286.992C202.866 286.992 203.442 286.763 203.89 286.304C204.338 285.845 204.562 285.179 204.562 284.304V283.856L202.69 284.128C201.922 284.235 201.341 284.416 200.946 284.672C200.552 284.928 200.354 285.248 200.354 285.632C200.354 286.069 200.53 286.405 200.882 286.64C201.245 286.875 201.672 286.992 202.162 286.992ZM208.863 288C208.757 288 208.666 287.968 208.591 287.904C208.527 287.829 208.495 287.739 208.495 287.632V280.048C208.495 279.941 208.527 279.856 208.591 279.792C208.666 279.717 208.757 279.68 208.863 279.68H209.551C209.669 279.68 209.759 279.712 209.823 279.776C209.887 279.84 209.919 279.931 209.919 280.048V280.752C210.239 280.357 210.607 280.053 211.023 279.84C211.45 279.627 211.978 279.52 212.607 279.52C213.631 279.52 214.426 279.851 214.991 280.512C215.557 281.163 215.839 282.027 215.839 283.104V287.632C215.839 287.739 215.802 287.829 215.727 287.904C215.663 287.968 215.578 288 215.471 288H214.735C214.629 288 214.538 287.968 214.463 287.904C214.399 287.829 214.367 287.739 214.367 287.632V283.2C214.367 282.432 214.181 281.835 213.807 281.408C213.434 280.981 212.901 280.768 212.207 280.768C211.525 280.768 210.981 280.987 210.575 281.424C210.17 281.851 209.967 282.443 209.967 283.2V287.632C209.967 287.739 209.93 287.829 209.855 287.904C209.791 287.968 209.706 288 209.599 288H208.863ZM219.518 291.04C219.422 291.04 219.342 291.008 219.278 290.944C219.214 290.88 219.182 290.805 219.182 290.72C219.182 290.688 219.208 290.592 219.262 290.432L220.51 287.504L217.454 280.288C217.39 280.16 217.358 280.069 217.358 280.016C217.368 279.92 217.406 279.84 217.47 279.776C217.534 279.712 217.608 279.68 217.694 279.68H218.43C218.6 279.68 218.728 279.765 218.814 279.936L221.278 285.824L223.806 279.936C223.891 279.765 224.019 279.68 224.19 279.68H224.91C224.995 279.68 225.07 279.712 225.134 279.776C225.198 279.84 225.23 279.915 225.23 280C225.23 280.075 225.203 280.171 225.15 280.288L220.622 290.784C220.568 290.869 220.51 290.933 220.446 290.976C220.392 291.019 220.318 291.04 220.222 291.04H219.518ZM230.098 288.16C228.924 288.16 228.018 287.829 227.378 287.168C226.748 286.507 226.412 285.627 226.37 284.528L226.354 283.84L226.37 283.152C226.412 282.053 226.754 281.173 227.394 280.512C228.044 279.851 228.946 279.52 230.098 279.52C231.25 279.52 232.146 279.851 232.786 280.512C233.436 281.173 233.783 282.053 233.826 283.152C233.847 283.387 233.858 283.616 233.858 283.84C233.858 284.064 233.847 284.293 233.826 284.528C233.783 285.627 233.442 286.507 232.802 287.168C232.172 287.829 231.271 288.16 230.098 288.16ZM230.098 286.96C230.78 286.96 231.319 286.747 231.714 286.32C232.119 285.883 232.338 285.259 232.37 284.448C232.38 284.341 232.386 284.139 232.386 283.84C232.386 283.541 232.38 283.339 232.37 283.232C232.338 282.421 232.119 281.803 231.714 281.376C231.319 280.939 230.78 280.72 230.098 280.72C229.415 280.72 228.871 280.939 228.466 281.376C228.071 281.803 227.858 282.421 227.826 283.232L227.81 283.84L227.826 284.448C227.858 285.259 228.071 285.883 228.466 286.32C228.871 286.747 229.415 286.96 230.098 286.96ZM236.406 288C236.299 288 236.208 287.968 236.134 287.904C236.07 287.829 236.038 287.739 236.038 287.632V280.048C236.038 279.941 236.07 279.856 236.134 279.792C236.208 279.717 236.299 279.68 236.406 279.68H237.094C237.211 279.68 237.302 279.712 237.366 279.776C237.43 279.84 237.462 279.931 237.462 280.048V280.752C237.782 280.357 238.15 280.053 238.566 279.84C238.992 279.627 239.52 279.52 240.15 279.52C241.174 279.52 241.968 279.851 242.534 280.512C243.099 281.163 243.382 282.027 243.382 283.104V287.632C243.382 287.739 243.344 287.829 243.27 287.904C243.206 287.968 243.12 288 243.014 288H242.278C242.171 288 242.08 287.968 242.006 287.904C241.942 287.829 241.91 287.739 241.91 287.632V283.2C241.91 282.432 241.723 281.835 241.35 281.408C240.976 280.981 240.443 280.768 239.75 280.768C239.067 280.768 238.523 280.987 238.118 281.424C237.712 281.851 237.51 282.443 237.51 283.2V287.632C237.51 287.739 237.472 287.829 237.398 287.904C237.334 287.968 237.248 288 237.142 288H236.406ZM249.15 288.16C248.062 288.16 247.193 287.824 246.542 287.152C245.891 286.469 245.534 285.541 245.47 284.368L245.454 283.824L245.47 283.296C245.534 282.144 245.891 281.227 246.542 280.544C247.193 279.861 248.062 279.52 249.15 279.52C250.323 279.52 251.23 279.893 251.87 280.64C252.521 281.387 252.846 282.4 252.846 283.68V283.968C252.846 284.075 252.809 284.165 252.734 284.24C252.67 284.304 252.585 284.336 252.478 284.336H246.926V284.48C246.958 285.173 247.171 285.765 247.566 286.256C247.961 286.747 248.483 286.992 249.134 286.992C249.635 286.992 250.041 286.896 250.35 286.704C250.67 286.501 250.91 286.293 251.07 286.08C251.166 285.952 251.241 285.877 251.294 285.856C251.347 285.824 251.438 285.808 251.566 285.808H252.27C252.366 285.808 252.446 285.835 252.51 285.888C252.585 285.941 252.622 286.011 252.622 286.096C252.622 286.331 252.478 286.613 252.19 286.944C251.902 287.275 251.491 287.563 250.958 287.808C250.435 288.043 249.833 288.16 249.15 288.16ZM251.39 283.248V283.2C251.39 282.453 251.187 281.845 250.782 281.376C250.377 280.907 249.833 280.672 249.15 280.672C248.457 280.672 247.913 280.907 247.518 281.376C247.123 281.845 246.926 282.453 246.926 283.2V283.248H251.39ZM259.289 278.112C259.182 278.112 259.092 278.08 259.017 278.016C258.953 277.941 258.921 277.851 258.921 277.744V276.912C258.921 276.805 258.953 276.715 259.017 276.64C259.092 276.565 259.182 276.528 259.289 276.528H260.233C260.34 276.528 260.43 276.565 260.505 276.64C260.58 276.715 260.617 276.805 260.617 276.912V277.744C260.617 277.851 260.58 277.941 260.505 278.016C260.43 278.08 260.34 278.112 260.233 278.112H259.289ZM259.417 288C259.31 288 259.22 287.968 259.145 287.904C259.081 287.829 259.049 287.739 259.049 287.632V280.048C259.049 279.941 259.081 279.856 259.145 279.792C259.22 279.717 259.31 279.68 259.417 279.68H260.121C260.228 279.68 260.313 279.717 260.377 279.792C260.452 279.856 260.489 279.941 260.489 280.048V287.632C260.489 287.739 260.452 287.829 260.377 287.904C260.313 287.968 260.228 288 260.121 288H259.417ZM263.421 288C263.314 288 263.223 287.968 263.149 287.904C263.085 287.829 263.053 287.739 263.053 287.632V280.048C263.053 279.941 263.085 279.856 263.149 279.792C263.223 279.717 263.314 279.68 263.421 279.68H264.109C264.226 279.68 264.317 279.712 264.381 279.776C264.445 279.84 264.477 279.931 264.477 280.048V280.752C264.797 280.357 265.165 280.053 265.581 279.84C266.007 279.627 266.535 279.52 267.165 279.52C268.189 279.52 268.983 279.851 269.549 280.512C270.114 281.163 270.397 282.027 270.397 283.104V287.632C270.397 287.739 270.359 287.829 270.285 287.904C270.221 287.968 270.135 288 270.029 288H269.293C269.186 288 269.095 287.968 269.021 287.904C268.957 287.829 268.925 287.739 268.925 287.632V283.2C268.925 282.432 268.738 281.835 268.365 281.408C267.991 280.981 267.458 280.768 266.765 280.768C266.082 280.768 265.538 280.987 265.133 281.424C264.727 281.851 264.525 282.443 264.525 283.2V287.632C264.525 287.739 264.487 287.829 264.413 287.904C264.349 287.968 264.263 288 264.157 288H263.421ZM279.823 288C278.169 288 277.343 287.067 277.343 285.2V280.912H276.079C275.972 280.912 275.887 280.88 275.823 280.816C275.759 280.752 275.727 280.667 275.727 280.56V280.048C275.727 279.941 275.759 279.856 275.823 279.792C275.887 279.717 275.972 279.68 276.079 279.68H277.343V277.008C277.343 276.901 277.375 276.816 277.439 276.752C277.503 276.677 277.588 276.64 277.695 276.64H278.399C278.505 276.64 278.591 276.677 278.655 276.752C278.729 276.816 278.767 276.901 278.767 277.008V279.68H280.751C280.857 279.68 280.943 279.717 281.007 279.792C281.081 279.856 281.119 279.941 281.119 280.048V280.56C281.119 280.667 281.081 280.752 281.007 280.816C280.943 280.88 280.857 280.912 280.751 280.912H278.767V285.088C278.767 285.632 278.852 286.043 279.023 286.32C279.204 286.597 279.508 286.736 279.935 286.736H280.911C281.017 286.736 281.103 286.773 281.167 286.848C281.231 286.912 281.263 286.997 281.263 287.104V287.632C281.263 287.739 281.231 287.829 281.167 287.904C281.103 287.968 281.017 288 280.911 288H279.823ZM283.37 288C283.263 288 283.173 287.968 283.098 287.904C283.034 287.829 283.002 287.739 283.002 287.632V277.008C283.002 276.891 283.034 276.8 283.098 276.736C283.173 276.672 283.263 276.64 283.37 276.64H284.106C284.223 276.64 284.314 276.672 284.378 276.736C284.442 276.8 284.474 276.891 284.474 277.008V280.736C284.783 280.341 285.146 280.043 285.562 279.84C285.989 279.627 286.511 279.52 287.13 279.52C288.154 279.52 288.949 279.851 289.514 280.512C290.09 281.163 290.378 282.027 290.378 283.104V287.632C290.378 287.739 290.341 287.829 290.266 287.904C290.202 287.968 290.117 288 290.01 288H289.258C289.151 288 289.061 287.968 288.986 287.904C288.922 287.829 288.89 287.739 288.89 287.632V283.2C288.89 282.432 288.703 281.835 288.33 281.408C287.957 280.981 287.418 280.768 286.714 280.768C286.031 280.768 285.487 280.987 285.082 281.424C284.677 281.851 284.474 282.443 284.474 283.2V287.632C284.474 287.739 284.437 287.829 284.362 287.904C284.298 287.968 284.213 288 284.106 288H283.37ZM296.161 288.16C295.073 288.16 294.203 287.824 293.553 287.152C292.902 286.469 292.545 285.541 292.481 284.368L292.465 283.824L292.481 283.296C292.545 282.144 292.902 281.227 293.553 280.544C294.203 279.861 295.073 279.52 296.161 279.52C297.334 279.52 298.241 279.893 298.881 280.64C299.531 281.387 299.857 282.4 299.857 283.68V283.968C299.857 284.075 299.819 284.165 299.745 284.24C299.681 284.304 299.595 284.336 299.489 284.336H293.937V284.48C293.969 285.173 294.182 285.765 294.577 286.256C294.971 286.747 295.494 286.992 296.145 286.992C296.646 286.992 297.051 286.896 297.361 286.704C297.681 286.501 297.921 286.293 298.081 286.08C298.177 285.952 298.251 285.877 298.305 285.856C298.358 285.824 298.449 285.808 298.577 285.808H299.281C299.377 285.808 299.457 285.835 299.521 285.888C299.595 285.941 299.633 286.011 299.633 286.096C299.633 286.331 299.489 286.613 299.201 286.944C298.913 287.275 298.502 287.563 297.969 287.808C297.446 288.043 296.843 288.16 296.161 288.16ZM298.401 283.248V283.2C298.401 282.453 298.198 281.845 297.793 281.376C297.387 280.907 296.843 280.672 296.161 280.672C295.467 280.672 294.923 280.907 294.529 281.376C294.134 281.845 293.937 282.453 293.937 283.2V283.248H298.401ZM307.893 288C307.743 288 307.631 287.968 307.557 287.904C307.482 287.84 307.423 287.739 307.381 287.6L305.109 280.176L305.077 280.016C305.077 279.92 305.109 279.84 305.173 279.776C305.237 279.712 305.317 279.68 305.413 279.68H306.069C306.175 279.68 306.261 279.712 306.325 279.776C306.399 279.829 306.442 279.883 306.453 279.936L308.261 286.048L310.181 280.016C310.202 279.931 310.25 279.856 310.325 279.792C310.399 279.717 310.501 279.68 310.629 279.68H311.141C311.269 279.68 311.37 279.717 311.445 279.792C311.519 279.856 311.567 279.931 311.589 280.016L313.509 286.048L315.317 279.936C315.327 279.883 315.365 279.829 315.429 279.776C315.503 279.712 315.594 279.68 315.701 279.68H316.357C316.453 279.68 316.533 279.712 316.597 279.776C316.661 279.84 316.693 279.92 316.693 280.016L316.661 280.176L314.389 287.6C314.346 287.739 314.287 287.84 314.213 287.904C314.138 287.968 314.026 288 313.877 288H313.301C313.023 288 312.842 287.867 312.757 287.6L310.885 281.808L309.013 287.6C308.927 287.867 308.746 288 308.469 288H307.893ZM321.799 288.16C320.625 288.16 319.719 287.829 319.079 287.168C318.449 286.507 318.113 285.627 318.071 284.528L318.055 283.84L318.071 283.152C318.113 282.053 318.455 281.173 319.095 280.512C319.745 279.851 320.647 279.52 321.799 279.52C322.951 279.52 323.847 279.851 324.487 280.512C325.137 281.173 325.484 282.053 325.527 283.152C325.548 283.387 325.559 283.616 325.559 283.84C325.559 284.064 325.548 284.293 325.527 284.528C325.484 285.627 325.143 286.507 324.503 287.168C323.873 287.829 322.972 288.16 321.799 288.16ZM321.799 286.96C322.481 286.96 323.02 286.747 323.415 286.32C323.82 285.883 324.039 285.259 324.071 284.448C324.081 284.341 324.087 284.139 324.087 283.84C324.087 283.541 324.081 283.339 324.071 283.232C324.039 282.421 323.82 281.803 323.415 281.376C323.02 280.939 322.481 280.72 321.799 280.72C321.116 280.72 320.572 280.939 320.167 281.376C319.772 281.803 319.559 282.421 319.527 283.232L319.511 283.84L319.527 284.448C319.559 285.259 319.772 285.883 320.167 286.32C320.572 286.747 321.116 286.96 321.799 286.96ZM328.107 288C328 288 327.91 287.968 327.835 287.904C327.771 287.829 327.739 287.739 327.739 287.632V280.064C327.739 279.957 327.771 279.867 327.835 279.792C327.91 279.717 328 279.68 328.107 279.68H328.779C328.896 279.68 328.987 279.717 329.051 279.792C329.126 279.856 329.163 279.947 329.163 280.064V280.768C329.6 280.043 330.342 279.68 331.387 279.68H332.011C332.128 279.68 332.219 279.712 332.283 279.776C332.347 279.84 332.379 279.931 332.379 280.048V280.64C332.379 280.747 332.347 280.837 332.283 280.912C332.219 280.976 332.128 281.008 332.011 281.008H331.099C330.512 281.008 330.048 281.179 329.707 281.52C329.376 281.861 329.211 282.325 329.211 282.912V287.632C329.211 287.739 329.174 287.829 329.099 287.904C329.024 287.968 328.934 288 328.827 288H328.107ZM334.299 288C334.192 288 334.101 287.968 334.027 287.904C333.963 287.829 333.931 287.739 333.931 287.632V277.008C333.931 276.891 333.963 276.8 334.027 276.736C334.101 276.672 334.192 276.64 334.299 276.64H335.003C335.109 276.64 335.195 276.677 335.259 276.752C335.333 276.816 335.371 276.901 335.371 277.008V287.632C335.371 287.739 335.333 287.829 335.259 287.904C335.195 287.968 335.109 288 335.003 288H334.299ZM340.974 288.16C339.854 288.16 339.011 287.797 338.446 287.072C337.891 286.347 337.593 285.429 337.55 284.32L337.534 283.84L337.55 283.36C337.593 282.261 337.897 281.349 338.462 280.624C339.027 279.888 339.865 279.52 340.974 279.52C342.083 279.52 342.947 279.915 343.566 280.704V277.008C343.566 276.901 343.598 276.816 343.662 276.752C343.737 276.677 343.827 276.64 343.934 276.64H344.654C344.761 276.64 344.846 276.677 344.91 276.752C344.985 276.816 345.022 276.901 345.022 277.008V287.632C345.022 287.739 344.985 287.829 344.91 287.904C344.846 287.968 344.761 288 344.654 288H343.966C343.859 288 343.774 287.968 343.71 287.904C343.646 287.829 343.614 287.739 343.614 287.632V286.944C343.006 287.755 342.126 288.16 340.974 288.16ZM341.278 286.912C342.025 286.912 342.585 286.667 342.958 286.176C343.331 285.675 343.534 285.083 343.566 284.4C343.577 284.283 343.582 284.08 343.582 283.792C343.582 283.493 343.577 283.285 343.566 283.168C343.545 282.517 343.337 281.957 342.942 281.488C342.558 281.008 342.003 280.768 341.278 280.768C340.51 280.768 339.95 281.008 339.598 281.488C339.246 281.968 339.054 282.597 339.022 283.376L339.006 283.84C339.006 285.888 339.763 286.912 341.278 286.912ZM347.85 288C347.743 288 347.653 287.968 347.578 287.904C347.514 287.829 347.482 287.739 347.482 287.632V286.528C347.482 286.421 347.514 286.331 347.578 286.256C347.653 286.181 347.743 286.144 347.85 286.144H348.954C349.061 286.144 349.146 286.181 349.21 286.256C349.285 286.331 349.322 286.421 349.322 286.528V287.632C349.322 287.739 349.285 287.829 349.21 287.904C349.146 287.968 349.061 288 348.954 288H347.85Z" fill="#828282"/>
<defs>
<filter id="filter0_d" x="0" y="0" width="450" height="513" filterUnits="userSpaceOnUse" color-interpolation-filters="sRGB">
<feFlood flood-opacity="0" result="BackgroundImageFix"/>
<feColorMatrix in="SourceAlpha" type="matrix" values="0 0 0 0 0 0 0 0 0 0 0 0 0 0 0 0 0 0 127 0"/>
<feOffset dy="40"/>
<feGaussianBlur stdDeviation="20"/>
<feColorMatrix type="matrix" values="0 0 0 0 0.223529 0 0 0 0 0.0901961 0 0 0 0 0.466667 0 0 0 1 0"/>
<feBlend mode="normal" in2="BackgroundImageFix" result="effect1_dropShadow"/>
<feBlend mode="normal" in="SourceGraphic" in2="effect1_dropShadow" result="shape"/>
</filter>
<clipPath id="clip0">
<rect width="80" height="80" fill="white" transform="translate(181 49)"/>
</clipPath>
</defs>
</svg>
